<svg width="45" height="45" viewBox="0 0 45 45" fill="none" xmlns="http://www.w3.org/2000/svg">
<path d="M22.5 0C34.9268 0 45 10.0733 45 22.5C45 34.9268 34.9268 45 22.5 45C10.0733 45 0 34.9268 0 22.5C0 10.0733 10.0733 0 22.5 0ZM22.5 11.25C22.0922 11.25 21.6982 11.3977 21.3909 11.6657C21.0836 11.9338 20.8837 12.304 20.8283 12.708L20.8125 12.9375V20.8125H12.9375C12.5099 20.8126 12.0984 20.975 11.786 21.2669C11.4736 21.5588 11.2836 21.9584 11.2544 22.385C11.2253 22.8115 11.3592 23.2333 11.629 23.5649C11.8988 23.8966 12.2844 24.1135 12.708 24.1717L12.9375 24.1875H20.8125V32.0625C20.8126 32.4901 20.975 32.9016 21.2669 33.214C21.5588 33.5264 21.9584 33.7164 22.385 33.7456C22.8115 33.7747 23.2333 33.6408 23.5649 33.371C23.8966 33.1012 24.1135 32.7156 24.1717 32.292L24.1875 32.0625V24.1875H32.0625C32.4901 24.1874 32.9016 24.025 33.214 23.7331C33.5264 23.4412 33.7164 23.0416 33.7456 22.615C33.7747 22.1885 33.6408 21.7667 33.371 21.4351C33.1012 21.1034 32.7156 20.8865 32.292 20.8283L32.0625 20.8125H24.1875V12.9375C24.1875 12.4899 24.0097 12.0607 23.6932 11.7443C23.3768 11.4278 22.9476 11.25 22.5 11.25Z" fill="#7141FA"/>
</svg>
