<svg width="87" height="86" viewBox="0 0 87 86" fill="none" xmlns="http://www.w3.org/2000/svg">
<rect x="0.35144" width="85.8604" height="85.8604" rx="15" fill="#FCBAC2"/>
<g filter="url(#filter0_d_3195_7550)">
<path d="M55.0568 64.9432C52.795 67.2036 49.1272 67.2036 46.8654 64.9432L19.2198 37.2976C16.958 35.0358 16.958 33.4155 19.2198 31.1537L31.5062 18.8673C33.768 16.6054 35.3884 16.6054 37.6502 18.8673L65.2958 46.5128C67.5576 48.7747 67.5576 52.4425 65.2958 54.7043L55.0568 64.9432Z" fill="#C1694F"/>
<path d="M40.9267 38.5269L33.8531 31.4533L42.0445 23.2619L39.9956 21.2144L31.8056 29.4058L26.3857 23.9859L24.3382 26.0348L29.7581 31.4533L21.5667 39.6447L23.6142 41.6922L31.8056 33.5008L38.8792 40.5744L40.9267 38.5269Z" fill="#8A4B38"/>
<path d="M55.0574 66.9908C52.7956 69.2526 49.1277 69.2526 46.8659 66.9908L32.532 52.6568L53.0099 32.179L67.3438 46.5129C69.6056 48.7747 69.6056 52.4425 67.3438 54.7043L55.0574 66.9908Z" fill="#DD2E44"/>
<path d="M35.489 55.6134L42.2556 62.3814L53.7746 32.9432L53.01 32.1772L50.8322 30.8276L35.489 55.6134Z" fill="#BE1931"/>
<path d="M49.9386 29.1063L53.0099 32.1775C51.9861 35.2502 40.7234 54.7044 38.6745 58.7994C38.6745 58.7994 37.6507 61.8706 35.0906 59.312L27.4103 51.6317C26.4271 50.6485 26.4184 48.53 27.4103 47.5367L45.8422 29.1063C47.8897 27.0588 49.9386 29.1063 49.9386 29.1063Z" fill="#CCD6DD"/>
</g>
<defs>
<filter id="filter0_d_3195_7550" x="13.5234" y="17.1709" width="59.5167" height="59.5164" filterUnits="userSpaceOnUse" color-interpolation-filters="sRGB">
<feFlood flood-opacity="0" result="BackgroundImageFix"/>
<feColorMatrix in="SourceAlpha" type="matrix" values="0 0 0 0 0 0 0 0 0 0 0 0 0 0 0 0 0 0 127 0" result="hardAlpha"/>
<feOffset dy="4"/>
<feGaussianBlur stdDeviation="2"/>
<feComposite in2="hardAlpha" operator="out"/>
<feColorMatrix type="matrix" values="0 0 0 0 0.866667 0 0 0 0 0.180392 0 0 0 0 0.266667 0 0 0 0.44 0"/>
<feBlend mode="normal" in2="BackgroundImageFix" result="effect1_dropShadow_3195_7550"/>
<feBlend mode="normal" in="SourceGraphic" in2="effect1_dropShadow_3195_7550" result="shape"/>
</filter>
</defs>
</svg>
