<svg width="13" height="8" viewBox="0 0 13 8" fill="none" xmlns="http://www.w3.org/2000/svg">
<path d="M12.2676 0.769659C12.1632 0.666281 12.0392 0.584265 11.9027 0.528306C11.7662 0.472346 11.6198 0.443542 11.472 0.443542C11.3242 0.443542 11.1779 0.472346 11.0414 0.528306C10.9049 0.584265 10.7809 0.666281 10.6765 0.769659L6.29809 5.09641L1.9197 0.769659C1.81523 0.666417 1.6912 0.584521 1.5547 0.528647C1.4182 0.472772 1.2719 0.444015 1.12415 0.444015C0.976398 0.444015 0.830095 0.472772 0.693594 0.528647C0.557092 0.584521 0.433062 0.666417 0.328588 0.769659C0.224113 0.872901 0.141242 0.995467 0.0847015 1.13036C0.0281601 1.26525 -0.000940323 1.40983 -0.000940323 1.55583C-0.000940323 1.70184 0.0281601 1.84642 0.0847015 1.98131C0.141242 2.1162 0.224113 2.23877 0.328588 2.34201L5.50817 7.46051C5.61257 7.56389 5.73657 7.64591 5.87309 7.70187C6.0096 7.75782 6.15594 7.78663 6.30373 7.78663C6.45152 7.78663 6.59786 7.75782 6.73437 7.70187C6.87088 7.64591 6.99489 7.56389 7.09929 7.46051L12.2676 2.35316C12.7077 1.91826 12.7077 1.20456 12.2676 0.769659Z" fill="black"/>
</svg>
