<svg width="23" height="31" viewBox="0 0 23 31" fill="none" xmlns="http://www.w3.org/2000/svg">
<path d="M12.9195 30.1205C16.0461 26.2626 23 16.9123 23 11.6603C23 5.28817 17.8514 0.122681 11.5 0.122681C5.15104 0.122681 0 5.28817 0 11.6603C0 16.9123 7.00781 26.2626 10.0805 30.1205C10.8172 31.0399 12.1828 31.0399 12.9195 30.1205ZM11.5 15.5062C9.38568 15.5062 7.66667 13.7815 7.66667 11.6603C7.66667 9.53906 9.38568 7.81443 11.5 7.81443C13.6143 7.81443 15.3333 9.53906 15.3333 11.6603C15.3333 13.7815 13.6143 15.5062 11.5 15.5062Z" fill="black"/>
</svg>
