<svg width="86" height="86" viewBox="0 0 86 86" fill="none" xmlns="http://www.w3.org/2000/svg">
<rect x="0.0922241" width="85.7139" height="85.7139" rx="15" fill="#F8D7FB"/>
<g filter="url(#filter0_d_3195_7617)">
<path d="M69.7884 47.397C68.241 56.6724 58.365 62.8574 44.2774 62.8574C30.1898 62.8574 20.3154 56.6724 18.7695 47.397C18.4041 45.2091 19.0002 35.3849 20.3287 33.4825C24.1143 28.0623 25.4678 48.8157 44.2774 48.8157C64.7616 48.8157 64.4554 28.0638 68.241 33.4825C69.5694 35.3849 70.1523 45.2091 69.7884 47.397Z" fill="#FFAC33"/>
<path d="M44.2781 21.4282C30.4746 21.4282 19.285 28.2094 19.285 36.575C19.285 44.9406 30.4746 51.7233 44.2781 51.7233C58.0802 51.7233 69.2713 44.9406 69.2713 36.575C69.2713 28.2094 58.0802 21.4282 44.2781 21.4282ZM44.2781 41.2127C39.5828 41.2127 35.775 40.1742 35.775 38.8931C35.775 37.612 39.5828 36.575 44.2781 36.575C48.972 36.575 52.7798 37.612 52.7798 38.8931C52.7813 40.1742 48.9735 41.2127 44.2781 41.2127Z" fill="#8A4B38"/>
<path d="M20.058 34.1923C19.092 35.7382 18.6971 42.3197 20.7666 45.4012C23.9235 50.1054 25.4694 47.7193 27.789 48.4293C31.2432 49.4871 31.4991 52.2164 34.23 53.5818C37.3218 55.1277 39.1206 54.678 43.5053 53.5818C49.6904 52.0359 53.6195 55.1913 57.4184 53.5818C60.5353 52.2608 62.3179 47.4619 64.0546 46.8835C69.5695 45.0461 70.7338 36.3448 66.6301 32.7751C65.3431 35.4808 59.0294 45.2074 54.9716 45.6601C50.9123 46.1112 38.7375 47.1394 33.585 44.5003C28.431 41.8597 23.2149 38.5741 22.5699 37.6717C21.925 36.7678 20.058 34.1923 20.058 34.1923Z" fill="#8A4B38"/>
<path d="M44.278 33.0959C38.7276 33.0959 34.2289 34.9126 34.2289 37.1537C34.2289 38.0251 34.9139 38.8298 36.0707 39.4911C35.8843 39.3002 35.7748 39.1005 35.7748 38.8934C35.7748 37.6123 39.5826 36.5753 44.278 36.5753C48.9719 36.5753 52.7797 37.6123 52.7797 38.8934C52.7797 39.1005 52.6717 39.2988 52.4838 39.4911C53.6406 38.8298 54.327 38.0251 54.327 37.1537C54.3285 34.9126 49.8284 33.0959 44.278 33.0959Z" fill="#F4900C"/>
<path d="M24.0513 39.4106C23.4966 39.4106 22.961 39.1103 22.6829 38.5866C22.2835 37.8321 22.572 36.8957 23.3279 36.4978L26.7422 34.693C27.4952 34.2906 28.4316 34.5821 28.831 35.338C29.2304 36.0925 28.9419 37.0289 28.186 37.4268L24.7717 39.2316C24.541 39.3529 24.2939 39.4106 24.0513 39.4106ZM41.636 50.9404C41.0295 50.9404 40.454 50.5824 40.207 49.9848L39.1123 47.3427C38.7854 46.5542 39.1596 45.6504 39.9481 45.3234C40.7381 44.998 41.6405 45.3708 41.9674 46.1607L43.0621 48.8028C43.389 49.5913 43.0147 50.4966 42.2248 50.8221C42.034 50.9034 41.8328 50.9404 41.636 50.9404Z" fill="#F4ABBA"/>
<path d="M59.1591 44.7553C58.8913 44.7553 58.6206 44.6858 58.3751 44.5394C57.6398 44.1059 57.3957 43.1562 57.8307 42.4224L59.5053 39.5881C59.9387 38.8543 60.8929 38.6102 61.6222 39.0437C62.3574 39.4786 62.6015 40.4268 62.1666 41.1621L60.492 43.995C60.2035 44.4831 59.6887 44.7553 59.1591 44.7553Z" fill="#55ACEE"/>
<path d="M61.7346 33.2709C60.9062 33.2709 60.2213 32.5593 60.1917 31.7235C60.1606 30.8714 60.8293 30.1273 61.6814 30.0962L63.4832 30.0193C64.3516 30.009 65.0542 30.6495 65.0823 31.5031C65.1134 32.3567 64.4448 33.1244 63.5927 33.154L61.7909 33.2709H61.7346ZM46.792 27.1701C46.1352 27.1701 45.5272 26.7485 45.3171 26.0902C45.0597 25.2766 45.5109 24.4082 46.3245 24.1494L47.5464 23.7633C48.3689 23.5059 49.2299 23.9571 49.4873 24.7722C49.7462 25.5858 49.2935 26.4542 48.4799 26.713L47.258 27.0991C47.1026 27.148 46.9458 27.1701 46.792 27.1701Z" fill="#F4ABBA"/>
<path d="M38.2226 29.6827C37.9904 29.6827 37.7552 29.6294 37.5333 29.5199L36.3735 28.9401C35.6102 28.5584 35.2995 27.6294 35.6812 26.866C36.0628 26.1027 36.9918 25.7921 37.7552 26.1737L38.915 26.7536C39.6783 27.1353 39.989 28.0643 39.6073 28.8276C39.3351 29.3691 38.7892 29.6827 38.2226 29.6827ZM51.6874 49.3281C51.4567 49.3281 51.2215 49.2763 50.9996 49.1668L49.8398 48.5884C49.075 48.2068 48.7643 47.2792 49.1445 46.5159C49.5247 45.7511 50.4522 45.4404 51.217 45.8206L52.3768 46.399C53.1416 46.7807 53.4523 47.7082 53.0721 48.4716C52.8029 49.0145 52.254 49.3281 51.6874 49.3281Z" fill="#88C9F9"/>
<path d="M31.4552 45.9158C31.2511 45.9158 31.0455 45.8774 30.8458 45.7901C30.0617 45.4528 29.6978 44.5445 30.0351 43.7605L30.615 42.4084C30.9523 41.6258 31.862 41.256 32.6461 41.5977C33.4301 41.9335 33.794 42.8433 33.4568 43.6273L32.8769 44.9794C32.6254 45.5638 32.0558 45.9158 31.4552 45.9158ZM54.5208 31.2927C53.9247 31.2927 53.3566 30.9466 53.1037 30.3652C52.7605 29.5826 53.1184 28.6714 53.8995 28.3296L54.9291 27.8784C55.7132 27.5352 56.6244 27.8932 56.9647 28.6743C57.3064 29.4569 56.9499 30.3681 56.1688 30.7113L55.1392 31.1625C54.9365 31.2513 54.7265 31.2927 54.5208 31.2927ZM29.3975 31.2291C29.2821 31.2291 29.1652 31.2158 29.0499 31.1892L28.2126 30.9969C27.3812 30.8045 26.8605 29.9746 27.0528 29.1433C27.2436 28.3104 28.075 27.7926 28.9064 27.9835L29.7437 28.1758C30.575 28.3681 31.0958 29.198 30.9034 30.0294C30.7378 30.7439 30.1002 31.2291 29.3975 31.2291Z" fill="#55ACEE"/>
</g>
<defs>
<filter id="filter0_d_3195_7617" x="14.6637" y="21.4282" width="59.2311" height="49.4292" filterUnits="userSpaceOnUse" color-interpolation-filters="sRGB">
<feFlood flood-opacity="0" result="BackgroundImageFix"/>
<feColorMatrix in="SourceAlpha" type="matrix" values="0 0 0 0 0 0 0 0 0 0 0 0 0 0 0 0 0 0 127 0" result="hardAlpha"/>
<feOffset dy="4"/>
<feGaussianBlur stdDeviation="2"/>
<feComposite in2="hardAlpha" operator="out"/>
<feColorMatrix type="matrix" values="0 0 0 0 0.541176 0 0 0 0 0.294118 0 0 0 0 0.219608 0 0 0 0.33 0"/>
<feBlend mode="normal" in2="BackgroundImageFix" result="effect1_dropShadow_3195_7617"/>
<feBlend mode="normal" in="SourceGraphic" in2="effect1_dropShadow_3195_7617" result="shape"/>
</filter>
</defs>
</svg>
