<svg width="32" height="32" viewBox="0 0 32 32" fill="none" xmlns="http://www.w3.org/2000/svg">
<path d="M2.66667 32C2.66667 32 0 32 0 29.3333C0 26.6667 2.66667 18.6667 16 18.6667C29.3333 18.6667 32 26.6667 32 29.3333C32 32 29.3333 32 29.3333 32H2.66667ZM16 16C18.1217 16 20.1566 15.1571 21.6569 13.6569C23.1571 12.1566 24 10.1217 24 8C24 5.87827 23.1571 3.84344 21.6569 2.34315C20.1566 0.842855 18.1217 0 16 0C13.8783 0 11.8434 0.842855 10.3431 2.34315C8.84286 3.84344 8 5.87827 8 8C8 10.1217 8.84286 12.1566 10.3431 13.6569C11.8434 15.1571 13.8783 16 16 16Z" fill="#7140FA"/>
</svg>
