<svg width="32" height="32" viewBox="0 0 32 32" fill="none" xmlns="http://www.w3.org/2000/svg">
<path d="M22.1538 13.5385C22.1538 11.1667 21.3109 9.13782 19.625 7.45192C17.9391 5.76603 15.9103 4.92308 13.5385 4.92308C11.1667 4.92308 9.13782 5.76603 7.45192 7.45192C5.76603 9.13782 4.92308 11.1667 4.92308 13.5385C4.92308 15.9103 5.76603 17.9391 7.45192 19.625C9.13782 21.3109 11.1667 22.1538 13.5385 22.1538C15.9103 22.1538 17.9391 21.3109 19.625 19.625C21.3109 17.9391 22.1538 15.9103 22.1538 13.5385ZM32 29.5385C32 30.2051 31.7564 30.7821 31.2692 31.2692C30.7821 31.7564 30.2051 32 29.5385 32C28.8462 32 28.2692 31.7564 27.8077 31.2692L21.2115 24.6923C18.9167 26.2821 16.359 27.0769 13.5385 27.0769C11.7051 27.0769 9.95192 26.7212 8.27885 26.0096C6.60577 25.2981 5.16346 24.3365 3.95192 23.125C2.74038 21.9135 1.77885 20.4712 1.06731 18.7981C0.355769 17.125 0 15.3718 0 13.5385C0 11.7051 0.355769 9.95192 1.06731 8.27885C1.77885 6.60577 2.74038 5.16346 3.95192 3.95192C5.16346 2.74038 6.60577 1.77885 8.27885 1.06731C9.95192 0.355769 11.7051 0 13.5385 0C15.3718 0 17.125 0.355769 18.7981 1.06731C20.4712 1.77885 21.9135 2.74038 23.125 3.95192C24.3365 5.16346 25.2981 6.60577 26.0096 8.27885C26.7212 9.95192 27.0769 11.7051 27.0769 13.5385C27.0769 16.359 26.2821 18.9167 24.6923 21.2115L31.2885 27.8077C31.7628 28.2821 32 28.859 32 29.5385Z" fill="#C1C1C1"/>
</svg>
