<svg width="26" height="26" viewBox="0 0 26 26" fill="none" xmlns="http://www.w3.org/2000/svg">
<path d="M13 17.8966L6.14286 11.1379M13 25.5V11.9828V25.5ZM13 12.8276V17.8966V12.8276ZM13 12.8276C13 11.0351 12.2776 9.31601 10.9916 8.04852C9.70563 6.78103 7.96148 6.06897 6.14286 6.06897H1V11.1379C1 12.9304 1.72245 14.6495 3.00841 15.917C4.29437 17.1845 6.03852 17.8966 7.85714 17.8966H13V12.8276ZM13 12.8276H18.1429C19.9615 12.8276 21.7056 12.1155 22.9916 10.848C24.2776 9.58055 25 7.86146 25 6.06897V1H19.8571C18.0385 1 16.2944 1.71207 15.0084 2.97955C13.7224 4.24704 13 5.96612 13 7.75862V12.8276ZM13 12.8276L19.8571 6.06897L13 12.8276Z" stroke="black" stroke-width="2"/>
</svg>
