<svg width="100" height="100" viewBox="0 0 100 100" fill="none" xmlns="http://www.w3.org/2000/svg">
<circle cx="50" cy="50" r="50" fill="white"/>
<path d="M50 0C77.615 0 100 22.385 100 50C100 77.615 77.615 100 50 100C22.385 100 0 77.615 0 50C0 22.385 22.385 0 50 0ZM50 25C49.0938 25 48.2183 25.3282 47.5353 25.9238C46.8524 26.5195 46.4082 27.3422 46.285 28.24L46.25 28.75V46.25H28.75C27.7999 46.2503 26.8853 46.6112 26.191 47.2599C25.4968 47.9085 25.0746 48.7965 25.0099 49.7444C24.9451 50.6923 25.2426 51.6295 25.8422 52.3665C26.4417 53.1035 27.2988 53.5855 28.24 53.715L28.75 53.75H46.25V71.25C46.2503 72.2001 46.6112 73.1147 47.2599 73.809C47.9085 74.5032 48.7965 74.9254 49.7444 74.9901C50.6923 75.0549 51.6295 74.7574 52.3665 74.1578C53.1035 73.5583 53.5855 72.7012 53.715 71.76L53.75 71.25V53.75H71.25C72.2001 53.7497 73.1147 53.3888 73.809 52.7401C74.5032 52.0915 74.9254 51.2035 74.9901 50.2556C75.0549 49.3077 74.7574 48.3705 74.1578 47.6335C73.5583 46.8965 72.7012 46.4145 71.76 46.285L71.25 46.25H53.75V28.75C53.75 27.7554 53.3549 26.8016 52.6516 26.0984C51.9484 25.3951 50.9946 25 50 25Z" fill="#7141FA"/>
</svg>
