<svg width="25" height="26" viewBox="0 0 25 26" fill="none" xmlns="http://www.w3.org/2000/svg">
<path d="M23.5332 1.12202C23.6435 1.23873 23.7303 1.3766 23.7893 1.52736C23.8482 1.6781 23.8784 1.83924 23.8784 2.00166C23.8784 2.16408 23.8482 2.32522 23.7893 2.47597C23.7303 2.62663 23.6436 2.76441 23.5334 2.88107L23.5332 1.12202ZM23.5332 1.12202L23.3515 1.29375L23.5332 1.12202ZM2.79373 24.8783L23.5332 2.8813L21.8345 1.12248L1.09505 23.1195C0.87291 23.3551 0.750488 23.6716 0.750488 23.9989C0.750488 24.3261 0.87291 24.6427 1.09505 24.8783C1.31766 25.1144 1.62284 25.25 1.94439 25.25C2.26594 25.25 2.57112 25.1144 2.79373 24.8783ZM23.0454 1.07635L23.1461 0.847534C23.0001 0.783291 22.843 0.75 22.684 0.75C22.525 0.75 22.368 0.783291 22.222 0.847534C22.0762 0.911715 21.9447 1.00533 21.8347 1.12225L23.0454 1.07635Z" fill="black" stroke="black" stroke-width="0.5"/>
<path d="M1.09506 1.12225C0.98484 1.23891 0.898115 1.37669 0.839172 1.52736C0.780195 1.6781 0.75 1.83924 0.75 2.00166C0.75 2.16408 0.780195 2.32522 0.839172 2.47596C0.898129 2.62666 0.984879 2.76447 1.09513 2.88115C1.09518 2.8812 1.09523 2.88125 1.09527 2.8813L21.8347 24.8783C22.0573 25.1144 22.3625 25.25 22.6841 25.25C23.0056 25.25 23.3108 25.1144 23.5334 24.8783C23.7555 24.6427 23.878 24.3261 23.878 23.9989C23.878 23.6716 23.7555 23.3551 23.5334 23.1195L2.79395 1.12248C2.79391 1.12243 2.79386 1.12238 2.79381 1.12233C2.68378 1.00537 2.55228 0.911731 2.40641 0.847534C2.26045 0.783291 2.1034 0.75 1.9444 0.75C1.7854 0.75 1.62835 0.783291 1.48238 0.847534C1.33655 0.911716 1.20507 1.00533 1.09506 1.12225Z" fill="black" stroke="black" stroke-width="0.5"/>
</svg>
