<svg width="27" height="32" viewBox="0 0 27 32" fill="none" xmlns="http://www.w3.org/2000/svg">
<path d="M13.5 17.8125C15.8817 17.8125 17.8125 15.8817 17.8125 13.5C17.8125 11.1183 15.8817 9.1875 13.5 9.1875C11.1183 9.1875 9.1875 11.1183 9.1875 13.5C9.1875 15.8817 11.1183 17.8125 13.5 17.8125Z" stroke="black" stroke-width="2.5" stroke-linecap="round" stroke-linejoin="round"/>
<path d="M13.5 2C10.45 2 7.52494 3.2116 5.36827 5.36827C3.2116 7.52494 2 10.45 2 13.5C2 16.2197 2.57787 17.9994 4.15625 19.9688L13.5 30.75L22.8438 19.9688C24.4221 17.9994 25 16.2197 25 13.5C25 10.45 23.7884 7.52494 21.6317 5.36827C19.4751 3.2116 16.55 2 13.5 2V2Z" stroke="black" stroke-width="2.5" stroke-linecap="round" stroke-linejoin="round"/>
</svg>
