<svg width="30" height="30" viewBox="0 0 30 30" fill="none" xmlns="http://www.w3.org/2000/svg">
<path d="M13.1204 7.51298L8.72257 2.43678C8.21557 1.85182 7.28607 1.85442 6.69718 2.44458L3.0806 6.06746C2.0042 7.1451 1.6961 8.7453 2.3188 10.0283C6.03888 17.7303 12.2508 23.9506 19.948 27.6813C21.2298 28.3039 22.8288 27.9959 23.9052 26.9182L27.5556 23.2615C28.1471 22.6701 28.1484 21.7354 27.5582 21.2285L22.4622 16.8542C21.9292 16.3966 21.1011 16.4564 20.5668 16.992L18.7936 18.7677C18.7028 18.8628 18.5833 18.9256 18.4535 18.9462C18.3236 18.9669 18.1905 18.9444 18.0747 18.8821C15.1763 17.2131 12.772 14.8058 11.1068 11.9054C11.0444 11.7894 11.0218 11.6561 11.0425 11.526C11.0631 11.396 11.1259 11.2762 11.2212 11.1853L12.9891 9.41606C13.5247 8.8779 13.5832 8.04595 13.1204 7.51168V7.51298Z" stroke="black" stroke-width="2.5" stroke-linecap="round" stroke-linejoin="round"/>
</svg>
