<svg width="10" height="15" viewBox="0 0 10 15" fill="none" xmlns="http://www.w3.org/2000/svg">
<path fill-rule="evenodd" clip-rule="evenodd" d="M0.387866 13.1379L7.63522 7.5L0.387866 1.86208C0.292693 1.78804 0.210948 1.69285 0.1473 1.58195C0.0836525 1.47105 0.0393474 1.3466 0.0169148 1.21572C-0.00551783 1.08484 -0.00563885 0.950082 0.0165591 0.819146C0.038757 0.688209 0.0828391 0.563656 0.146288 0.452599C0.274429 0.228308 0.473678 0.0726035 0.700201 0.0197378C0.812364 -0.00643872 0.927848 -0.00657994 1.04006 0.0193227C1.15227 0.0452253 1.25901 0.0966644 1.35418 0.170703L9.56978 6.56185C9.70212 6.66482 9.81063 6.80433 9.88568 6.96799C9.96073 7.13164 10 7.31439 10 7.5C10 7.68562 9.96073 7.86836 9.88568 8.03201C9.81063 8.19567 9.70212 8.33518 9.56978 8.43815L1.35418 14.8293C1.25901 14.9033 1.15227 14.9548 1.04006 14.9807C0.927848 15.0066 0.812364 15.0064 0.700201 14.9803C0.588038 14.9541 0.481392 14.9024 0.386351 14.8281C0.291311 14.7538 0.209737 14.6585 0.146288 14.5474C0.0828391 14.4363 0.038757 14.3118 0.0165591 14.1809C-0.00563885 14.0499 -0.00551783 13.9152 0.0169148 13.7843C0.0393474 13.6534 0.0836525 13.529 0.1473 13.418C0.210948 13.3071 0.292693 13.212 0.387866 13.1379Z" fill="black"/>
</svg>
