<svg width="50" height="50" viewBox="0 0 50 50" fill="none" xmlns="http://www.w3.org/2000/svg">
<circle cx="25.4849" cy="24.5161" r="24.5161" fill="#EEE9FF"/>
<path d="M25.0617 25.058C25.7638 25.058 26.3329 24.4889 26.3329 23.7868C26.3329 23.0848 25.7638 22.5156 25.0617 22.5156C24.3597 22.5156 23.7905 23.0848 23.7905 23.7868C23.7905 24.4889 24.3597 25.058 25.0617 25.058Z" fill="#7141FA"/>
<path d="M30.1462 25.058C30.8483 25.058 31.4174 24.4889 31.4174 23.7868C31.4174 23.0848 30.8483 22.5156 30.1462 22.5156C29.4441 22.5156 28.875 23.0848 28.875 23.7868C28.875 24.4889 29.4441 25.058 30.1462 25.058Z" fill="#7141FA"/>
<path d="M19.9768 25.058C20.6788 25.058 21.248 24.4889 21.248 23.7868C21.248 23.0848 20.6788 22.5156 19.9768 22.5156C19.2747 22.5156 18.7056 23.0848 18.7056 23.7868C18.7056 24.4889 19.2747 25.058 19.9768 25.058Z" fill="#7141FA"/>
<path d="M33.9601 13.6172H16.1632C15.1518 13.6172 14.1818 14.019 13.4666 14.7342C12.7514 15.4494 12.3496 16.4194 12.3496 17.4308V36.4989C12.35 36.7242 12.4102 36.9453 12.5241 37.1396C12.6381 37.3339 12.8016 37.4945 12.9979 37.6049C13.1879 37.7125 13.4024 37.7694 13.6208 37.7701C13.849 37.7701 14.0729 37.7086 14.2691 37.5921L19.9768 34.1345C20.1878 34.0089 20.4307 33.9471 20.676 33.9565H33.9601C34.9716 33.9565 35.9416 33.5547 36.6568 32.8395C37.3719 32.1243 37.7737 31.1543 37.7737 30.1429V17.4308C37.7737 16.4194 37.3719 15.4494 36.6568 14.7342C35.9416 14.019 34.9716 13.6172 33.9601 13.6172ZM35.2313 30.1429C35.2313 30.48 35.0974 30.8034 34.859 31.0418C34.6206 31.2802 34.2973 31.4141 33.9601 31.4141H20.676C19.9817 31.4135 19.3004 31.6025 18.7056 31.9607L14.892 34.2489V17.4308C14.892 17.0937 15.026 16.7703 15.2644 16.5319C15.5027 16.2935 15.8261 16.1596 16.1632 16.1596H33.9601C34.2973 16.1596 34.6206 16.2935 34.859 16.5319C35.0974 16.7703 35.2313 17.0937 35.2313 17.4308V30.1429Z" fill="#7141FA"/>
</svg>
