<svg width="87" height="86" viewBox="0 0 87 86" fill="none" xmlns="http://www.w3.org/2000/svg">
<rect x="0.702881" width="85.8604" height="85.8604" rx="15" fill="#FFD9C7"/>
<g filter="url(#filter0_d_3195_7558)">
<path d="M17.875 36.0132C17.875 25.3548 32.7651 13.678 44.6772 24.1011C48.7184 27.6375 52.1223 30.0571 52.1223 34.5242C69.9905 31.5462 72.5263 47.7645 69.9905 55.3704C68.5015 59.8374 61.2529 71.8374 34.2541 59.8374C20.853 53.8813 17.875 42.541 17.875 36.0132Z" fill="#D99E82"/>
<path d="M43.8752 38.7251C46.5957 36.1387 49.2774 35.0056 52.2867 34.4993L52.1244 34.5217C52.1244 33.2441 51.8206 32.1437 51.3292 31.1267C48.241 32.2762 44.9444 34.5231 43.8752 38.7251Z" fill="#C1694F"/>
<path d="M32.7634 41.9697C33.5858 41.9697 34.2524 41.3031 34.2524 40.4807C34.2524 39.6584 33.5858 38.9917 32.7634 38.9917C31.9411 38.9917 31.2744 39.6584 31.2744 40.4807C31.2744 41.3031 31.9411 41.9697 32.7634 41.9697Z" fill="#C1694F"/>
<path d="M62.5454 56.8584C63.3678 56.8584 64.0344 56.1917 64.0344 55.3694C64.0344 54.547 63.3678 53.8804 62.5454 53.8804C61.7231 53.8804 61.0564 54.547 61.0564 55.3694C61.0564 56.1917 61.7231 56.8584 62.5454 56.8584Z" fill="#C1694F"/>
<path d="M39.4647 56.8591C40.6983 56.8591 41.6982 55.8591 41.6982 54.6256C41.6982 53.3921 40.6983 52.3921 39.4647 52.3921C38.2312 52.3921 37.2312 53.3921 37.2312 54.6256C37.2312 55.8591 38.2312 56.8591 39.4647 56.8591Z" fill="#C1694F"/>
<path d="M26.0653 47.9255C27.2988 47.9255 28.2988 46.9256 28.2988 45.692C28.2988 44.4585 27.2988 43.4585 26.0653 43.4585C24.8318 43.4585 23.8318 44.4585 23.8318 45.692C23.8318 46.9256 24.8318 47.9255 26.0653 47.9255Z" fill="#C1694F"/>
</g>
<defs>
<filter id="filter0_d_3195_7558" x="13.875" y="20.0352" width="60.9473" height="52.9836" filterUnits="userSpaceOnUse" color-interpolation-filters="sRGB">
<feFlood flood-opacity="0" result="BackgroundImageFix"/>
<feColorMatrix in="SourceAlpha" type="matrix" values="0 0 0 0 0 0 0 0 0 0 0 0 0 0 0 0 0 0 127 0" result="hardAlpha"/>
<feOffset dy="4"/>
<feGaussianBlur stdDeviation="2"/>
<feComposite in2="hardAlpha" operator="out"/>
<feColorMatrix type="matrix" values="0 0 0 0 0.85098 0 0 0 0 0.619608 0 0 0 0 0.509804 0 0 0 0.64 0"/>
<feBlend mode="normal" in2="BackgroundImageFix" result="effect1_dropShadow_3195_7558"/>
<feBlend mode="normal" in="SourceGraphic" in2="effect1_dropShadow_3195_7558" result="shape"/>
</filter>
</defs>
</svg>
