<svg width="78" height="66" viewBox="0 0 78 66" fill="none" xmlns="http://www.w3.org/2000/svg">
<path d="M3.85467 49.7504L25.2531 45.8958L68.9608 56.6042L36.2952 65.0881L3.85467 49.7504Z" fill="black" fill-opacity="0.25"/>
<path d="M28.8364 5.17009L26.5595 0.666291L19.0033 56.8022L34.0781 48.1749L28.8364 5.17009Z" fill="#CD9961"/>
<path d="M28.8367 5.17132L26.5598 0.667515L22.3812 31.7208L28.0094 1.86423L28.8367 5.17132Z" fill="black" fill-opacity="0.1"/>
<path d="M35.0432 46.8146L18.9968 56.7911L36.088 65.1423L35.0432 46.8146Z" fill="#BE8E5B"/>
<path d="M26.5597 0.66626L63.1971 4.71874L73.412 57.888L36.0897 65.1423L26.5597 0.66626Z" fill="#E9BB89"/>
<path d="M28.937 9.60957L61.1703 10.3846L65.1243 14.0229L28.577 12.9691L28.937 9.60957Z" fill="#BF9970"/>
<path d="M28.5588 12.9563L64.8 13.7975L66.9392 15.766C67.5672 16.3438 67.1438 17.3894 66.2918 17.3648L32.5568 16.3922C32.3313 16.3857 32.1157 16.2967 31.951 16.142L28.5588 12.9563Z" fill="#B1895C"/>
<path d="M26.5597 0.66626L63.1971 4.71874L65.8449 18.4986L29.0544 17.535L26.5597 0.66626Z" fill="black" fill-opacity="0.2"/>
<path d="M57.8842 17.3627C57.6676 21.2264 54.3599 24.1831 50.4962 23.9666C46.6325 23.7501 43.6759 20.4424 43.8924 16.5786C44.1089 12.7149 47.4166 9.75829 51.2803 9.9748C55.144 10.1913 58.1007 13.499 57.8842 17.3627Z" fill="#7140FA"/>
<path d="M50.819 13.6645C51.4947 13.7024 52.08 13.8677 52.575 14.1604C53.0762 14.4534 53.4512 14.8534 53.7001 15.3603C53.9555 15.8614 54.0651 16.4344 54.0289 17.0793C53.9928 17.7243 53.8198 18.2815 53.5101 18.7509C53.2068 19.2146 52.7898 19.564 52.259 19.7992C51.7344 20.0347 51.1343 20.1336 50.4586 20.0957L48.2104 19.9697L48.5708 13.5385L50.819 13.6645ZM50.474 18.9967C51.1496 19.0346 51.6821 18.8796 52.0713 18.5317C52.4605 18.1838 52.6738 17.675 52.7114 17.0055C52.7489 16.336 52.5939 15.8035 52.2463 15.4082C51.8991 15.0067 51.3877 14.787 50.712 14.7492L49.7998 14.698L49.5618 18.9456L50.474 18.9967Z" fill="white" fill-opacity="0.93"/>
<path d="M26.3088 1.74656C26.0585 1.09924 26.5851 0.419496 27.274 0.500679L62.6264 4.66674C62.9566 4.70566 63.2408 4.91937 63.37 5.226L67.964 16.128C68.2243 16.7458 67.7601 17.4247 67.0904 17.4053L32.586 16.4105C32.2143 16.3998 31.8849 16.1668 31.7506 15.8197L26.3088 1.74656Z" fill="#F2C491"/>
<path fill-rule="evenodd" clip-rule="evenodd" d="M43.8663 16.7554L57.904 17.142C56.704 13.7502 53.2341 10.9855 49.67 10.7519C45.9169 10.5059 43.4149 13.1555 43.8663 16.7554Z" fill="#8257FC"/>
<path fill-rule="evenodd" clip-rule="evenodd" d="M51.8457 14.32C51.2794 14.0382 50.6564 13.8795 49.9767 13.8439L47.7152 13.7253L48.3788 16.8911L49.6696 16.9266L49.2327 14.8427L50.1503 14.8908C50.83 14.9264 51.3938 15.1377 51.8415 15.5247C52.2752 15.8948 52.5622 16.39 52.7025 17.0101L54.0204 17.0464C53.8847 16.46 53.6348 15.9367 53.2706 15.4765C52.8931 14.9876 52.4181 14.6021 51.8457 14.32Z" fill="white"/>
</svg>
