<svg width="86" height="86" viewBox="0 0 86 86" fill="none" xmlns="http://www.w3.org/2000/svg">
<rect x="0.0540771" width="85.8604" height="85.8604" rx="15" fill="#FFE7AA"/>
<g filter="url(#filter0_d_3195_7567)">
<path d="M57.5698 62.8167L53.7161 67.422C52.8913 68.2483 51.0892 67.4325 51.0892 66.6076V32.0921C51.0892 31.2672 54.6336 25.3665 58.5605 25.3665L58.5186 59.7446C58.5186 61.439 58.3797 61.699 57.5698 62.8167Z" fill="#E3A919"/>
<path d="M54.0764 29.7805H28.6743L28.9641 29.2605L34.2627 25.3665C34.9889 24.8002 35.5045 24.6194 36.3293 24.6194H57.7911C58.072 24.6194 58.5592 25.0333 58.3051 25.3217L54.0764 29.7805Z" fill="#FFD983"/>
<path d="M52.5822 67.9532H30.1685C29.3437 67.9532 28.6743 67.2837 28.6743 66.4589V29.7812C28.6743 29.7812 29.3437 29.1028 30.1685 29.1028H52.5822C53.407 29.1028 54.0764 29.7812 54.0764 29.7812V66.4589C54.0764 67.2837 53.407 67.9532 52.5822 67.9532Z" fill="#FFCC4D"/>
<path d="M37.6397 58.9865C40.1154 58.9865 42.1224 56.9795 42.1224 54.5037C42.1224 52.028 40.1154 50.021 37.6397 50.021C35.1639 50.021 33.1569 52.028 33.1569 54.5037C33.1569 56.9795 35.1639 58.9865 37.6397 58.9865Z" fill="#F4900C"/>
<path d="M37.6389 51.516C40.9399 51.516 43.6159 48.84 43.6159 45.539C43.6159 42.238 40.9399 39.562 37.6389 39.562C34.3379 39.562 31.6619 42.238 31.6619 45.539C31.6619 48.84 34.3379 51.516 37.6389 51.516Z" fill="#EA596E"/>
<path d="M44.3637 55.9985C48.0773 55.9985 51.0878 52.988 51.0878 49.2744C51.0878 45.5608 48.0773 42.5503 44.3637 42.5503C40.6501 42.5503 37.6396 45.5608 37.6396 49.2744C37.6396 52.988 40.6501 55.9985 44.3637 55.9985Z" fill="#FFE8B6"/>
<path d="M44.3649 53.0098C46.428 53.0098 48.1005 51.3373 48.1005 49.2742C48.1005 47.2111 46.428 45.5386 44.3649 45.5386C42.3018 45.5386 40.6293 47.2111 40.6293 49.2742C40.6293 51.3373 42.3018 53.0098 44.3649 53.0098Z" fill="#FFCC4D"/>
<path d="M49.5913 26.8064C49.5913 26.8064 49.2775 27.4504 48.1463 27.4504C47.0152 27.4504 46.6028 26.8064 46.6028 26.8064V20.6471C46.6028 17.6691 47.3977 15.7026 48.9667 14.8031C50.4684 13.9424 52.4423 14.2084 54.8271 15.6025C56.7308 16.7127 61.4332 20.0434 61.5452 20.1361C61.5452 20.1361 61.7918 20.9803 61.0925 21.7797C60.3932 22.5792 59.6505 22.4477 59.6505 22.4477C59.6236 22.4267 55.0169 19.1738 53.3209 18.1816C52.0045 17.4121 50.954 17.2507 50.4759 17.5301C50.059 17.7692 49.5913 18.6149 49.5913 20.6471V26.8064Z" fill="#CCD6DD"/>
<path d="M53.2314 14.8165C51.5519 14.1501 50.1204 14.1426 48.9683 14.8016C47.7864 15.48 47.0452 16.765 46.7509 18.6299L49.702 19.1782C49.8634 18.1861 50.1831 17.7004 50.479 17.5301C50.8077 17.3373 51.4204 17.3732 52.1914 17.6526L53.2314 14.8165Z" fill="#99AAB5"/>
<path d="M53.9733 30.597H29.4214C29.0105 30.597 28.6743 30.2608 28.6743 29.8499C28.6743 29.439 29.0105 29.1028 29.4214 29.1028H53.9733C54.3842 29.1028 54.7204 29.439 54.7204 29.8499C54.7204 30.2608 54.3842 30.597 53.9733 30.597Z" fill="#FFE8B6"/>
<path d="M58.422 25.8086L54.6326 30.3452C54.3891 30.6455 53.9288 30.6784 53.6106 30.4199C53.2908 30.1614 53.2295 29.7041 53.4716 29.4038L57.261 24.8673C57.5046 24.5669 57.9648 24.5341 58.2831 24.7926C58.6028 25.0526 58.6641 25.5083 58.422 25.8086Z" fill="#FFE8B6"/>
</g>
<defs>
<filter id="filter0_d_3195_7567" x="24.6743" y="14.3101" width="40.9131" height="61.6431" filterUnits="userSpaceOnUse" color-interpolation-filters="sRGB">
<feFlood flood-opacity="0" result="BackgroundImageFix"/>
<feColorMatrix in="SourceAlpha" type="matrix" values="0 0 0 0 0 0 0 0 0 0 0 0 0 0 0 0 0 0 127 0" result="hardAlpha"/>
<feOffset dy="4"/>
<feGaussianBlur stdDeviation="2"/>
<feComposite in2="hardAlpha" operator="out"/>
<feColorMatrix type="matrix" values="0 0 0 0 0.890196 0 0 0 0 0.662745 0 0 0 0 0.0980392 0 0 0 0.52 0"/>
<feBlend mode="normal" in2="BackgroundImageFix" result="effect1_dropShadow_3195_7567"/>
<feBlend mode="normal" in="SourceGraphic" in2="effect1_dropShadow_3195_7567" result="shape"/>
</filter>
</defs>
</svg>
