<svg width="87" height="86" viewBox="0 0 87 86" fill="none" xmlns="http://www.w3.org/2000/svg">
<rect x="0.740906" width="85.8604" height="85.8604" rx="15" fill="#B3DEFF"/>
<g filter="url(#filter0_d_3195_7607)">
<path d="M46.6447 60.2201C46.6447 60.2201 61.6748 56.3783 65.4742 42.0264C66.0325 39.9187 63.3341 38.1917 60.0211 38.1917H26.9059C25.2493 38.1917 21.6331 38.8867 22.5749 42.2717C26.4998 56.3783 41.0054 60.2201 41.0054 60.2201V61.8738C41.0054 61.8738 34.4724 65.318 33.1274 66.1173C31.6795 66.9463 32.7496 68.2687 33.3304 68.4985C34.2947 68.8777 36.6999 70.1198 43.3627 70.1198C50.1961 70.1198 53.9321 68.7748 54.7582 68.4985C55.0768 68.3928 56.4458 67.1268 54.4791 65.9622C50.9771 63.8898 46.6447 61.8738 46.6447 61.8738V60.2201Z" fill="#55ACEE"/>
<path d="M65.3844 41.3614C65.3844 43.7468 55.7483 45.6811 43.8579 45.6811C31.9703 45.6811 22.3328 43.7483 22.3328 41.3614C22.3328 38.9746 31.9703 37.0417 43.8579 37.0417C55.7483 37.0417 65.3844 38.9746 65.3844 41.3614Z" fill="#3B88C3"/>
<path d="M55.0794 29.6036C55.0794 31.8776 50.6624 36.2932 44.0377 36.2932C37.9402 36.2932 32.9974 33.3495 32.9974 29.6036C32.9974 23.5061 37.9388 20.0352 44.0377 20.0352C50.1379 20.0366 55.0794 23.5061 55.0794 29.6036Z" fill="#F4ABBA"/>
<path d="M65.3845 39.9082C65.3845 42.1822 60.9689 45.8619 54.3456 45.8619C48.2467 45.8619 43.3039 47.8257 43.3039 39.9082C43.3039 33.8107 48.2467 28.8679 54.3456 28.8679C60.443 28.8679 65.3845 33.8107 65.3845 39.9082Z" fill="#FFE8B6"/>
<path d="M44.7742 39.9082C44.7742 47.2139 40.3586 45.9859 33.7339 45.9859C27.6364 45.9859 22.6936 43.6555 22.6936 39.9082C22.6936 33.8107 27.6364 28.8679 33.7339 28.8679C39.8328 28.8679 44.7742 33.8107 44.7742 39.9082Z" fill="#8A4B38"/>
<path d="M61.924 49.6098C63.0857 47.973 64.0966 46.1035 64.8593 43.9775C45.8479 50.6488 28.1053 45.916 23.3021 44.4512C23.9929 46.2544 24.8571 47.87 25.8355 49.3095C41.8369 53.8928 56.2185 51.0069 61.924 49.6098Z" fill="#3B88C3"/>
<path d="M22.4486 41.2607C24.4167 42.1066 44.2838 48.3747 65.4452 41.3834C65.4452 42.3026 64.8657 44.8755 64.5246 45.8595C63.9733 47.4555 42.812 52.669 23.7977 46.2275C23.2451 45.9836 21.59 40.8928 22.4486 41.2607Z" fill="#55ACEE"/>
</g>
<defs>
<filter id="filter0_d_3195_7607" x="18.2061" y="20.0352" width="51.3417" height="58.0847" filterUnits="userSpaceOnUse" color-interpolation-filters="sRGB">
<feFlood flood-opacity="0" result="BackgroundImageFix"/>
<feColorMatrix in="SourceAlpha" type="matrix" values="0 0 0 0 0 0 0 0 0 0 0 0 0 0 0 0 0 0 127 0" result="hardAlpha"/>
<feOffset dy="4"/>
<feGaussianBlur stdDeviation="2"/>
<feComposite in2="hardAlpha" operator="out"/>
<feColorMatrix type="matrix" values="0 0 0 0 0.333333 0 0 0 0 0.67451 0 0 0 0 0.933333 0 0 0 0.58 0"/>
<feBlend mode="normal" in2="BackgroundImageFix" result="effect1_dropShadow_3195_7607"/>
<feBlend mode="normal" in="SourceGraphic" in2="effect1_dropShadow_3195_7607" result="shape"/>
</filter>
</defs>
</svg>
