<svg width="87" height="86" viewBox="0 0 87 86" fill="none" xmlns="http://www.w3.org/2000/svg">
<rect x="0.405518" width="85.8604" height="85.8604" rx="15" fill="#FFDBB0"/>
<g filter="url(#filter0_d_3195_7582)">
<path d="M42.7051 67.2583C57.373 67.2583 69.2636 60.6523 69.2636 52.5035C69.2636 44.3547 57.373 37.7488 42.7051 37.7488C28.0372 37.7488 16.1465 44.3547 16.1465 52.5035C16.1465 60.6523 28.0372 67.2583 42.7051 67.2583Z" fill="#939598"/>
<path d="M42.7051 64.3071C57.373 64.3071 69.2636 57.7012 69.2636 49.5524C69.2636 41.4035 57.373 34.7976 42.7051 34.7976C28.0372 34.7976 16.1465 41.4035 16.1465 49.5524C16.1465 57.7012 28.0372 64.3071 42.7051 64.3071Z" fill="#F1F2F2"/>
<path d="M42.7023 60.2085C54.7625 60.2085 64.5393 55.1807 64.5393 48.9786C64.5393 42.7765 54.7625 37.7488 42.7023 37.7488C30.642 37.7488 20.8652 42.7765 20.8652 48.9786C20.8652 55.1807 30.642 60.2085 42.7023 60.2085Z" fill="#FFCC4D"/>
<path d="M32.3746 56.9302C31.5601 56.9302 30.8991 56.2706 30.8991 55.4547C30.8991 54.6388 31.5601 53.9792 32.3746 53.9792C35.175 53.9792 36.922 52.3783 37.0577 51.2717C37.192 50.1858 35.6413 49.6767 34.967 49.5085C33.6302 49.1766 32.6357 49.5572 31.4878 50.0028C29.912 50.6137 27.7534 51.4458 25.4295 49.1205C24.4129 48.1054 24.1488 46.7538 24.7036 45.4126C25.7851 42.8025 29.7851 40.7 32.3746 40.7C33.189 40.7 33.8501 41.361 33.8501 42.1754C33.8501 42.9899 33.189 43.6509 32.3746 43.6509C30.7294 43.6509 27.9555 45.2724 27.4303 46.5428C27.3211 46.8055 27.3653 46.8822 27.5158 47.0342C28.4439 47.9608 28.8851 47.8427 30.424 47.2511C31.6959 46.7583 33.4369 46.0854 35.6826 46.6476C39.2001 47.527 40.2123 49.7992 39.9866 51.6332C39.6664 54.236 36.7317 56.9302 32.3746 56.9302ZM41.2274 58.4056C40.413 58.4056 39.752 57.7461 39.752 56.9302C39.752 56.1142 40.413 55.4547 41.2274 55.4547C49.6332 55.4547 55.7358 53.6148 59.3654 49.9851C59.9424 49.4082 60.8749 49.4082 61.4518 49.9851C62.0287 50.562 62.0287 51.4945 61.4518 52.0714C57.2481 56.2751 50.4447 58.4056 41.2274 58.4056Z" fill="#FFE8B6"/>
<path d="M47.6471 52.7397C46.8548 52.7397 46.0698 52.6512 45.2996 52.4579C44.4984 52.2587 42.0624 51.6493 41.9857 49.6796C41.9296 48.2041 42.961 46.4748 50.7471 43.8411C49.8987 43.1491 47.8581 42.1753 45.6567 42.1753C41.9488 42.1753 40.0543 42.4866 39.3225 43.2185C38.7456 43.7954 37.8131 43.7954 37.2361 43.2185C36.6592 42.6416 36.6592 41.7091 37.2361 41.1322C38.6452 39.7231 40.8481 39.2244 45.6567 39.2244C49.1919 39.2244 53.6183 41.1912 54.0315 43.729C54.1894 44.7058 53.7467 45.9511 52.0263 46.525C48.2152 47.7954 46.241 48.8105 45.3852 49.4125C45.5504 49.4701 45.7585 49.532 46.0152 49.597C50.7825 50.7832 56.8186 46.106 57.4767 44.9049C57.5829 44.1952 58.1967 43.6508 58.936 43.6508C59.7519 43.6508 60.4114 44.3118 60.4114 45.1263C60.4114 46.168 59.4745 47.428 57.6272 48.8695C55.0555 50.8777 51.2989 52.7382 47.6471 52.7397Z" fill="#FFE8B6"/>
<path d="M55.9847 47.3396C55.9847 51.0061 52.991 55.4547 45.6564 55.4547C38.3218 55.4547 39.7545 52.5037 27.9507 48.0773C22.9695 46.2094 35.3708 40.7 42.7054 40.7C50.04 40.7 55.9847 43.673 55.9847 47.3396Z" fill="#DD2E44"/>
<path d="M39.7543 52.5041C39.3766 52.5041 38.9989 52.3595 38.7111 52.0718C38.1342 51.4949 38.1342 50.5624 38.7111 49.9855C39.1257 49.5355 38.8764 49.2861 38.7111 49.1209C37.8878 48.2975 35.409 48.212 33.0365 49.3982C32.3061 49.7627 31.4208 49.4676 31.0564 48.7387C30.6919 48.0098 30.987 47.1231 31.7159 46.7586C34.6329 45.3009 38.689 44.9261 40.796 47.036C42.6433 48.8833 41.8082 51.0611 40.796 52.0733C40.5097 52.3595 40.132 52.5041 39.7543 52.5041ZM45.6562 46.6022C42.0944 46.6022 40.2191 44.7269 38.7111 43.219C38.1342 42.642 38.1342 41.7095 38.7111 41.1326C39.2881 40.5557 40.2206 40.5557 40.7975 41.1326C42.2051 42.5402 43.3161 43.6513 45.6562 43.6513C46.7967 43.6513 49.4718 43.6513 50.5149 42.6081C51.0918 42.0312 52.0243 42.0312 52.6013 42.6081C53.1782 43.185 53.1782 44.1175 52.6013 44.6944C50.6935 46.6022 47.291 46.6022 45.6562 46.6022ZM45.6562 52.5041C44.8403 52.5041 44.1807 51.8446 44.1807 51.0286C44.1807 50.2127 44.8403 49.5532 45.6562 49.5532C48.3814 49.5532 52.3667 48.1338 53.4659 47.0345C54.0428 46.4576 54.9753 46.4576 55.5522 47.0345C56.1291 47.6114 56.1291 48.5439 55.5522 49.1209C53.6474 51.0257 48.6676 52.5041 45.6562 52.5041Z" fill="#EA596E"/>
<path d="M41.2327 46.6019C40.6912 46.6019 40.1703 46.3039 39.9106 45.786C38.4366 42.8395 35.3706 36.7074 33.8641 24.6528C33.7638 23.8442 34.3363 23.1065 35.1448 23.0061C35.9475 22.9028 36.6911 23.4783 36.7915 24.2868C38.236 35.8398 41.1486 41.6665 42.5488 44.4669C42.9132 45.1958 42.6181 46.0826 41.8892 46.447C41.6797 46.5518 41.454 46.6019 41.2327 46.6019Z" fill="#FFAC33"/>
<path d="M67.9732 33.3844L45.4869 26.7403C40.5426 18.9071 34.3235 20.1671 30.9018 20.0432C30.533 20.0299 29.6934 20.3678 29.6728 20.9653C29.6506 21.5437 31.1866 21.4626 31.4227 21.4714C33.9384 21.5629 37.2434 21.7311 40.4703 25.1395C36.5485 23.7732 30.5241 22.8953 29.4264 22.9941C28.7506 23.0561 28.6886 23.5474 29.4883 23.9163C30.1449 24.2202 36.2342 26.3464 39.5806 27.3689C37.4869 28.0904 34.7322 28.4239 30.0874 26.1C29.3541 25.7341 28.3153 25.2162 27.9509 25.9451C27.5865 26.674 28.6975 27.0561 29.4264 27.4205C32.6134 29.0141 34.4872 30.8613 36.5426 30.8613C38.986 30.8613 40.7536 30.1162 42.1376 29.5349C42.6289 29.3283 43.073 29.1468 43.4699 29.0288C43.4935 29.0436 43.5113 29.0642 43.5349 29.0775L65.3793 38.8038C66.0949 39.1948 67.6987 37.6367 68.0897 36.9226C68.4807 36.2055 68.5028 33.7134 67.9732 33.3844Z" fill="#99AAB5"/>
<path d="M35.3275 45.126C34.9498 45.126 34.572 44.9814 34.2843 44.6937C32.3441 42.7534 27.7244 31.6106 34.1751 23.5472C34.6842 22.9097 35.6152 22.8079 36.2482 23.317C36.8856 23.826 36.9889 24.7541 36.4783 25.39C31.0958 32.1197 35.3304 41.5657 36.3692 42.6059C36.9461 43.1828 36.9461 44.1153 36.3692 44.6922C36.0829 44.9814 35.7052 45.126 35.3275 45.126Z" fill="#FFAC33"/>
</g>
<defs>
<filter id="filter0_d_3195_7582" x="12.1465" y="20.0352" width="61.1171" height="55.2231" filterUnits="userSpaceOnUse" color-interpolation-filters="sRGB">
<feFlood flood-opacity="0" result="BackgroundImageFix"/>
<feColorMatrix in="SourceAlpha" type="matrix" values="0 0 0 0 0 0 0 0 0 0 0 0 0 0 0 0 0 0 127 0" result="hardAlpha"/>
<feOffset dy="4"/>
<feGaussianBlur stdDeviation="2"/>
<feComposite in2="hardAlpha" operator="out"/>
<feColorMatrix type="matrix" values="0 0 0 0 1 0 0 0 0 0.756962 0 0 0 0 0.466667 0 0 0 1 0"/>
<feBlend mode="normal" in2="BackgroundImageFix" result="effect1_dropShadow_3195_7582"/>
<feBlend mode="normal" in="SourceGraphic" in2="effect1_dropShadow_3195_7582" result="shape"/>
</filter>
</defs>
</svg>
