<svg width="12" height="20" viewBox="0 0 12 20" fill="none" xmlns="http://www.w3.org/2000/svg">
<path fill-rule="evenodd" clip-rule="evenodd" d="M0.456519 17.5172L8.98665 10L0.456519 2.48277C0.3445 2.38405 0.248286 2.25714 0.173373 2.10927C0.098459 1.9614 0.0463119 1.79547 0.0199087 1.62096C-0.00649449 1.44645 -0.00663693 1.26678 0.01949 1.09219C0.045617 0.917612 0.0975017 0.751541 0.172181 0.603465C0.323003 0.304411 0.557519 0.0968047 0.824137 0.026317C0.956153 -0.00858496 1.09208 -0.00877325 1.22415 0.0257636C1.35622 0.0603004 1.48185 0.128886 1.59387 0.227604L11.2636 8.74913C11.4194 8.88643 11.5471 9.07244 11.6354 9.29065C11.7238 9.50885 11.77 9.75251 11.77 10C11.77 10.2475 11.7238 10.4911 11.6354 10.7094C11.5471 10.9276 11.4194 11.1136 11.2636 11.2509L1.59387 19.7724C1.48185 19.8711 1.35622 19.9397 1.22415 19.9742C1.09208 20.0088 0.956153 20.0086 0.824137 19.9737C0.692121 19.9388 0.566598 19.8698 0.454736 19.7708C0.342873 19.6718 0.246861 19.5446 0.172181 19.3965C0.0975017 19.2485 0.045617 19.0824 0.01949 18.9078C-0.00663693 18.7332 -0.00649449 18.5535 0.0199087 18.379C0.0463119 18.2045 0.098459 18.0386 0.173373 17.8907C0.248286 17.7429 0.3445 17.6159 0.456519 17.5172Z" fill="white"/>
</svg>
