<svg width="87" height="86" viewBox="0 0 87 86" fill="none" xmlns="http://www.w3.org/2000/svg">
<rect x="0.756836" width="85.8604" height="85.8604" rx="15" fill="#C8F0EE"/>
<g filter="url(#filter0_d_3195_7595)">
<path d="M70.3506 46.8817L16.498 46.0645L16.5249 50.2222C16.5518 51.1614 17.0872 52.1039 18.2355 52.8071L29.1755 59.5039L40.1171 66.199C42.5342 67.68 46.6824 67.5422 48.8682 66.199C51.0587 64.8606 49.9642 64.1922 52.1516 62.8506C54.339 61.5138 55.4319 62.1822 57.6224 60.8454C59.8129 59.5023 68.5656 54.1503 68.5656 54.1503C69.7709 53.4122 70.3728 52.4444 70.376 51.4751L70.3506 46.8817Z" fill="#F4900C"/>
<path d="M68.5653 44.0383C68.5653 44.0383 20.4242 41.3615 18.2353 42.6999C16.0463 44.0383 15.8182 46.5758 18.2353 48.0567L29.1753 54.7534L40.1169 61.4502C42.5339 62.9311 46.6821 62.7933 48.8679 61.4502C51.0584 60.1118 49.964 59.4434 52.1513 58.1018C54.3387 56.765 55.4316 57.4334 57.6221 56.0966C59.8127 54.7534 68.5637 49.3998 68.5637 49.3998C70.9808 47.9189 70.9823 45.5177 68.5653 44.0383Z" fill="#FFAC33"/>
<path d="M31.1052 53.4158L42.305 60.1125C42.305 60.1125 44.5446 61.4493 46.7843 60.1125C48.6802 58.9769 50.1437 56.7641 50.1437 56.7641L31.1052 53.4158Z" fill="#FFD983"/>
<path d="M68.355 43.7904C65.2806 39.6896 26.0743 36.8022 19.924 42.5755C18.6822 43.7428 16.3365 46.0918 18.8343 49.6064C19.924 51.4469 22.1858 52.646 22.4868 52.0773C23.1884 50.7437 24.5886 49.5779 26.6889 49.6904C26.5701 49.9723 27.7041 54.77 27.5758 54.8777C26.1107 56.1226 29.155 60.4498 32.7219 58.1453C33.6105 59.9002 38.9878 64.2322 42.6989 58.3068C43.437 59.6436 51.1886 61.6774 53.3412 55.5096C53.3237 55.6158 53.3285 55.706 53.3 55.8201C53.159 56.3745 54.4436 56.8544 55.7519 56.395C57.9519 55.6253 61.1292 53.7135 61.6915 51.6148C63.2611 51.3408 64.438 51.7764 65.344 52.9738C65.7922 53.5662 67.3302 53.7087 67.9875 52.9342C69.1469 51.5736 71.0492 47.3858 68.355 43.7904Z" fill="#77B255"/>
<path d="M64.0158 54.0487C64.0158 54.8866 62.5966 55.5677 60.848 55.5677H26.0022C24.2535 55.5677 22.8344 54.8866 22.8344 54.0487V43.6726H64.0158V54.0487Z" fill="#FFCC4D"/>
<path d="M67.6758 46.0439C67.6758 50.4281 60.4121 53.984 51.4535 53.984C42.4918 53.984 35.2296 50.4281 35.2296 46.0439C35.2296 41.658 42.4918 38.1038 51.4535 38.1038C60.4121 38.1038 67.6758 41.6596 67.6758 46.0439Z" fill="#BE1931"/>
<path d="M70.3506 37.3781L16.498 36.5608V40.7185H16.5249C16.5518 41.6578 17.0872 42.6002 18.2355 43.3035L29.1755 50.0002L40.1171 56.6953C42.5342 58.1763 46.6824 58.0385 48.8682 56.6953C51.0587 55.3569 49.9642 54.6885 52.1516 53.347C54.339 52.0102 55.4319 52.6786 57.6224 51.3418C59.8129 49.9986 68.5656 44.6466 68.5656 44.6466C69.7709 43.9085 70.3728 42.9407 70.376 41.9714V41.9635L70.3506 37.3781Z" fill="#F4900C"/>
<path d="M68.5652 34.535L46.6837 21.1447C44.2666 19.6653 40.348 19.6653 37.9294 21.1447L26.9878 27.8414C24.8005 29.1798 25.8934 29.8498 23.706 31.1882C21.5186 32.5266 20.4242 31.8566 18.2352 33.1966C16.0462 34.535 15.8182 37.0724 18.2352 38.5533L40.1168 51.9452C42.5338 53.4262 46.6821 53.2884 48.8679 51.9452C51.0584 50.6068 49.9639 49.9384 52.1513 48.5969C54.3386 47.26 55.4315 47.9284 57.6221 46.5916C59.8126 45.2485 68.5637 39.8949 68.5637 39.8949C70.9807 38.4155 70.9823 36.0143 68.5652 34.535Z" fill="#FFAC33"/>
<path d="M66.9444 35.876L44.5433 22.4841C44.5433 22.4841 42.1563 21.2312 40.0624 22.4841L29.0353 29.0763C27.1393 30.2088 27.3991 31.3935 25.5032 32.526C23.6088 33.6601 21.7984 33.4019 19.9025 34.5344C17.6629 35.876 19.9025 37.2159 19.9025 37.2159L42.302 50.6078C42.302 50.6078 44.5417 51.9446 46.7813 50.6078C48.6772 49.4722 48.248 48.3951 50.1408 47.2595C52.0367 46.1238 54.0166 46.279 55.9125 45.1465C57.8084 44.0156 66.9412 38.5528 66.9412 38.5528C66.9412 38.5528 69.0367 37.1257 66.9444 35.876Z" fill="#FFD983"/>
</g>
<defs>
<filter id="filter0_d_3195_7595" x="12.498" y="20.0352" width="61.8793" height="55.2236" filterUnits="userSpaceOnUse" color-interpolation-filters="sRGB">
<feFlood flood-opacity="0" result="BackgroundImageFix"/>
<feColorMatrix in="SourceAlpha" type="matrix" values="0 0 0 0 0 0 0 0 0 0 0 0 0 0 0 0 0 0 127 0" result="hardAlpha"/>
<feOffset dy="4"/>
<feGaussianBlur stdDeviation="2"/>
<feComposite in2="hardAlpha" operator="out"/>
<feColorMatrix type="matrix" values="0 0 0 0 0.639149 0 0 0 0 0.829167 0 0 0 0 0.819666 0 0 0 1 0"/>
<feBlend mode="normal" in2="BackgroundImageFix" result="effect1_dropShadow_3195_7595"/>
<feBlend mode="normal" in="SourceGraphic" in2="effect1_dropShadow_3195_7595" result="shape"/>
</filter>
</defs>
</svg>
