<svg width="86" height="86" viewBox="0 0 86 86" fill="none" xmlns="http://www.w3.org/2000/svg">
<rect width="85.8604" height="85.8604" rx="15" fill="#E0F1D4"/>
<g filter="url(#filter0_d_3195_7535)">
<path d="M70.075 41.5412C66.1295 35.819 57.9725 44.2402 43.0858 45.9518C37.574 46.5847 32.6077 51.1673 26.2049 50.7307C23.5797 50.5511 19.9138 43.0307 17.1693 44.2296C15.7573 44.8473 15.1094 46.9088 16.5611 48.4576L32.6795 67.6065C32.6795 67.6065 33.4985 68.5467 36.2583 67.8956C36.9383 68.0949 47.1612 64.0159 53.0719 55.8503C54.4869 53.8953 56.1739 52.2673 57.9206 50.9072C63.5913 46.7323 69.7557 45.2778 69.7557 45.2778C70.5442 44.6297 70.7291 43.9405 70.6863 43.3426C70.7382 42.3445 70.075 41.5412 70.075 41.5412V41.5412Z" fill="#5C913B"/>
<path d="M33.208 32.4038C27.4273 40.3914 17.3036 44.1752 17.3036 44.1752C15.4149 45.7682 17.0102 47.6456 17.0102 47.6456L32.9605 66.4491C32.9605 66.4491 33.7582 67.3878 36.4445 66.7366C36.4445 66.7366 46.5682 62.9604 52.3474 54.9729C58.3055 46.7419 69.0495 44.1433 69.0495 44.1433C70.9367 42.5503 69.3429 40.6698 69.3429 40.6698L53.3927 21.8694C53.3927 21.8694 52.595 20.9291 49.9086 21.5773C49.9086 21.5773 39.1661 24.1698 33.208 32.4038V32.4038Z" fill="#A7D28B"/>
<path d="M49.2906 46.4399C53.9323 46.4399 57.6952 42.6935 57.6952 38.072C57.6952 33.4505 53.9323 29.7041 49.2906 29.7041C44.6489 29.7041 40.8861 33.4505 40.8861 38.072C40.8861 42.6935 44.6489 46.4399 49.2906 46.4399Z" fill="#77B255"/>
<path d="M35.3431 65.3504C33.9968 65.3504 33.5033 64.8514 33.436 64.7753L19.0582 48.0653C19.0307 48.0334 18.3018 47.2027 18.3904 46.1468C18.4439 45.5063 18.777 44.9357 19.3791 44.4504L19.4754 44.3926C19.5686 44.3561 28.893 40.5403 34.1191 33.6436L34.4247 33.8718L34.1191 33.6436C39.6477 26.3468 49.1846 23.2157 49.2793 23.1852C51.9459 22.5675 52.8184 23.45 52.9116 23.5534L67.1 40.3562C67.126 40.3836 67.8533 41.2173 67.7647 42.2747C67.7112 42.9137 67.3781 43.4843 66.776 43.9696L66.6247 44.0442C66.5315 44.067 57.259 46.3613 51.8878 53.4482C46.541 60.5077 37.2074 65.075 37.1142 65.1191C36.4051 65.2865 35.8214 65.3504 35.3431 65.3504V65.3504ZM34.0121 64.2747C34.0137 64.2747 34.7028 64.9077 36.862 64.4086C36.8742 64.3919 46.0443 59.9021 51.2811 52.9917C56.5332 46.0616 65.3778 43.5862 66.3588 43.3291C66.7516 42.9928 66.9686 42.6201 67.0037 42.22C67.0679 41.4897 66.5269 40.8613 66.5224 40.8552L52.334 24.0509C52.3309 24.0509 51.6463 23.4195 49.4856 23.9186C49.423 23.9399 40.1108 27.001 34.7303 34.1016C29.5868 40.8887 20.6123 44.744 19.8192 45.0757C19.4096 45.418 19.1865 45.7999 19.1514 46.2092C19.0903 46.9334 19.6282 47.5587 19.6327 47.5648L34.0121 64.2747V64.2747Z" fill="#5C913B"/>
<path d="M48.1846 50.4959L48.1754 59.5333L48.9349 60.4309C50.4156 59.086 51.8383 57.5737 53.0684 55.8727C54.3443 54.1109 55.8266 52.6031 57.3898 51.3297L56.6518 50.4548L48.1846 50.4959V50.4959Z" fill="#FFAC33"/>
<path d="M56.6209 50.4233L37.5105 27.8862C35.958 29.1582 34.4666 30.6416 33.1983 32.3958C31.959 34.1089 30.5165 35.6167 29.0189 36.9464L31.253 39.58L31.2515 39.5815L48.1751 59.5337C49.6727 58.2024 51.0984 56.6795 52.3392 54.9648C53.6075 53.2121 55.0974 51.7302 56.6484 50.4583L56.6194 50.4233H56.6209V50.4233Z" fill="#FFE8B6"/>
<path d="M37.7975 51.0883C35.4183 48.2828 30.3817 52.8349 28.9453 51.1416C28.25 50.3215 28.6977 49.258 29.6115 48.4912C31.1473 47.198 32.2551 47.9511 32.9504 47.3654C33.444 46.9515 33.418 46.4449 33.1246 46.0965C32.4431 45.2947 30.7011 45.7131 29.3472 46.4921L28.6886 45.7161C28.2775 45.2323 27.5501 45.1699 27.0642 45.5792C26.5783 45.99 26.5171 46.7111 26.9282 47.195L27.6097 47.9998C26.5752 49.3661 26.2237 51.1796 27.4477 52.6204C29.7338 55.3134 34.833 50.8373 36.4375 52.73C36.9938 53.3872 36.8379 54.6409 35.6674 55.6237C33.9131 57.1011 32.3239 56.4088 31.6103 57.0083C31.2619 57.2988 31.1992 57.8527 31.5705 58.2923C32.1619 58.9876 34.0461 58.8385 35.8568 57.7157C35.8599 57.7188 35.8599 57.7218 35.8599 57.7249L36.6041 58.6012C37.0151 59.085 37.744 59.1444 38.23 58.7381C38.7174 58.3273 38.777 57.6031 38.366 57.1193L37.6218 56.243C37.6142 56.2338 37.6019 56.2278 37.5928 56.2186C38.8137 54.7307 39.2263 52.7695 37.7975 51.0883V51.0883Z" fill="#5C913B"/>
<path d="M65.2672 66.3539C65.281 66.3417 65.2962 66.3326 65.31 66.322C65.4139 66.2185 65.4949 66.0998 65.5866 65.9857C65.6508 65.9066 65.7226 65.8305 65.7822 65.7499C65.8357 65.6738 65.88 65.5962 65.9289 65.5186C68.0988 62.1913 66.6776 56.5498 62.3822 52.2715C58.0852 47.9932 52.4175 46.5782 49.077 48.7402C48.9976 48.7874 48.9196 48.8315 48.8432 48.8863C48.7622 48.9456 48.6843 49.0171 48.6079 49.0795C48.4948 49.1723 48.3756 49.2514 48.2702 49.3564C48.2564 49.3701 48.2473 49.3853 48.2366 49.399C48.2198 49.4157 48.1999 49.4264 48.1816 49.4446L48.1907 49.4522C46.6626 51.068 46.6443 53.5677 48.1816 55.0998C49.7219 56.6334 52.231 56.6121 53.8554 55.0907L53.8722 55.109C53.8401 55.1394 53.805 55.1592 53.7744 55.1896C52.1561 56.8008 52.1179 59.3705 53.6842 60.933C55.2521 62.4925 57.8361 62.4545 59.4528 60.8433C59.4834 60.8128 59.5032 60.7778 59.5338 60.7459L59.5506 60.7641C58.0225 62.3799 58.0026 64.8796 59.543 66.4132C61.0818 67.9438 63.5909 67.9256 65.2137 66.4041L65.2229 66.4132C65.2382 66.3919 65.2504 66.3722 65.2672 66.3539V66.3539Z" fill="#E1E8ED"/>
<path d="M48.1834 55.1587C49.5679 56.5356 51.7302 56.6482 53.3331 55.5558C54.004 54.4148 54.1965 53.33 54.1965 52.9907C50.824 55.495 47.8136 53.0044 47.1398 51.5149C46.8601 52.802 47.1994 54.1774 48.1834 55.1587ZM59.337 61.0011C59.7924 60.3636 60.1454 59.7474 60.3104 59.3305C58.1634 61.2901 54.059 59.8554 52.8151 56.7471C52.268 58.1925 52.5477 59.8569 53.6876 60.9919C55.2188 62.5164 57.7127 62.5043 59.337 61.0011ZM65.2263 66.4706L65.2706 66.4159C65.2859 66.4037 65.3012 66.3946 65.3134 66.3824C65.4188 66.2789 65.4998 66.1603 65.59 66.0477C65.6557 65.967 65.726 65.8925 65.7856 65.8103C65.8406 65.7358 65.8849 65.6567 65.9338 65.5791C66.0331 65.4269 66.0866 65.2474 66.1707 65.0861C62.3076 66.8069 59.4241 63.8872 58.6158 62.4312C58.165 63.8264 58.4584 65.3889 59.5464 66.4737C61.0836 68.0058 63.5928 67.9875 65.2171 66.4646L65.2263 66.4706Z" fill="#CCD6DD"/>
<path d="M36.9976 35.787L37.0404 35.7535C37.1458 35.65 37.2268 35.5314 37.317 35.4188C37.3812 35.3397 37.4515 35.2651 37.511 35.183C37.5661 35.1069 37.6104 35.0293 37.6593 34.9517C39.8292 31.6243 38.4065 25.9813 34.111 21.7045C29.814 17.4262 24.1479 16.0098 20.8059 18.1702C20.728 18.2189 20.6485 18.263 20.5721 18.3178C20.4896 18.3771 20.4147 18.4471 20.3353 18.511C20.2222 18.6023 20.103 18.6814 19.9991 18.7864C19.9853 18.8001 19.9762 18.8168 19.9655 18.829C19.9486 18.8442 19.9273 18.8579 19.9104 18.8746L19.9181 18.8823C18.39 20.498 18.3717 22.9977 19.9104 24.5298C21.4492 26.0619 23.9599 26.0437 25.5827 24.5222L25.5995 24.539C25.5675 24.5679 25.5323 24.5892 25.5017 24.6196C23.8835 26.2308 23.8453 28.8005 25.4131 30.363C26.9809 31.9256 29.5634 31.886 31.1817 30.2748C31.2122 30.2444 31.2321 30.2094 31.2627 30.1774L31.2795 30.1942C29.7514 31.8099 29.7315 34.3097 31.2718 35.8417C32.8106 37.3738 35.3198 37.3556 36.9426 35.8326L36.9502 35.8417C36.967 35.825 36.9808 35.8052 36.9976 35.787V35.787Z" fill="#E1E8ED"/>
<path d="M19.9088 24.5317C21.2932 25.9101 23.4555 26.0227 25.0585 24.9272C25.7293 23.7862 25.9203 22.7029 25.9203 22.3636C22.5493 24.8664 19.5375 22.3743 18.8651 20.8848C18.5855 22.1734 18.9247 23.5503 19.9088 24.5317V24.5317ZM31.0654 30.3709C31.5193 29.7335 31.8722 29.1203 32.0358 28.7034C29.8873 30.6631 25.7828 29.2268 24.5404 26.1185C23.9934 27.5639 24.273 29.2283 25.4115 30.3633C26.9457 31.8893 29.441 31.8756 31.0654 30.3709V30.3709ZM36.9501 35.8436C36.9669 35.8268 36.9807 35.807 36.996 35.7888L37.0387 35.7553C37.1442 35.6519 37.2252 35.5332 37.3153 35.4206C37.3795 35.3415 37.4498 35.2669 37.5094 35.1848C37.5644 35.1087 37.6087 35.0311 37.6576 34.9535C37.7569 34.8014 37.8104 34.6203 37.8945 34.4591C34.0314 36.1798 31.1479 33.2617 30.3396 31.8057C29.8888 33.2008 30.1822 34.7633 31.2702 35.8466C32.809 37.3787 35.3181 37.3604 36.9409 35.8375L36.9501 35.8436V35.8436Z" fill="#CCD6DD"/>
</g>
<defs>
<filter id="filter0_d_3195_7535" x="11.7413" y="17.1709" width="62.9507" height="58.9543" filterUnits="userSpaceOnUse" color-interpolation-filters="sRGB">
<feFlood flood-opacity="0" result="BackgroundImageFix"/>
<feColorMatrix in="SourceAlpha" type="matrix" values="0 0 0 0 0 0 0 0 0 0 0 0 0 0 0 0 0 0 127 0" result="hardAlpha"/>
<feOffset dy="4"/>
<feGaussianBlur stdDeviation="2"/>
<feComposite in2="hardAlpha" operator="out"/>
<feColorMatrix type="matrix" values="0 0 0 0 0.654902 0 0 0 0 0.823529 0 0 0 0 0.545098 0 0 0 0.63 0"/>
<feBlend mode="normal" in2="BackgroundImageFix" result="effect1_dropShadow_3195_7535"/>
<feBlend mode="normal" in="SourceGraphic" in2="effect1_dropShadow_3195_7535" result="shape"/>
</filter>
</defs>
</svg>
