<svg width="38" height="52" viewBox="0 0 38 52" fill="none" xmlns="http://www.w3.org/2000/svg">
<path d="M0.916656 18.2475C0.919628 21.0927 1.59487 23.8969 2.88736 26.4316C4.17984 28.9663 6.05297 31.1597 8.35407 32.833L8.35666 32.8356C9.83798 33.9214 11.4767 34.7743 13.2159 35.3647L13.3477 35.4137C14.327 35.7334 15.3323 35.9677 16.3521 36.1138C17.227 36.2537 18.1113 36.3271 18.9974 36.3334H19C19.9042 36.3334 20.7825 36.2456 21.6531 36.1164L22.1232 36.0441C22.9912 35.8917 23.8386 35.685 24.6575 35.4163L24.766 35.375C31.9167 32.957 37.0833 26.2016 37.0833 18.2475C37.0833 8.27841 28.9717 0.166748 19 0.166748C9.02832 0.166748 0.916656 8.27841 0.916656 18.2475ZM19 5.33342C26.1197 5.33342 31.9167 11.1252 31.9167 18.2475H26.75C26.7473 16.1931 25.9298 14.2238 24.4769 12.7714C23.024 11.319 21.0543 10.5021 19 10.5001V5.33342ZM7.42924 38.3872V51.8334L19 47.9584L30.5707 51.8334L30.5733 38.3872C27.0573 40.4253 23.0653 41.4987 19.0013 41.4987C14.9372 41.4987 10.9453 40.4253 7.42924 38.3872Z" fill="#7141FA"/>
</svg>
