<svg width="35" height="35" viewBox="0 0 35 35" fill="none" xmlns="http://www.w3.org/2000/svg">
<path d="M33.9497 1.05036C33.7757 0.875971 33.569 0.737603 33.3414 0.643169L33.1497 1.10499L33.3414 0.643168C33.1136 0.548652 32.8694 0.5 32.6228 0.5C32.3762 0.5 32.1321 0.548652 31.9043 0.643168L32.0959 1.10499L31.9043 0.643169C31.6765 0.737684 31.4696 0.876207 31.2955 1.0508L1.05059 31.2965C0.698677 31.6484 0.500977 32.1257 0.500977 32.6234C0.500977 33.1211 0.698678 33.5984 1.05059 33.9504C1.40251 34.3023 1.87981 34.5 2.3775 34.5C2.87519 34.5 3.35249 34.3023 3.70441 33.9504L33.9493 3.70465C34.1239 3.5305 34.2624 3.32361 34.3569 3.09584C34.4514 2.86807 34.5001 2.62389 34.5001 2.37728C34.5001 2.13068 34.4514 1.8865 34.3569 1.65873C34.2625 1.43115 34.1241 1.22442 33.9497 1.05036ZM33.9497 1.05036C33.9499 1.05051 33.95 1.05066 33.9502 1.05081L33.5962 1.40391L33.9493 1.04991C33.9494 1.05006 33.9496 1.05021 33.9497 1.05036Z" fill="#7141FA" stroke="#7141FA"/>
<path d="M1.4039 1.40391L1.04989 1.05081C1.22404 0.876208 1.43093 0.737685 1.6587 0.643168C1.88647 0.548652 2.13064 0.5 2.37725 0.5C2.62385 0.5 2.86803 0.548652 3.0958 0.643168C3.32345 0.737638 3.53024 0.876071 3.70434 1.05054C3.70443 1.05063 3.70451 1.05072 3.7046 1.05081L33.9495 31.2965C34.3014 31.6484 34.4991 32.1257 34.4991 32.6234C34.4991 33.1211 34.3014 33.5984 33.9495 33.9504C33.5976 34.3023 33.1203 34.5 32.6226 34.5C32.1249 34.5 31.6476 34.3023 31.2957 33.9504L1.05078 3.70465C1.0507 3.70457 1.05061 3.70448 1.05052 3.70439C0.876052 3.53029 0.737626 3.32349 0.643162 3.09584C0.548649 2.86807 0.5 2.62389 0.5 2.37728C0.5 2.13068 0.548649 1.8865 0.643162 1.65873C0.737674 1.43096 0.876192 1.22407 1.05078 1.04991L1.4039 1.40391ZM1.4039 1.40391C1.27587 1.53162 1.17429 1.68333 1.10498 1.85036C1.03568 2.01739 1 2.19645 1 2.37728C1 2.55812 1.03568 2.73718 1.10498 2.90421C1.17429 3.07124 1.27587 3.22295 1.4039 3.35066L1.4039 1.40391Z" fill="#7141FA" stroke="#7141FA"/>
</svg>
