<svg width="35" height="35" viewBox="0 0 35 35" fill="none" xmlns="http://www.w3.org/2000/svg">
<path d="M1.15039 7.29785H33.7407M14.1865 15.4454V23.593M20.7046 15.4454V23.593M4.40942 7.29785H30.4817L27.907 30.4696C27.8188 31.267 27.4395 32.0039 26.8417 32.5391C26.244 33.0742 25.4699 33.3701 24.6676 33.3701H10.2235C9.42122 33.3701 8.64708 33.0742 8.04935 32.5391C7.45162 32.0039 7.07231 31.267 6.98406 30.4696L4.40942 7.29785ZM9.86015 2.64884C10.1237 2.08986 10.5408 1.61735 11.0627 1.28642C11.5847 0.955488 12.1899 0.779778 12.8079 0.779786H22.0831C22.7014 0.779469 23.307 0.955033 23.8293 1.28598C24.3515 1.61693 24.7689 2.08961 25.0326 2.64884L27.2226 7.29785H7.66845L9.86015 2.64884V2.64884Z" stroke="#686868" stroke-width="1.5" stroke-linecap="round" stroke-linejoin="round"/>
</svg>
