<svg width="12" height="18" viewBox="0 0 12 18" fill="none" xmlns="http://www.w3.org/2000/svg">
<path fill-rule="evenodd" clip-rule="evenodd" d="M0.46544 15.7655L9.16226 9L0.46544 2.23449C0.351231 2.14565 0.253138 2.03142 0.176761 1.89834C0.100383 1.76526 0.0472169 1.61592 0.0202977 1.45887C-0.0066214 1.30181 -0.00676662 1.1401 0.0198709 0.982975C0.0465084 0.825851 0.0994069 0.676387 0.175546 0.543118C0.329315 0.27397 0.568413 0.0871242 0.840241 0.0236853C0.974837 -0.00772646 1.11342 -0.00789592 1.24807 0.0231872C1.38272 0.0542703 1.51081 0.115997 1.62502 0.204843L11.4837 7.87422C11.6425 7.99779 11.7728 8.1652 11.8628 8.36158C11.9529 8.55797 12 8.77726 12 9C12 9.22274 11.9529 9.44203 11.8628 9.63842C11.7728 9.8348 11.6425 10.0022 11.4837 10.1258L1.62502 17.7952C1.51081 17.884 1.38272 17.9457 1.24807 17.9768C1.11342 18.0079 0.974837 18.0077 0.840241 17.9763C0.705646 17.9449 0.57767 17.8829 0.463622 17.7937C0.349573 17.7046 0.251685 17.5902 0.175546 17.4569C0.0994069 17.3236 0.0465084 17.1741 0.0198709 17.017C-0.00676662 16.8599 -0.0066214 16.6982 0.0202977 16.5411C0.0472169 16.3841 0.100383 16.2347 0.176761 16.1017C0.253138 15.9686 0.351231 15.8544 0.46544 15.7655Z" fill="black"/>
</svg>
