<svg width="28" height="28" viewBox="0 0 28 28" fill="none" xmlns="http://www.w3.org/2000/svg">
<path d="M13.999 7.05371C14.3084 7.05371 14.6052 7.17758 14.824 7.39808C15.0428 7.61857 15.1657 7.91762 15.1657 8.22944V12.9324H19.8324C20.1418 12.9324 20.4385 13.0562 20.6573 13.2767C20.8761 13.4972 20.999 13.7963 20.999 14.1081C20.999 14.4199 20.8761 14.719 20.6573 14.9395C20.4385 15.16 20.1418 15.2838 19.8324 15.2838H15.1657V19.9868C15.1657 20.2986 15.0428 20.5976 14.824 20.8181C14.6052 21.0386 14.3084 21.1625 13.999 21.1625C13.6896 21.1625 13.3929 21.0386 13.1741 20.8181C12.9553 20.5976 12.8324 20.2986 12.8324 19.9868V15.2838H8.16569C7.85627 15.2838 7.55952 15.16 7.34073 14.9395C7.12194 14.719 6.99902 14.4199 6.99902 14.1081C6.99902 13.7963 7.12194 13.4972 7.34073 13.2767C7.55952 13.0562 7.85627 12.9324 8.16569 12.9324H12.8324V8.22944C12.8324 7.91762 12.9553 7.61857 13.1741 7.39808C13.3929 7.17758 13.6896 7.05371 13.999 7.05371Z" fill="#7140FA"/>
<path d="M0 14C-2.73959e-08 12.1615 0.362121 10.341 1.06569 8.64243C1.76925 6.94387 2.80048 5.40053 4.1005 4.1005C5.40053 2.80048 6.94387 1.76925 8.64243 1.06569C10.341 0.362121 12.1615 0 14 0C15.8385 0 17.659 0.362121 19.3576 1.06569C21.0561 1.76925 22.5995 2.80048 23.8995 4.1005C25.1995 5.40053 26.2307 6.94387 26.9343 8.64243C27.6379 10.341 28 12.1615 28 14C28 17.713 26.525 21.274 23.8995 23.8995C21.274 26.525 17.713 28 14 28C10.287 28 6.72601 26.525 4.1005 23.8995C1.475 21.274 5.53285e-08 17.713 0 14ZM14 2.33333C10.9058 2.33333 7.93834 3.5625 5.75042 5.75042C3.5625 7.93834 2.33333 10.9058 2.33333 14C2.33333 17.0942 3.5625 20.0617 5.75042 22.2496C7.93834 24.4375 10.9058 25.6667 14 25.6667C17.0942 25.6667 20.0617 24.4375 22.2496 22.2496C24.4375 20.0617 25.6667 17.0942 25.6667 14C25.6667 10.9058 24.4375 7.93834 22.2496 5.75042C20.0617 3.5625 17.0942 2.33333 14 2.33333Z" fill="#7140FA"/>
</svg>
