<svg width="23" height="23" viewBox="0 0 23 23" fill="none" xmlns="http://www.w3.org/2000/svg">
<path d="M1.91667 23C1.91667 23 0 23 0 21.0833C0 19.1667 1.91667 13.4167 11.5 13.4167C21.0833 13.4167 23 19.1667 23 21.0833C23 23 21.0833 23 21.0833 23H1.91667ZM11.5 11.5C13.025 11.5 14.4875 10.8942 15.5659 9.81586C16.6442 8.73753 17.25 7.27499 17.25 5.75C17.25 4.22501 16.6442 2.76247 15.5659 1.68414C14.4875 0.605802 13.025 0 11.5 0C9.975 0 8.51247 0.605802 7.43414 1.68414C6.3558 2.76247 5.75 4.22501 5.75 5.75C5.75 7.27499 6.3558 8.73753 7.43414 9.81586C8.51247 10.8942 9.975 11.5 11.5 11.5V11.5Z" fill="#B8B8B8"/>
</svg>
