<svg width="24" height="23" viewBox="0 0 24 23" fill="none" xmlns="http://www.w3.org/2000/svg">
<path d="M23.6889 11.8726L12.8901 0.364239C12.4354 -0.121413 11.5619 -0.121413 11.1071 0.364239L0.308346 11.8726C0.152911 12.0378 0.0508845 12.2428 0.014672 12.4627C-0.0215404 12.6825 0.00962142 12.9077 0.104369 13.1109C0.296347 13.5263 0.725899 13.7933 1.19985 13.7933H3.09958C3.37572 13.7933 3.59958 14.0172 3.59958 14.2933V21.8492C3.59958 22.1544 3.72599 22.4471 3.95101 22.6629C4.17603 22.8788 4.48122 23 4.79944 23H8.39904C8.71727 23 9.02246 22.8788 9.24748 22.6629C9.47249 22.4471 9.59891 22.1544 9.59891 21.8492V17.7458C9.59891 17.4697 9.82277 17.2458 10.0989 17.2458H13.8984C14.1745 17.2458 14.3984 17.4697 14.3984 17.7458V21.8492C14.3984 22.1544 14.5248 22.4471 14.7498 22.6629C14.9748 22.8788 15.28 23 15.5982 23H19.1978C19.5161 23 19.8213 22.8788 20.0463 22.6629C20.2713 22.4471 20.3977 22.1544 20.3977 21.8492V14.2933C20.3977 14.0172 20.6216 13.7933 20.8977 13.7933H22.7974C23.0298 13.7943 23.2575 13.7304 23.4526 13.6094C23.6478 13.4884 23.802 13.3155 23.8965 13.1119C23.991 12.9083 24.0217 12.6827 23.9848 12.4626C23.948 12.2426 23.8452 12.0376 23.6889 11.8726Z" fill="#C1C1C1"/>
</svg>
