<svg width="23" height="23" viewBox="0 0 23 23" fill="none" xmlns="http://www.w3.org/2000/svg">
<path d="M15.9231 9.73077C15.9231 8.02604 15.3172 6.56781 14.1055 5.35607C12.8937 4.14433 11.4355 3.53846 9.73077 3.53846C8.02604 3.53846 6.56781 4.14433 5.35607 5.35607C4.14433 6.56781 3.53846 8.02604 3.53846 9.73077C3.53846 11.4355 4.14433 12.8937 5.35607 14.1055C6.56781 15.3172 8.02604 15.9231 9.73077 15.9231C11.4355 15.9231 12.8937 15.3172 14.1055 14.1055C15.3172 12.8937 15.9231 11.4355 15.9231 9.73077ZM23 21.2308C23 21.7099 22.8249 22.1246 22.4748 22.4748C22.1246 22.8249 21.7099 23 21.2308 23C20.7332 23 20.3185 22.8249 19.9868 22.4748L15.2458 17.7476C13.5964 18.8902 11.758 19.4615 9.73077 19.4615C8.41306 19.4615 7.15294 19.2058 5.95042 18.6944C4.7479 18.183 3.71124 17.4919 2.84044 16.6211C1.96965 15.7503 1.27855 14.7136 0.767127 13.5111C0.255709 12.3086 0 11.0485 0 9.73077C0 8.41306 0.255709 7.15294 0.767127 5.95042C1.27855 4.7479 1.96965 3.71124 2.84044 2.84044C3.71124 1.96965 4.7479 1.27855 5.95042 0.767127C7.15294 0.255709 8.41306 0 9.73077 0C11.0485 0 12.3086 0.255709 13.5111 0.767127C14.7136 1.27855 15.7503 1.96965 16.6211 2.84044C17.4919 3.71124 18.183 4.7479 18.6944 5.95042C19.2058 7.15294 19.4615 8.41306 19.4615 9.73077C19.4615 11.758 18.8902 13.5964 17.7476 15.2458L22.4886 19.9868C22.8295 20.3277 23 20.7424 23 21.2308Z" fill="#B8B8B8"/>
</svg>
