<svg width="24" height="24" viewBox="0 0 24 24" fill="none" xmlns="http://www.w3.org/2000/svg">
<path d="M1 5.4H23M9.8 10.9V16.4M14.2 10.9V16.4M3.2 5.4H20.8L19.062 21.042C19.0024 21.5803 18.7464 22.0777 18.3429 22.439C17.9394 22.8003 17.4168 23 16.8752 23H7.1248C6.5832 23 6.06062 22.8003 5.65712 22.439C5.25363 22.0777 4.99758 21.5803 4.938 21.042L3.2 5.4ZM6.8795 2.2617C7.05743 1.88436 7.33898 1.5654 7.69131 1.342C8.04363 1.11861 8.45222 0.999995 8.8694 1H15.1306C15.548 0.999786 15.9568 1.1183 16.3093 1.34171C16.6619 1.56511 16.9436 1.8842 17.1216 2.2617L18.6 5.4H5.4L6.8795 2.2617V2.2617Z" stroke="#686868" stroke-width="1.5" stroke-linecap="round" stroke-linejoin="round"/>
</svg>
