<svg width="320" height="201" viewBox="0 0 320 201" fill="none" xmlns="http://www.w3.org/2000/svg">
<rect width="320" height="201" fill="#E5E5E5"/>
<rect width="1440" height="1024" transform="translate(-539 -136)" fill="white"/>
<mask id="mask0_0_1" style="mask-type:alpha" maskUnits="userSpaceOnUse" x="0" y="0" width="320" height="201">
<rect width="320" height="201" rx="25" fill="#FCBAC2"/>
</mask>
<g mask="url(#mask0_0_1)">
<rect width="320" height="201" rx="40" fill="#FCBAC2"/>
<g filter="url(#filter0_d_0_1)">
<path d="M305.371 221.272C296.611 229.619 282.405 229.619 273.645 221.272L166.57 119.187C157.81 110.835 157.81 104.851 166.57 96.4994L214.157 51.13C222.917 42.778 229.193 42.778 237.953 51.13L345.027 153.215C353.788 161.567 353.788 175.111 345.027 183.463L305.371 221.272Z" fill="#C1694F"/>
<path d="M250.643 123.725L223.246 97.6051L254.972 67.3571L247.037 59.7964L215.316 90.0444L194.324 70.0306L186.394 77.5966L207.386 97.6051L175.659 127.853L183.589 135.414L215.316 105.166L242.712 131.286L250.643 123.725Z" fill="#8A4B38"/>
<path d="M305.373 228.833C296.612 237.185 282.407 237.185 273.646 228.833L218.129 175.903L297.443 100.285L352.959 153.215C361.72 161.567 361.72 175.111 352.959 183.463L305.373 228.833Z" fill="#DD2E44"/>
<path d="M229.582 186.821L255.789 211.813L300.404 103.108L297.442 100.279L289.007 95.2959L229.582 186.821Z" fill="#BE1931"/>
<path d="M285.546 88.9392L297.441 100.28C293.476 111.627 249.855 183.464 241.919 198.585C241.919 198.585 237.954 209.926 228.038 200.478L198.292 172.117C194.483 168.487 194.45 160.664 198.292 156.996L269.68 88.9392C277.61 81.3785 285.546 88.9392 285.546 88.9392Z" fill="#CCD6DD"/>
</g>
</g>
<path d="M36.056 47.736C36.056 45.5173 36.536 43.544 37.496 41.816C38.456 40.0667 39.7893 38.712 41.496 37.752C43.224 36.7707 45.176 36.28 47.352 36.28C50.0187 36.28 52.3013 36.984 54.2 38.392C56.0987 39.8 57.368 41.72 58.008 44.152H51.992C51.544 43.2133 50.904 42.4987 50.072 42.008C49.2613 41.5173 48.3333 41.272 47.288 41.272C45.6027 41.272 44.2373 41.8587 43.192 43.032C42.1467 44.2053 41.624 45.7733 41.624 47.736C41.624 49.6987 42.1467 51.2667 43.192 52.44C44.2373 53.6133 45.6027 54.2 47.288 54.2C48.3333 54.2 49.2613 53.9547 50.072 53.464C50.904 52.9733 51.544 52.2587 51.992 51.32H58.008C57.368 53.752 56.0987 55.672 54.2 57.08C52.3013 58.4667 50.0187 59.16 47.352 59.16C45.176 59.16 43.224 58.68 41.496 57.72C39.7893 56.7387 38.456 55.384 37.496 53.656C36.536 51.928 36.056 49.9547 36.056 47.736ZM60.271 50.04C60.271 48.2053 60.6123 46.5947 61.295 45.208C61.999 43.8213 62.9483 42.7547 64.143 42.008C65.3377 41.2613 66.671 40.888 68.143 40.888C69.4017 40.888 70.5003 41.144 71.439 41.656C72.399 42.168 73.135 42.84 73.647 43.672V41.144H79.119V59H73.647V56.472C73.1137 57.304 72.367 57.976 71.407 58.488C70.4683 59 69.3697 59.256 68.111 59.256C66.6603 59.256 65.3377 58.8827 64.143 58.136C62.9483 57.368 61.999 56.2907 61.295 54.904C60.6123 53.496 60.271 51.8747 60.271 50.04ZM73.647 50.072C73.647 48.7067 73.263 47.6293 72.495 46.84C71.7483 46.0507 70.831 45.656 69.743 45.656C68.655 45.656 67.727 46.0507 66.959 46.84C66.2123 47.608 65.839 48.6747 65.839 50.04C65.839 51.4053 66.2123 52.4933 66.959 53.304C67.727 54.0933 68.655 54.488 69.743 54.488C70.831 54.488 71.7483 54.0933 72.495 53.304C73.263 52.5147 73.647 51.4373 73.647 50.072ZM93.9578 40.952C96.0484 40.952 97.7124 41.6347 98.9498 43C100.208 44.344 100.838 46.2 100.838 48.568V59H95.3978V49.304C95.3978 48.1093 95.0884 47.1813 94.4698 46.52C93.8511 45.8587 93.0191 45.528 91.9738 45.528C90.9284 45.528 90.0964 45.8587 89.4778 46.52C88.8591 47.1813 88.5498 48.1093 88.5498 49.304V59H83.0778V41.144H88.5498V43.512C89.1044 42.7227 89.8511 42.104 90.7898 41.656C91.7284 41.1867 92.7844 40.952 93.9578 40.952ZM103.552 50.04C103.552 48.2053 103.894 46.5947 104.576 45.208C105.28 43.8213 106.23 42.7547 107.424 42.008C108.619 41.2613 109.952 40.888 111.424 40.888C112.598 40.888 113.664 41.1333 114.624 41.624C115.606 42.1147 116.374 42.776 116.928 43.608V35.32H122.4V59H116.928V56.44C116.416 57.2933 115.68 57.976 114.72 58.488C113.782 59 112.683 59.256 111.424 59.256C109.952 59.256 108.619 58.8827 107.424 58.136C106.23 57.368 105.28 56.2907 104.576 54.904C103.894 53.496 103.552 51.8747 103.552 50.04ZM116.928 50.072C116.928 48.7067 116.544 47.6293 115.776 46.84C115.03 46.0507 114.112 45.656 113.024 45.656C111.936 45.656 111.008 46.0507 110.24 46.84C109.494 47.608 109.12 48.6747 109.12 50.04C109.12 51.4053 109.494 52.4933 110.24 53.304C111.008 54.0933 111.936 54.488 113.024 54.488C114.112 54.488 115.03 54.0933 115.776 53.304C116.544 52.5147 116.928 51.4373 116.928 50.072ZM144.599 41.144L133.399 67.48H127.511L131.607 58.392L124.343 41.144H130.455L134.583 52.312L138.679 41.144H144.599Z" fill="#D5162E"/>
<defs>
<filter id="filter0_d_0_1" x="156" y="44.866" width="207.53" height="198.231" filterUnits="userSpaceOnUse" color-interpolation-filters="sRGB">
<feFlood flood-opacity="0" result="BackgroundImageFix"/>
<feColorMatrix in="SourceAlpha" type="matrix" values="0 0 0 0 0 0 0 0 0 0 0 0 0 0 0 0 0 0 127 0" result="hardAlpha"/>
<feOffset dy="4"/>
<feGaussianBlur stdDeviation="2"/>
<feComposite in2="hardAlpha" operator="out"/>
<feColorMatrix type="matrix" values="0 0 0 0 0.866667 0 0 0 0 0.180392 0 0 0 0 0.266667 0 0 0 0.44 0"/>
<feBlend mode="normal" in2="BackgroundImageFix" result="effect1_dropShadow_0_1"/>
<feBlend mode="normal" in="SourceGraphic" in2="effect1_dropShadow_0_1" result="shape"/>
</filter>
</defs>
</svg>
