<svg width="320" height="201" viewBox="0 0 320 201" fill="none" xmlns="http://www.w3.org/2000/svg">
<mask id="mask0_3143_8085" style="mask-type:alpha" maskUnits="userSpaceOnUse" x="0" y="0" width="320" height="201">
<rect width="320" height="201" rx="40" fill="#FFD9C7"/>
</mask>
<g mask="url(#mask0_3143_8085)">
<rect width="320" height="201" rx="40" fill="#FFD9C7"/>
<g filter="url(#filter0_d_3143_8085)">
<path d="M160 104.953C160 69.6596 211.716 30.9938 253.088 65.5081C267.124 77.2182 278.946 85.2305 278.946 100.022C341.005 90.1611 349.812 143.865 341.005 169.051C335.834 183.843 310.658 223.578 216.887 183.843C170.343 164.12 160 126.569 160 104.953Z" fill="#D99E82"/>
<path d="M250.303 113.938C259.752 105.373 269.066 101.621 279.517 99.9447L278.954 100.019C278.954 95.7882 277.899 92.1445 276.192 88.7769C265.466 92.5833 254.016 100.024 250.303 113.938Z" fill="#C1694F"/>
<path d="M211.71 124.676C214.566 124.676 216.882 122.469 216.882 119.746C216.882 117.022 214.566 114.815 211.71 114.815C208.854 114.815 206.539 117.022 206.539 119.746C206.539 122.469 208.854 124.676 211.71 124.676Z" fill="#C1694F"/>
<path d="M315.148 173.981C318.004 173.981 320.319 171.774 320.319 169.051C320.319 166.328 318.004 164.12 315.148 164.12C312.291 164.12 309.976 166.328 309.976 169.051C309.976 171.774 312.291 173.981 315.148 173.981Z" fill="#C1694F"/>
<path d="M234.985 173.982C239.27 173.982 242.743 170.671 242.743 166.586C242.743 162.501 239.27 159.19 234.985 159.19C230.701 159.19 227.228 162.501 227.228 166.586C227.228 170.671 230.701 173.982 234.985 173.982Z" fill="#C1694F"/>
<path d="M188.447 144.399C192.731 144.399 196.204 141.087 196.204 137.003C196.204 132.918 192.731 129.607 188.447 129.607C184.163 129.607 180.689 132.918 180.689 137.003C180.689 141.087 184.163 144.399 188.447 144.399Z" fill="#C1694F"/>
</g>
<path d="M38.056 47.736C38.056 45.5173 38.536 43.544 39.496 41.816C40.456 40.0667 41.7893 38.712 43.496 37.752C45.224 36.7707 47.176 36.28 49.352 36.28C52.0187 36.28 54.3013 36.984 56.2 38.392C58.0987 39.8 59.368 41.72 60.008 44.152H53.992C53.544 43.2133 52.904 42.4987 52.072 42.008C51.2613 41.5173 50.3333 41.272 49.288 41.272C47.6027 41.272 46.2373 41.8587 45.192 43.032C44.1467 44.2053 43.624 45.7733 43.624 47.736C43.624 49.6987 44.1467 51.2667 45.192 52.44C46.2373 53.6133 47.6027 54.2 49.288 54.2C50.3333 54.2 51.2613 53.9547 52.072 53.464C52.904 52.9733 53.544 52.2587 53.992 51.32H60.008C59.368 53.752 58.0987 55.672 56.2 57.08C54.3013 58.4667 52.0187 59.16 49.352 59.16C47.176 59.16 45.224 58.68 43.496 57.72C41.7893 56.7387 40.456 55.384 39.496 53.656C38.536 51.928 38.056 49.9547 38.056 47.736ZM74.335 40.952C76.383 40.952 78.0257 41.6347 79.263 43C80.5003 44.344 81.119 46.2 81.119 48.568V59H75.679V49.304C75.679 48.1093 75.3697 47.1813 74.751 46.52C74.1323 45.8587 73.3003 45.528 72.255 45.528C71.2097 45.528 70.3777 45.8587 69.759 46.52C69.1403 47.1813 68.831 48.1093 68.831 49.304V59H63.359V35.32H68.831V43.544C69.3857 42.7547 70.143 42.1253 71.103 41.656C72.063 41.1867 73.1403 40.952 74.335 40.952ZM87.6735 39.288C86.7135 39.288 85.9242 39.0107 85.3055 38.456C84.7082 37.88 84.4095 37.176 84.4095 36.344C84.4095 35.4907 84.7082 34.7867 85.3055 34.232C85.9242 33.656 86.7135 33.368 87.6735 33.368C88.6122 33.368 89.3802 33.656 89.9775 34.232C90.5962 34.7867 90.9055 35.4907 90.9055 36.344C90.9055 37.176 90.5962 37.88 89.9775 38.456C89.3802 39.0107 88.6122 39.288 87.6735 39.288ZM90.3935 41.144V59H84.9215V41.144H90.3935ZM99.831 43.672C100.364 42.84 101.1 42.168 102.039 41.656C102.978 41.144 104.076 40.888 105.335 40.888C106.807 40.888 108.14 41.2613 109.335 42.008C110.53 42.7547 111.468 43.8213 112.151 45.208C112.855 46.5947 113.207 48.2053 113.207 50.04C113.207 51.8747 112.855 53.496 112.151 54.904C111.468 56.2907 110.53 57.368 109.335 58.136C108.14 58.8827 106.807 59.256 105.335 59.256C104.098 59.256 102.999 59 102.039 58.488C101.1 57.976 100.364 57.3147 99.831 56.504V67.512H94.359V41.144H99.831V43.672ZM107.639 50.04C107.639 48.6747 107.255 47.608 106.487 46.84C105.74 46.0507 104.812 45.656 103.703 45.656C102.615 45.656 101.687 46.0507 100.919 46.84C100.172 47.6293 99.799 48.7067 99.799 50.072C99.799 51.4373 100.172 52.5147 100.919 53.304C101.687 54.0933 102.615 54.488 103.703 54.488C104.791 54.488 105.719 54.0933 106.487 53.304C107.255 52.4933 107.639 51.4053 107.639 50.04ZM123.342 59.256C121.784 59.256 120.398 58.9893 119.182 58.456C117.966 57.9227 117.006 57.1973 116.302 56.28C115.598 55.3413 115.203 54.296 115.118 53.144H120.526C120.59 53.7627 120.878 54.264 121.39 54.648C121.902 55.032 122.531 55.224 123.278 55.224C123.96 55.224 124.483 55.096 124.846 54.84C125.23 54.5627 125.422 54.2107 125.422 53.784C125.422 53.272 125.155 52.8987 124.622 52.664C124.088 52.408 123.224 52.1307 122.03 51.832C120.75 51.5333 119.683 51.224 118.83 50.904C117.976 50.5627 117.24 50.04 116.622 49.336C116.003 48.6107 115.694 47.64 115.694 46.424C115.694 45.4 115.971 44.472 116.526 43.64C117.102 42.7867 117.934 42.1147 119.022 41.624C120.131 41.1333 121.443 40.888 122.958 40.888C125.198 40.888 126.958 41.4427 128.238 42.552C129.539 43.6613 130.286 45.1333 130.478 46.968H125.422C125.336 46.3493 125.059 45.8587 124.59 45.496C124.142 45.1333 123.544 44.952 122.798 44.952C122.158 44.952 121.667 45.08 121.326 45.336C120.984 45.5707 120.814 45.9013 120.814 46.328C120.814 46.84 121.08 47.224 121.614 47.48C122.168 47.736 123.022 47.992 124.174 48.248C125.496 48.5893 126.574 48.9307 127.406 49.272C128.238 49.592 128.963 50.1253 129.582 50.872C130.222 51.5973 130.552 52.5787 130.574 53.816C130.574 54.8613 130.275 55.8 129.678 56.632C129.102 57.4427 128.259 58.0827 127.15 58.552C126.062 59.0213 124.792 59.256 123.342 59.256Z" fill="#BD653C"/>
</g>
<defs>
<filter id="filter0_d_3143_8085" x="156" y="52.0444" width="191.894" height="156.955" filterUnits="userSpaceOnUse" color-interpolation-filters="sRGB">
<feFlood flood-opacity="0" result="BackgroundImageFix"/>
<feColorMatrix in="SourceAlpha" type="matrix" values="0 0 0 0 0 0 0 0 0 0 0 0 0 0 0 0 0 0 127 0" result="hardAlpha"/>
<feOffset dy="4"/>
<feGaussianBlur stdDeviation="2"/>
<feComposite in2="hardAlpha" operator="out"/>
<feColorMatrix type="matrix" values="0 0 0 0 0.85098 0 0 0 0 0.619608 0 0 0 0 0.509804 0 0 0 0.64 0"/>
<feBlend mode="normal" in2="BackgroundImageFix" result="effect1_dropShadow_3143_8085"/>
<feBlend mode="normal" in="SourceGraphic" in2="effect1_dropShadow_3143_8085" result="shape"/>
</filter>
</defs>
</svg>
