<svg width="320" height="201" viewBox="0 0 320 201" fill="none" xmlns="http://www.w3.org/2000/svg">
<rect width="320" height="201" fill="#E5E5E5"/>
<rect width="1440" height="1024" transform="translate(-180 -622)" fill="white"/>
<mask id="mask0_0_1" style="mask-type:alpha" maskUnits="userSpaceOnUse" x="0" y="0" width="320" height="201">
<rect width="320" height="201" rx="40" fill="#B3DEFF"/>
</mask>
<g mask="url(#mask0_0_1)">
<rect width="320" height="201" rx="40" fill="#B3DEFF"/>
<g filter="url(#filter0_d_0_1)">
<path d="M250.008 181.951C250.008 181.951 294.634 171.076 305.914 130.45C307.572 124.484 299.56 119.595 289.724 119.595H191.403C186.484 119.595 175.748 121.562 178.544 131.144C190.197 171.076 233.265 181.951 233.265 181.951V186.632C233.265 186.632 213.868 196.382 209.875 198.644C205.576 200.991 208.753 204.734 210.478 205.385C213.341 206.458 220.482 209.974 240.264 209.974C260.553 209.974 271.645 206.167 274.098 205.385C275.044 205.086 279.108 201.502 273.269 198.205C262.872 192.339 250.008 186.632 250.008 186.632V181.951V181.951Z" fill="#55ACEE"/>
<path d="M305.647 128.566C305.647 135.319 277.037 140.794 241.733 140.794C206.439 140.794 177.824 135.323 177.824 128.566C177.824 121.81 206.439 116.338 241.733 116.338C277.037 116.338 305.647 121.81 305.647 128.566V128.566Z" fill="#3B88C3"/>
<path d="M275.051 95.282C275.051 101.719 261.937 114.218 242.267 114.218C224.164 114.218 209.488 105.885 209.488 95.282C209.488 78.0218 224.16 68.1965 242.267 68.1965C260.38 68.2005 275.051 78.0218 275.051 95.282Z" fill="#F4ABBA"/>
<path d="M305.648 124.451C305.648 130.888 292.538 141.304 272.873 141.304C254.765 141.304 240.089 146.864 240.089 124.451C240.089 107.191 254.765 93.1995 272.873 93.1995C290.976 93.1995 305.648 107.191 305.648 124.451V124.451Z" fill="#FFE8B6"/>
<path d="M244.453 124.451C244.453 145.132 231.343 141.656 211.674 141.656C193.571 141.656 178.895 135.059 178.895 124.451C178.895 107.191 193.571 93.1995 211.674 93.1995C229.782 93.1995 244.453 107.191 244.453 124.451V124.451Z" fill="#8A4B38"/>
<path d="M295.373 151.912C298.822 147.279 301.823 141.987 304.088 135.969C247.642 154.853 194.963 141.456 180.702 137.31C182.753 142.414 185.319 146.988 188.224 151.062C235.733 164.036 278.433 155.867 295.373 151.912V151.912Z" fill="#3B88C3"/>
<path d="M178.169 128.282C184.012 130.676 242.999 148.419 305.828 128.629C305.828 131.231 304.107 138.514 303.094 141.3C301.458 145.817 238.629 160.575 182.174 142.341C180.534 141.651 175.619 127.24 178.169 128.282V128.282Z" fill="#55ACEE"/>
</g>
</g>
<path d="M44.456 38.536V61H38.984V38.536H44.456ZM47.3335 52.072C47.3335 50.216 47.7068 48.5947 48.4535 47.208C49.2215 45.8213 50.2775 44.7547 51.6215 44.008C52.9868 43.2613 54.5442 42.888 56.2935 42.888C58.5335 42.888 60.4002 43.4747 61.8935 44.648C63.4082 45.8213 64.4002 47.4747 64.8695 49.608H59.0455C58.5548 48.2427 57.6055 47.56 56.1975 47.56C55.1948 47.56 54.3948 47.9547 53.7975 48.744C53.2002 49.512 52.9015 50.6213 52.9015 52.072C52.9015 53.5227 53.2002 54.6427 53.7975 55.432C54.3948 56.2 55.1948 56.584 56.1975 56.584C57.6055 56.584 58.5548 55.9013 59.0455 54.536H64.8695C64.4002 56.6267 63.4082 58.2693 61.8935 59.464C60.3788 60.6587 58.5122 61.256 56.2935 61.256C54.5442 61.256 52.9868 60.8827 51.6215 60.136C50.2775 59.3893 49.2215 58.3227 48.4535 56.936C47.7068 55.5493 47.3335 53.928 47.3335 52.072ZM84.6285 51.784C84.6285 52.296 84.5965 52.8293 84.5325 53.384H72.1485C72.2338 54.4933 72.5858 55.3467 73.2045 55.944C73.8445 56.52 74.6232 56.808 75.5405 56.808C76.9058 56.808 77.8552 56.232 78.3885 55.08H84.2125C83.9138 56.2533 83.3698 57.3093 82.5805 58.248C81.8125 59.1867 80.8418 59.9227 79.6685 60.456C78.4952 60.9893 77.1832 61.256 75.7325 61.256C73.9832 61.256 72.4258 60.8827 71.0605 60.136C69.6952 59.3893 68.6285 58.3227 67.8605 56.936C67.0925 55.5493 66.7085 53.928 66.7085 52.072C66.7085 50.216 67.0818 48.5947 67.8285 47.208C68.5965 45.8213 69.6632 44.7547 71.0285 44.008C72.3938 43.2613 73.9618 42.888 75.7325 42.888C77.4605 42.888 78.9965 43.2507 80.3405 43.976C81.6845 44.7013 82.7298 45.736 83.4765 47.08C84.2445 48.424 84.6285 49.992 84.6285 51.784ZM79.0285 50.344C79.0285 49.4053 78.7085 48.6587 78.0685 48.104C77.4285 47.5493 76.6285 47.272 75.6685 47.272C74.7512 47.272 73.9725 47.5387 73.3325 48.072C72.7138 48.6053 72.3298 49.3627 72.1805 50.344H79.0285ZM93.3685 49.736C93.3685 47.5173 93.8485 45.544 94.8085 43.816C95.7685 42.0667 97.1018 40.712 98.8085 39.752C100.537 38.7707 102.489 38.28 104.665 38.28C107.331 38.28 109.614 38.984 111.513 40.392C113.411 41.8 114.681 43.72 115.321 46.152H109.305C108.857 45.2133 108.217 44.4987 107.385 44.008C106.574 43.5173 105.646 43.272 104.601 43.272C102.915 43.272 101.55 43.8587 100.505 45.032C99.4592 46.2053 98.9365 47.7733 98.9365 49.736C98.9365 51.6987 99.4592 53.2667 100.505 54.44C101.55 55.6133 102.915 56.2 104.601 56.2C105.646 56.2 106.574 55.9547 107.385 55.464C108.217 54.9733 108.857 54.2587 109.305 53.32H115.321C114.681 55.752 113.411 57.672 111.513 59.08C109.614 60.4667 107.331 61.16 104.665 61.16C102.489 61.16 100.537 60.68 98.8085 59.72C97.1018 58.7387 95.7685 57.384 94.8085 55.656C93.8485 53.928 93.3685 51.9547 93.3685 49.736ZM124.144 46.12C124.784 45.1387 125.584 44.3707 126.544 43.816C127.504 43.24 128.57 42.952 129.744 42.952V48.744H128.24C126.874 48.744 125.85 49.0427 125.168 49.64C124.485 50.216 124.144 51.24 124.144 52.712V61H118.672V43.144H124.144V46.12ZM149.191 51.784C149.191 52.296 149.159 52.8293 149.095 53.384H136.711C136.796 54.4933 137.148 55.3467 137.767 55.944C138.407 56.52 139.186 56.808 140.103 56.808C141.468 56.808 142.418 56.232 142.951 55.08H148.775C148.476 56.2533 147.932 57.3093 147.143 58.248C146.375 59.1867 145.404 59.9227 144.231 60.456C143.058 60.9893 141.746 61.256 140.295 61.256C138.546 61.256 136.988 60.8827 135.623 60.136C134.258 59.3893 133.191 58.3227 132.423 56.936C131.655 55.5493 131.271 53.928 131.271 52.072C131.271 50.216 131.644 48.5947 132.391 47.208C133.159 45.8213 134.226 44.7547 135.591 44.008C136.956 43.2613 138.524 42.888 140.295 42.888C142.023 42.888 143.559 43.2507 144.903 43.976C146.247 44.7013 147.292 45.736 148.039 47.08C148.807 48.424 149.191 49.992 149.191 51.784ZM143.591 50.344C143.591 49.4053 143.271 48.6587 142.631 48.104C141.991 47.5493 141.191 47.272 140.231 47.272C139.314 47.272 138.535 47.5387 137.895 48.072C137.276 48.6053 136.892 49.3627 136.743 50.344H143.591ZM150.99 52.04C150.99 50.2053 151.331 48.5947 152.014 47.208C152.718 45.8213 153.667 44.7547 154.862 44.008C156.056 43.2613 157.39 42.888 158.862 42.888C160.12 42.888 161.219 43.144 162.158 43.656C163.118 44.168 163.854 44.84 164.366 45.672V43.144H169.838V61H164.366V58.472C163.832 59.304 163.086 59.976 162.126 60.488C161.187 61 160.088 61.256 158.83 61.256C157.379 61.256 156.056 60.8827 154.862 60.136C153.667 59.368 152.718 58.2907 152.014 56.904C151.331 55.496 150.99 53.8747 150.99 52.04ZM164.366 52.072C164.366 50.7067 163.982 49.6293 163.214 48.84C162.467 48.0507 161.55 47.656 160.462 47.656C159.374 47.656 158.446 48.0507 157.678 48.84C156.931 49.608 156.558 50.6747 156.558 52.04C156.558 53.4053 156.931 54.4933 157.678 55.304C158.446 56.0933 159.374 56.488 160.462 56.488C161.55 56.488 162.467 56.0933 163.214 55.304C163.982 54.5147 164.366 53.4373 164.366 52.072ZM196.581 42.952C198.799 42.952 200.559 43.624 201.861 44.968C203.183 46.312 203.845 48.1787 203.845 50.568V61H198.405V51.304C198.405 50.152 198.095 49.2667 197.477 48.648C196.879 48.008 196.047 47.688 194.981 47.688C193.914 47.688 193.071 48.008 192.453 48.648C191.855 49.2667 191.557 50.152 191.557 51.304V61H186.117V51.304C186.117 50.152 185.807 49.2667 185.189 48.648C184.591 48.008 183.759 47.688 182.693 47.688C181.626 47.688 180.783 48.008 180.165 48.648C179.567 49.2667 179.269 50.152 179.269 51.304V61H173.797V43.144H179.269V45.384C179.823 44.6373 180.549 44.0507 181.445 43.624C182.341 43.176 183.354 42.952 184.485 42.952C185.829 42.952 187.023 43.24 188.069 43.816C189.135 44.392 189.967 45.2133 190.565 46.28C191.183 45.2987 192.026 44.4987 193.093 43.88C194.159 43.2613 195.322 42.952 196.581 42.952Z" fill="#3B88C3"/>
<defs>
<filter id="filter0_d_0_1" x="173.449" y="68.1965" width="136.684" height="149.778" filterUnits="userSpaceOnUse" color-interpolation-filters="sRGB">
<feFlood flood-opacity="0" result="BackgroundImageFix"/>
<feColorMatrix in="SourceAlpha" type="matrix" values="0 0 0 0 0 0 0 0 0 0 0 0 0 0 0 0 0 0 127 0" result="hardAlpha"/>
<feOffset dy="4"/>
<feGaussianBlur stdDeviation="2"/>
<feComposite in2="hardAlpha" operator="out"/>
<feColorMatrix type="matrix" values="0 0 0 0 0.333333 0 0 0 0 0.67451 0 0 0 0 0.933333 0 0 0 0.58 0"/>
<feBlend mode="normal" in2="BackgroundImageFix" result="effect1_dropShadow_0_1"/>
<feBlend mode="normal" in="SourceGraphic" in2="effect1_dropShadow_0_1" result="shape"/>
</filter>
</defs>
</svg>
