<svg width="320" height="201" viewBox="0 0 320 201" fill="none" xmlns="http://www.w3.org/2000/svg">
<rect width="320" height="201" fill="#E5E5E5"/>
<rect width="1440" height="1024" transform="translate(-539 -620)" fill="white"/>
<mask id="mask0_0_1" style="mask-type:alpha" maskUnits="userSpaceOnUse" x="0" y="0" width="320" height="201">
<rect width="320" height="201" rx="40" fill="#FFDBB0"/>
</mask>
<g mask="url(#mask0_0_1)">
<rect width="320" height="201" rx="40" fill="#FFDBB0"/>
<g filter="url(#filter0_d_0_1)">
<path d="M254.351 215.979C305.42 215.979 346.82 194.051 346.82 167.002C346.82 139.952 305.42 118.024 254.351 118.024C203.282 118.024 161.882 139.952 161.882 167.002C161.882 194.051 203.282 215.979 254.351 215.979Z" fill="#939598"/>
<path d="M254.351 206.182C305.42 206.182 346.82 184.254 346.82 157.205C346.82 130.155 305.42 108.227 254.351 108.227C203.282 108.227 161.882 130.155 161.882 157.205C161.882 184.254 203.282 206.182 254.351 206.182Z" fill="#F1F2F2"/>
<path d="M254.341 192.578C296.332 192.578 330.371 175.888 330.371 155.301C330.371 134.713 296.332 118.024 254.341 118.024C212.351 118.024 178.312 134.713 178.312 155.301C178.312 175.888 212.351 192.578 254.341 192.578Z" fill="#FFCC4D"/>
<path d="M218.383 181.693C215.548 181.693 213.246 179.503 213.246 176.795C213.246 174.087 215.548 171.897 218.383 171.897C228.134 171.897 234.216 166.583 234.689 162.91C235.156 159.305 229.757 157.615 227.409 157.057C222.755 155.955 219.293 157.219 215.296 158.698C209.809 160.725 202.294 163.488 194.203 155.769C190.663 152.399 189.744 147.913 191.675 143.461C195.441 134.796 209.368 127.817 218.383 127.817C221.219 127.817 223.52 130.011 223.52 132.715C223.52 135.419 221.219 137.613 218.383 137.613C212.655 137.613 202.997 142.995 201.169 147.212C200.789 148.084 200.943 148.339 201.467 148.843C204.698 151.919 206.234 151.527 211.592 149.563C216.02 147.927 222.082 145.694 229.901 147.56C242.148 150.479 245.672 158.022 244.886 164.11C243.771 172.749 233.553 181.693 218.383 181.693ZM249.206 186.591C246.37 186.591 244.069 184.401 244.069 181.693C244.069 178.984 246.37 176.795 249.206 176.795C278.473 176.795 299.72 170.687 312.357 158.639C314.366 156.724 317.613 156.724 319.621 158.639C321.63 160.554 321.63 163.649 319.621 165.564C304.985 179.518 281.298 186.591 249.206 186.591Z" fill="#FFE8B6"/>
<path d="M271.557 167.784C268.799 167.784 266.066 167.49 263.384 166.849C260.595 166.187 252.113 164.165 251.846 157.626C251.651 152.728 255.242 146.988 282.351 138.246C279.397 135.949 272.292 132.716 264.627 132.716C251.718 132.716 245.122 133.749 242.574 136.179C240.565 138.094 237.318 138.094 235.31 136.179C233.301 134.264 233.301 131.168 235.31 129.253C240.216 124.576 247.885 122.92 264.627 122.92C276.936 122.92 292.348 129.449 293.786 137.873C294.336 141.116 292.794 145.249 286.805 147.155C273.535 151.372 266.662 154.741 263.682 156.74C264.258 156.931 264.982 157.136 265.876 157.352C282.474 161.29 303.49 145.764 305.781 141.777C306.151 139.421 308.288 137.614 310.862 137.614C313.703 137.614 315.999 139.808 315.999 142.512C315.999 145.969 312.737 150.152 306.305 154.937C297.351 161.603 284.272 167.779 271.557 167.784Z" fill="#FFE8B6"/>
<path d="M300.586 149.857C300.586 162.028 290.163 176.795 264.626 176.795C239.089 176.795 244.077 166.999 202.98 152.306C185.637 146.105 228.815 127.817 254.352 127.817C279.889 127.817 300.586 137.686 300.586 149.857Z" fill="#DD2E44"/>
<path d="M244.077 167.001C242.762 167.001 241.447 166.521 240.445 165.566C238.437 163.651 238.437 160.555 240.445 158.64C241.889 157.146 241.021 156.319 240.445 155.77C237.579 153.037 228.948 152.753 220.688 156.691C218.145 157.901 215.063 156.921 213.794 154.502C212.525 152.082 213.552 149.138 216.09 147.929C226.246 143.09 240.368 141.846 247.704 148.849C254.136 154.981 251.228 162.211 247.704 165.57C246.707 166.521 245.392 167.001 244.077 167.001V167.001ZM264.626 147.41C252.225 147.41 245.695 141.184 240.445 136.179C238.437 134.264 238.437 131.168 240.445 129.253C242.454 127.338 245.701 127.338 247.709 129.253C252.61 133.926 256.478 137.614 264.626 137.614C268.597 137.614 277.911 137.614 281.543 134.151C283.551 132.236 286.798 132.236 288.806 134.151C290.815 136.066 290.815 139.162 288.806 141.077C282.164 147.41 270.318 147.41 264.626 147.41ZM264.626 167.001C261.785 167.001 259.489 164.811 259.489 162.103C259.489 159.394 261.785 157.205 264.626 157.205C274.114 157.205 287.99 152.493 291.817 148.845C293.825 146.93 297.072 146.93 299.081 148.845C301.089 150.76 301.089 153.855 299.081 155.77C292.449 162.093 275.111 167.001 264.626 167.001Z" fill="#EA596E"/>
<path d="M249.224 147.41C247.339 147.41 245.525 146.42 244.621 144.701C239.489 134.92 228.814 114.565 223.569 74.5502C223.22 71.8662 225.213 69.4173 228.028 69.0842C230.823 68.7414 233.412 70.6515 233.761 73.3355C238.79 111.685 248.931 131.027 253.806 140.323C255.075 142.742 254.048 145.686 251.51 146.895C250.781 147.243 249.995 147.41 249.224 147.41V147.41Z" fill="#FFAC33"/>
<path d="M342.326 103.535L264.035 81.4805C246.821 55.4782 225.168 59.6609 213.255 59.2495C211.97 59.2054 209.047 60.327 208.975 62.3106C208.898 64.2305 214.246 63.9612 215.068 63.9905C223.827 64.2942 235.334 64.8526 246.569 76.1664C232.915 71.6311 211.94 68.7169 208.118 69.0451C205.765 69.2508 205.549 70.8817 208.333 72.1062C210.619 73.1151 231.82 80.1728 243.471 83.567C236.182 85.962 226.591 87.0689 210.419 79.3549C207.866 78.1402 204.249 76.4211 202.98 78.8406C201.712 81.2601 205.58 82.5287 208.118 83.7384C219.214 89.028 225.738 95.16 232.894 95.16C241.401 95.16 247.555 92.6867 252.374 90.7569C254.085 90.0712 255.631 89.4688 257.013 89.077C257.095 89.126 257.157 89.1945 257.239 89.2386L333.295 121.525C335.786 122.823 341.37 117.651 342.732 115.28C344.093 112.9 344.17 104.627 342.326 103.535V103.535Z" fill="#99AAB5"/>
<path d="M228.665 142.512C227.349 142.512 226.034 142.032 225.033 141.077C218.277 134.636 202.193 97.6481 224.652 70.8817C226.425 68.7658 229.666 68.4279 231.87 70.1176C234.089 71.8073 234.449 74.8881 232.672 76.999C213.931 99.3378 228.675 130.693 232.291 134.146C234.3 136.061 234.3 139.157 232.291 141.072C231.295 142.032 229.98 142.512 228.665 142.512V142.512Z" fill="#FFAC33"/>
</g>
</g>
<path d="M48.44 64L43.768 55.52H42.456V64H36.984V41.536H46.168C47.9387 41.536 49.4427 41.8453 50.68 42.464C51.9387 43.0827 52.8773 43.936 53.496 45.024C54.1147 46.0907 54.424 47.2853 54.424 48.608C54.424 50.1013 53.9973 51.4347 53.144 52.608C52.312 53.7813 51.0747 54.6133 49.432 55.104L54.616 64H48.44ZM42.456 51.648H45.848C46.8507 51.648 47.5973 51.4027 48.088 50.912C48.6 50.4213 48.856 49.728 48.856 48.832C48.856 47.9787 48.6 47.3067 48.088 46.816C47.5973 46.3253 46.8507 46.08 45.848 46.08H42.456V51.648ZM74.691 54.784C74.691 55.296 74.659 55.8293 74.595 56.384H62.211C62.2963 57.4933 62.6483 58.3467 63.267 58.944C63.907 59.52 64.6857 59.808 65.603 59.808C66.9683 59.808 67.9177 59.232 68.451 58.08H74.275C73.9763 59.2533 73.4323 60.3093 72.643 61.248C71.875 62.1867 70.9043 62.9227 69.731 63.456C68.5577 63.9893 67.2457 64.256 65.795 64.256C64.0457 64.256 62.4883 63.8827 61.123 63.136C59.7577 62.3893 58.691 61.3227 57.923 59.936C57.155 58.5493 56.771 56.928 56.771 55.072C56.771 53.216 57.1443 51.5947 57.891 50.208C58.659 48.8213 59.7257 47.7547 61.091 47.008C62.4563 46.2613 64.0243 45.888 65.795 45.888C67.523 45.888 69.059 46.2507 70.403 46.976C71.747 47.7013 72.7923 48.736 73.539 50.08C74.307 51.424 74.691 52.992 74.691 54.784ZM69.091 53.344C69.091 52.4053 68.771 51.6587 68.131 51.104C67.491 50.5493 66.691 50.272 65.731 50.272C64.8137 50.272 64.035 50.5387 63.395 51.072C62.7763 51.6053 62.3923 52.3627 62.243 53.344H69.091ZM76.4898 55.04C76.4898 53.2053 76.8311 51.5947 77.5138 50.208C78.2178 48.8213 79.1671 47.7547 80.3618 47.008C81.5564 46.2613 82.8898 45.888 84.3618 45.888C85.6204 45.888 86.7191 46.144 87.6578 46.656C88.6178 47.168 89.3538 47.84 89.8658 48.672V46.144H95.3378V64H89.8658V61.472C89.3324 62.304 88.5858 62.976 87.6258 63.488C86.6871 64 85.5884 64.256 84.3298 64.256C82.8791 64.256 81.5564 63.8827 80.3618 63.136C79.1671 62.368 78.2178 61.2907 77.5138 59.904C76.8311 58.496 76.4898 56.8747 76.4898 55.04ZM89.8658 55.072C89.8658 53.7067 89.4818 52.6293 88.7138 51.84C87.9671 51.0507 87.0498 50.656 85.9618 50.656C84.8738 50.656 83.9458 51.0507 83.1778 51.84C82.4311 52.608 82.0578 53.6747 82.0578 55.04C82.0578 56.4053 82.4311 57.4933 83.1778 58.304C83.9458 59.0933 84.8738 59.488 85.9618 59.488C87.0498 59.488 87.9671 59.0933 88.7138 58.304C89.4818 57.5147 89.8658 56.4373 89.8658 55.072ZM98.2085 55.04C98.2085 53.2053 98.5498 51.5947 99.2325 50.208C99.9365 48.8213 100.886 47.7547 102.081 47.008C103.275 46.2613 104.609 45.888 106.081 45.888C107.254 45.888 108.321 46.1333 109.281 46.624C110.262 47.1147 111.03 47.776 111.585 48.608V40.32H117.057V64H111.585V61.44C111.073 62.2933 110.337 62.976 109.377 63.488C108.438 64 107.339 64.256 106.081 64.256C104.609 64.256 103.275 63.8827 102.081 63.136C100.886 62.368 99.9365 61.2907 99.2325 59.904C98.5498 58.496 98.2085 56.8747 98.2085 55.04ZM111.585 55.072C111.585 53.7067 111.201 52.6293 110.433 51.84C109.686 51.0507 108.769 50.656 107.681 50.656C106.593 50.656 105.665 51.0507 104.897 51.84C104.15 52.608 103.777 53.6747 103.777 55.04C103.777 56.4053 104.15 57.4933 104.897 58.304C105.665 59.0933 106.593 59.488 107.681 59.488C108.769 59.488 109.686 59.0933 110.433 58.304C111.201 57.5147 111.585 56.4373 111.585 55.072ZM139.255 46.144L128.055 72.48H122.167L126.263 63.392L118.999 46.144H125.111L129.239 57.312L133.335 46.144H139.255ZM53.144 89.536V93.92H47.192V112H41.72V93.92H35.768V89.536H53.144ZM64.0183 112.256C62.2689 112.256 60.6903 111.883 59.2823 111.136C57.8956 110.389 56.7969 109.323 55.9863 107.936C55.1969 106.549 54.8023 104.928 54.8023 103.072C54.8023 101.237 55.2076 99.6267 56.0182 98.24C56.8289 96.832 57.9383 95.7547 59.3463 95.008C60.7543 94.2613 62.3329 93.888 64.0823 93.888C65.8316 93.888 67.4103 94.2613 68.8183 95.008C70.2263 95.7547 71.3356 96.832 72.1463 98.24C72.9569 99.6267 73.3623 101.237 73.3623 103.072C73.3623 104.907 72.9463 106.528 72.1143 107.936C71.3036 109.323 70.1836 110.389 68.7543 111.136C67.3463 111.883 65.7676 112.256 64.0183 112.256ZM64.0183 107.52C65.0636 107.52 65.9489 107.136 66.6743 106.368C67.4209 105.6 67.7943 104.501 67.7943 103.072C67.7943 101.643 67.4316 100.544 66.7063 99.776C66.0023 99.008 65.1276 98.624 64.0823 98.624C63.0156 98.624 62.1303 99.008 61.4263 99.776C60.7223 100.523 60.3703 101.621 60.3703 103.072C60.3703 104.501 60.7116 105.6 61.3943 106.368C62.0983 107.136 62.9729 107.52 64.0183 107.52ZM88.5185 93.92V98.464H95.8465V102.688H88.5185V107.616H96.8065V112H83.0465V89.536H96.8065V93.92H88.5185ZM99.271 103.04C99.271 101.205 99.6123 99.5947 100.295 98.208C100.999 96.8213 101.948 95.7547 103.143 95.008C104.338 94.2613 105.671 93.888 107.143 93.888C108.402 93.888 109.5 94.144 110.439 94.656C111.399 95.168 112.135 95.84 112.647 96.672V94.144H118.119V112H112.647V109.472C112.114 110.304 111.367 110.976 110.407 111.488C109.468 112 108.37 112.256 107.111 112.256C105.66 112.256 104.338 111.883 103.143 111.136C101.948 110.368 100.999 109.291 100.295 107.904C99.6123 106.496 99.271 104.875 99.271 103.04ZM112.647 103.072C112.647 101.707 112.263 100.629 111.495 99.84C110.748 99.0507 109.831 98.656 108.743 98.656C107.655 98.656 106.727 99.0507 105.959 99.84C105.212 100.608 104.839 101.675 104.839 103.04C104.839 104.405 105.212 105.493 105.959 106.304C106.727 107.093 107.655 107.488 108.743 107.488C109.831 107.488 110.748 107.093 111.495 106.304C112.263 105.515 112.647 104.437 112.647 103.072ZM132.03 107.36V112H129.246C127.262 112 125.715 111.52 124.606 110.56C123.496 109.579 122.942 107.989 122.942 105.792V98.688H120.766V94.144H122.942V89.792H128.414V94.144H131.998V98.688H128.414V105.856C128.414 106.389 128.542 106.773 128.798 107.008C129.054 107.243 129.48 107.36 130.078 107.36H132.03Z" fill="#E28413"/>
<defs>
<filter id="filter0_d_0_1" x="157.882" y="59.2229" width="192.938" height="164.757" filterUnits="userSpaceOnUse" color-interpolation-filters="sRGB">
<feFlood flood-opacity="0" result="BackgroundImageFix"/>
<feColorMatrix in="SourceAlpha" type="matrix" values="0 0 0 0 0 0 0 0 0 0 0 0 0 0 0 0 0 0 127 0" result="hardAlpha"/>
<feOffset dy="4"/>
<feGaussianBlur stdDeviation="2"/>
<feComposite in2="hardAlpha" operator="out"/>
<feColorMatrix type="matrix" values="0 0 0 0 1 0 0 0 0 0.756962 0 0 0 0 0.466667 0 0 0 1 0"/>
<feBlend mode="normal" in2="BackgroundImageFix" result="effect1_dropShadow_0_1"/>
<feBlend mode="normal" in="SourceGraphic" in2="effect1_dropShadow_0_1" result="shape"/>
</filter>
</defs>
</svg>
