<svg width="320" height="201" viewBox="0 0 320 201" fill="none" xmlns="http://www.w3.org/2000/svg">
<rect width="320" height="201" fill="#E5E5E5"/>
<rect width="1440" height="1024" transform="translate(-539 -379)" fill="white"/>
<mask id="mask0_0_1" style="mask-type:alpha" maskUnits="userSpaceOnUse" x="0" y="0" width="320" height="201">
<rect width="320" height="201" rx="40" fill="#C8F0EE"/>
</mask>
<g mask="url(#mask0_0_1)">
<rect width="320" height="201" rx="40" fill="#C8F0EE"/>
<g filter="url(#filter0_d_0_1)">
<path d="M342.498 151.345L160 148.705L160.091 162.138C160.182 165.173 161.997 168.218 165.888 170.49L202.962 192.126L240.042 213.758C248.232 218.543 262.29 218.098 269.697 213.758C277.121 209.434 273.412 207.274 280.824 202.94C288.237 198.621 291.941 200.78 299.364 196.461C306.788 192.121 336.449 174.829 336.449 174.829C340.534 172.445 342.573 169.318 342.584 166.186L342.498 151.345Z" fill="#F4900C"/>
<path d="M336.448 142.159C336.448 142.159 173.305 133.511 165.887 137.835C158.469 142.159 157.696 150.357 165.887 155.142L202.961 176.779L240.04 198.416C248.231 203.2 262.289 202.755 269.696 198.416C277.12 194.091 273.411 191.932 280.823 187.597C288.236 183.278 291.94 185.438 299.363 181.118C306.786 176.779 336.442 159.482 336.442 159.482C344.633 154.697 344.639 146.939 336.448 142.159Z" fill="#FFAC33"/>
<path d="M209.502 172.461L247.456 194.097C247.456 194.097 255.046 198.417 262.636 194.097C269.061 190.428 274.02 183.279 274.02 183.279L209.502 172.461Z" fill="#FFD983"/>
<path d="M335.736 141.361C325.317 128.111 192.453 118.782 171.611 137.436C167.403 141.207 159.453 148.796 167.918 160.152C171.611 166.099 179.276 169.972 180.296 168.135C182.674 163.826 187.418 160.06 194.536 160.423C194.133 161.334 197.977 176.835 197.542 177.183C192.577 181.205 202.893 195.186 214.981 187.74C217.992 193.411 236.215 207.407 248.792 188.262C251.293 192.581 277.562 199.152 284.856 179.225C284.797 179.568 284.813 179.859 284.717 180.228C284.239 182.019 288.592 183.57 293.026 182.086C300.481 179.598 311.249 173.422 313.154 166.641C318.474 165.756 322.462 167.163 325.532 171.032C327.051 172.946 332.263 173.406 334.49 170.904C338.42 166.508 344.866 152.977 335.736 141.361Z" fill="#77B255"/>
<path d="M321.031 174.502C321.031 177.209 316.221 179.41 310.295 179.41H192.208C186.283 179.41 181.473 177.209 181.473 174.502V140.977H321.031V174.502Z" fill="#FFCC4D"/>
<path d="M333.434 148.639C333.434 162.804 308.818 174.293 278.459 174.293C248.089 174.293 223.479 162.804 223.479 148.639C223.479 134.469 248.089 122.985 278.459 122.985C308.818 122.985 333.434 134.474 333.434 148.639Z" fill="#BE1931"/>
<path d="M342.498 120.64L160 117.999V131.433H160.091C160.182 134.467 161.997 137.512 165.888 139.784L202.962 161.421L240.042 183.053C248.232 187.838 262.29 187.392 269.697 183.053C277.121 178.728 273.412 176.569 280.824 172.234C288.237 167.915 291.941 170.075 299.364 165.756C306.788 161.416 336.449 144.124 336.449 144.124C340.534 141.739 342.573 138.612 342.584 135.481V135.455L342.498 120.64Z" fill="#F4900C"/>
<path d="M336.448 111.455L262.295 68.1917C254.104 63.412 240.824 63.412 232.628 68.1917L195.549 89.8284C188.136 94.1527 191.84 96.3174 184.427 100.642C177.014 104.966 173.305 102.801 165.887 107.131C158.469 111.455 157.696 119.653 165.887 124.438L240.04 167.706C248.231 172.491 262.289 172.046 269.696 167.706C277.12 163.382 273.411 161.222 280.823 156.888C288.236 152.569 291.94 154.728 299.363 150.409C306.786 146.07 336.442 128.772 336.442 128.772C344.633 123.993 344.639 116.235 336.448 111.455Z" fill="#FFAC33"/>
<path d="M330.955 115.789L255.041 72.5208C255.041 72.5208 246.952 68.4728 239.856 72.5208L202.487 93.8197C196.062 97.4787 196.943 101.307 190.518 104.966C184.098 108.63 177.963 107.796 171.538 111.455C163.948 115.789 171.538 120.118 171.538 120.118L247.446 163.387C247.446 163.387 255.036 167.706 262.626 163.387C269.051 159.718 267.596 156.238 274.01 152.568C280.435 148.899 287.145 149.401 293.57 145.742C299.995 142.088 330.945 124.438 330.945 124.438C330.945 124.438 338.046 119.827 330.955 115.789Z" fill="#FFD983"/>
</g>
</g>
<path d="M45.112 59.224C43.4693 59.224 41.9973 58.9573 40.696 58.424C39.3947 57.8907 38.3493 57.1013 37.56 56.056C36.792 55.0107 36.3867 53.752 36.344 52.28H42.168C42.2533 53.112 42.5413 53.752 43.032 54.2C43.5227 54.6267 44.1627 54.84 44.952 54.84C45.7627 54.84 46.4027 54.6587 46.872 54.296C47.3413 53.912 47.576 53.3893 47.576 52.728C47.576 52.1733 47.384 51.7147 47 51.352C46.6373 50.9893 46.1787 50.6907 45.624 50.456C45.0907 50.2213 44.3227 49.9547 43.32 49.656C41.8693 49.208 40.6853 48.76 39.768 48.312C38.8507 47.864 38.0613 47.2027 37.4 46.328C36.7387 45.4533 36.408 44.312 36.408 42.904C36.408 40.8133 37.1653 39.1813 38.68 38.008C40.1947 36.8133 42.168 36.216 44.6 36.216C47.0747 36.216 49.0693 36.8133 50.584 38.008C52.0987 39.1813 52.9093 40.824 53.016 42.936H47.096C47.0533 42.2107 46.7867 41.6453 46.296 41.24C45.8053 40.8133 45.176 40.6 44.408 40.6C43.7467 40.6 43.2133 40.7813 42.808 41.144C42.4027 41.4853 42.2 41.9867 42.2 42.648C42.2 43.3733 42.5413 43.9387 43.224 44.344C43.9067 44.7493 44.9733 45.1867 46.424 45.656C47.8747 46.1467 49.048 46.616 49.944 47.064C50.8613 47.512 51.6507 48.1627 52.312 49.016C52.9733 49.8693 53.304 50.968 53.304 52.312C53.304 53.592 52.9733 54.7547 52.312 55.8C51.672 56.8453 50.7333 57.6773 49.496 58.296C48.2587 58.9147 46.7973 59.224 45.112 59.224ZM67.5515 40.952C69.6422 40.952 71.3062 41.6347 72.5435 43C73.8022 44.344 74.4315 46.2 74.4315 48.568V59H68.9915V49.304C68.9915 48.1093 68.6822 47.1813 68.0635 46.52C67.4448 45.8587 66.6128 45.528 65.5675 45.528C64.5222 45.528 63.6902 45.8587 63.0715 46.52C62.4528 47.1813 62.1435 48.1093 62.1435 49.304V59H56.6715V41.144H62.1435V43.512C62.6982 42.7227 63.4448 42.104 64.3835 41.656C65.3222 41.1867 66.3782 40.952 67.5515 40.952ZM77.146 50.04C77.146 48.2053 77.4873 46.5947 78.17 45.208C78.874 43.8213 79.8233 42.7547 81.018 42.008C82.2127 41.2613 83.546 40.888 85.018 40.888C86.2767 40.888 87.3753 41.144 88.314 41.656C89.274 42.168 90.01 42.84 90.522 43.672V41.144H95.994V59H90.522V56.472C89.9887 57.304 89.242 57.976 88.282 58.488C87.3433 59 86.2447 59.256 84.986 59.256C83.5353 59.256 82.2127 58.8827 81.018 58.136C79.8233 57.368 78.874 56.2907 78.17 54.904C77.4873 53.496 77.146 51.8747 77.146 50.04ZM90.522 50.072C90.522 48.7067 90.138 47.6293 89.37 46.84C88.6233 46.0507 87.706 45.656 86.618 45.656C85.53 45.656 84.602 46.0507 83.834 46.84C83.0873 47.608 82.714 48.6747 82.714 50.04C82.714 51.4053 83.0873 52.4933 83.834 53.304C84.602 54.0933 85.53 54.488 86.618 54.488C87.706 54.488 88.6233 54.0933 89.37 53.304C90.138 52.5147 90.522 51.4373 90.522 50.072ZM98.8648 50.072C98.8648 48.216 99.2381 46.5947 99.9848 45.208C100.753 43.8213 101.809 42.7547 103.153 42.008C104.518 41.2613 106.075 40.888 107.825 40.888C110.065 40.888 111.931 41.4747 113.425 42.648C114.939 43.8213 115.931 45.4747 116.401 47.608H110.577C110.086 46.2427 109.137 45.56 107.729 45.56C106.726 45.56 105.926 45.9547 105.329 46.744C104.731 47.512 104.433 48.6213 104.433 50.072C104.433 51.5227 104.731 52.6427 105.329 53.432C105.926 54.2 106.726 54.584 107.729 54.584C109.137 54.584 110.086 53.9013 110.577 52.536H116.401C115.931 54.6267 114.939 56.2693 113.425 57.464C111.91 58.6587 110.043 59.256 107.825 59.256C106.075 59.256 104.518 58.8827 103.153 58.136C101.809 57.3893 100.753 56.3227 99.9848 54.936C99.2381 53.5493 98.8648 51.928 98.8648 50.072ZM130.24 59L124.8 51.512V59H119.328V35.32H124.8V48.408L130.208 41.144H136.96L129.536 50.104L137.024 59H130.24ZM146.373 59.256C144.816 59.256 143.429 58.9893 142.213 58.456C140.997 57.9227 140.037 57.1973 139.333 56.28C138.629 55.3413 138.234 54.296 138.149 53.144H143.557C143.621 53.7627 143.909 54.264 144.421 54.648C144.933 55.032 145.562 55.224 146.309 55.224C146.992 55.224 147.514 55.096 147.877 54.84C148.261 54.5627 148.453 54.2107 148.453 53.784C148.453 53.272 148.186 52.8987 147.653 52.664C147.12 52.408 146.256 52.1307 145.061 51.832C143.781 51.5333 142.714 51.224 141.861 50.904C141.008 50.5627 140.272 50.04 139.653 49.336C139.034 48.6107 138.725 47.64 138.725 46.424C138.725 45.4 139.002 44.472 139.557 43.64C140.133 42.7867 140.965 42.1147 142.053 41.624C143.162 41.1333 144.474 40.888 145.989 40.888C148.229 40.888 149.989 41.4427 151.269 42.552C152.57 43.6613 153.317 45.1333 153.509 46.968H148.453C148.368 46.3493 148.09 45.8587 147.621 45.496C147.173 45.1333 146.576 44.952 145.829 44.952C145.189 44.952 144.698 45.08 144.357 45.336C144.016 45.5707 143.845 45.9013 143.845 46.328C143.845 46.84 144.112 47.224 144.645 47.48C145.2 47.736 146.053 47.992 147.205 48.248C148.528 48.5893 149.605 48.9307 150.437 49.272C151.269 49.592 151.994 50.1253 152.613 50.872C153.253 51.5973 153.584 52.5787 153.605 53.816C153.605 54.8613 153.306 55.8 152.709 56.632C152.133 57.4427 151.29 58.0827 150.181 58.552C149.093 59.0213 147.824 59.256 146.373 59.256Z" fill="#3C8D8A"/>
<defs>
<filter id="filter0_d_0_1" x="156" y="64.6069" width="190.588" height="160.575" filterUnits="userSpaceOnUse" color-interpolation-filters="sRGB">
<feFlood flood-opacity="0" result="BackgroundImageFix"/>
<feColorMatrix in="SourceAlpha" type="matrix" values="0 0 0 0 0 0 0 0 0 0 0 0 0 0 0 0 0 0 127 0" result="hardAlpha"/>
<feOffset dy="4"/>
<feGaussianBlur stdDeviation="2"/>
<feComposite in2="hardAlpha" operator="out"/>
<feColorMatrix type="matrix" values="0 0 0 0 0.639149 0 0 0 0 0.829167 0 0 0 0 0.819666 0 0 0 1 0"/>
<feBlend mode="normal" in2="BackgroundImageFix" result="effect1_dropShadow_0_1"/>
<feBlend mode="normal" in="SourceGraphic" in2="effect1_dropShadow_0_1" result="shape"/>
</filter>
</defs>
</svg>
