<svg width="320" height="201" viewBox="0 0 320 201" fill="none" xmlns="http://www.w3.org/2000/svg">
<rect width="320" height="201" fill="#E5E5E5"/>
<rect width="1440" height="1024" transform="translate(-898 -378)" fill="white"/>
<mask id="mask0_0_1" style="mask-type:alpha" maskUnits="userSpaceOnUse" x="0" y="0" width="320" height="201">
<rect width="320" height="201" rx="40" fill="#F8D7FB"/>
</mask>
<g mask="url(#mask0_0_1)">
<rect width="320" height="201" rx="40" fill="#F8D7FB"/>
<g filter="url(#filter0_d_0_1)">
<path d="M334.695 158.368C329.408 188.586 295.661 208.735 247.523 208.735C199.385 208.735 165.644 188.586 160.361 158.368C159.113 151.24 161.15 119.235 165.689 113.037C178.625 95.3788 183.25 162.99 247.523 162.99C317.519 162.99 316.472 95.3837 329.408 113.037C333.947 119.235 335.939 151.24 334.695 158.368Z" fill="#FFAC33"/>
<path d="M247.526 73.7681C200.358 73.7681 162.123 95.8601 162.123 123.114C162.123 150.367 200.358 172.464 247.526 172.464C294.688 172.464 332.929 150.367 332.929 123.114C332.929 95.8601 294.688 73.7681 247.526 73.7681ZM247.526 138.222C231.482 138.222 218.47 134.839 218.47 130.666C218.47 126.492 231.482 123.114 247.526 123.114C263.565 123.114 276.576 126.492 276.576 130.666C276.581 134.839 263.57 138.222 247.526 138.222Z" fill="#8A4B38"/>
<path d="M164.764 115.349C161.463 120.385 160.113 141.826 167.185 151.865C177.972 167.191 183.255 159.417 191.181 161.73C202.984 165.176 203.859 174.068 213.19 178.516C223.755 183.552 229.901 182.087 244.884 178.516C266.019 173.48 279.445 183.76 292.426 178.516C303.076 174.213 309.168 158.578 315.102 156.694C333.947 150.708 337.925 122.361 323.903 110.732C319.505 119.546 297.931 151.234 284.065 152.708C270.194 154.178 228.592 157.528 210.986 148.93C193.375 140.327 175.551 129.624 173.347 126.684C171.143 123.739 164.764 115.349 164.764 115.349Z" fill="#8A4B38"/>
<path d="M247.526 111.778C228.559 111.778 213.188 117.696 213.188 124.998C213.188 127.836 215.528 130.458 219.481 132.612C218.844 131.991 218.47 131.34 218.47 130.665C218.47 126.492 231.481 123.113 247.526 123.113C263.565 123.113 276.576 126.492 276.576 130.665C276.576 131.34 276.207 131.986 275.565 132.612C279.518 130.458 281.864 127.836 281.864 124.998C281.869 117.696 266.492 111.778 247.526 111.778Z" fill="#F4900C"/>
<path d="M178.411 132.348C176.515 132.348 174.685 131.37 173.735 129.664C172.37 127.206 173.356 124.155 175.939 122.859L187.606 116.979C190.178 115.668 193.378 116.618 194.743 119.08C196.108 121.538 195.122 124.589 192.539 125.885L180.872 131.765C180.084 132.16 179.24 132.348 178.411 132.348ZM238.498 169.91C236.426 169.91 234.46 168.744 233.615 166.797L229.875 158.19C228.758 155.621 230.036 152.676 232.731 151.611C235.43 150.551 238.514 151.765 239.631 154.339L243.371 162.946C244.488 165.515 243.21 168.464 240.51 169.525C239.858 169.79 239.171 169.91 238.498 169.91Z" fill="#F4ABBA"/>
<path d="M298.374 149.764C297.459 149.764 296.534 149.537 295.695 149.06C293.183 147.648 292.349 144.554 293.835 142.164L299.557 132.93C301.038 130.539 304.298 129.744 306.79 131.156C309.303 132.573 310.137 135.662 308.651 138.057L302.928 147.287C301.943 148.877 300.184 149.764 298.374 149.764Z" fill="#55ACEE"/>
<path d="M307.176 112.348C304.345 112.348 302.005 110.029 301.904 107.306C301.797 104.53 304.082 102.106 306.994 102.005L313.151 101.755C316.118 101.721 318.519 103.808 318.615 106.588C318.721 109.369 316.436 111.87 313.525 111.967L307.368 112.348H307.176ZM256.116 92.4724C253.872 92.4724 251.794 91.0989 251.076 88.9543C250.197 86.3036 251.739 83.4746 254.519 82.6312L258.694 81.3734C261.505 80.5348 264.447 82.0047 265.326 84.6602C266.211 87.3108 264.664 90.1398 261.884 90.9832L257.708 92.2411C257.178 92.4001 256.642 92.4724 256.116 92.4724Z" fill="#F4ABBA"/>
<path d="M226.834 100.656C226.04 100.656 225.237 100.483 224.478 100.126L220.515 98.2371C217.907 96.9937 216.845 93.9671 218.15 91.4803C219.454 88.9935 222.628 87.9815 225.237 89.2249L229.2 91.1141C231.808 92.3575 232.869 95.384 231.565 97.8708C230.635 99.6347 228.77 100.656 226.834 100.656ZM272.844 164.658C272.055 164.658 271.251 164.489 270.493 164.132L266.53 162.248C263.917 161.005 262.855 157.983 264.154 155.496C265.453 153.004 268.623 151.992 271.236 153.231L275.199 155.115C277.813 156.359 278.874 159.381 277.575 161.867C276.655 163.636 274.78 164.658 272.844 164.658Z" fill="#88C9F9"/>
<path d="M203.709 153.543C203.012 153.543 202.309 153.418 201.627 153.134C198.948 152.035 197.704 149.076 198.857 146.521L200.838 142.116C201.991 139.567 205.099 138.362 207.778 139.475C210.458 140.569 211.701 143.533 210.549 146.088L208.567 150.493C207.708 152.396 205.762 153.543 203.709 153.543ZM282.525 105.904C280.488 105.904 278.547 104.776 277.683 102.882C276.51 100.332 277.733 97.3637 280.402 96.2504L283.921 94.7805C286.6 93.6624 289.714 94.8287 290.876 97.3733C292.044 99.9228 290.826 102.892 288.157 104.01L284.638 105.48C283.946 105.769 283.228 105.904 282.525 105.904ZM196.678 105.696C196.284 105.696 195.884 105.653 195.49 105.566L192.629 104.94C189.788 104.313 188.009 101.61 188.666 98.9011C189.318 96.1878 192.159 94.501 195 95.1227L197.861 95.7492C200.702 96.3757 202.481 99.0794 201.824 101.788C201.258 104.116 199.079 105.696 196.678 105.696Z" fill="#55ACEE"/>
</g>
</g>
<path d="M47.112 60.224C45.4693 60.224 43.9973 59.9573 42.696 59.424C41.3947 58.8907 40.3493 58.1013 39.56 57.056C38.792 56.0107 38.3867 54.752 38.344 53.28H44.168C44.2533 54.112 44.5413 54.752 45.032 55.2C45.5227 55.6267 46.1627 55.84 46.952 55.84C47.7627 55.84 48.4027 55.6587 48.872 55.296C49.3413 54.912 49.576 54.3893 49.576 53.728C49.576 53.1733 49.384 52.7147 49 52.352C48.6373 51.9893 48.1787 51.6907 47.624 51.456C47.0907 51.2213 46.3227 50.9547 45.32 50.656C43.8693 50.208 42.6853 49.76 41.768 49.312C40.8507 48.864 40.0613 48.2027 39.4 47.328C38.7387 46.4533 38.408 45.312 38.408 43.904C38.408 41.8133 39.1653 40.1813 40.68 39.008C42.1947 37.8133 44.168 37.216 46.6 37.216C49.0747 37.216 51.0693 37.8133 52.584 39.008C54.0987 40.1813 54.9093 41.824 55.016 43.936H49.096C49.0533 43.2107 48.7867 42.6453 48.296 42.24C47.8053 41.8133 47.176 41.6 46.408 41.6C45.7467 41.6 45.2133 41.7813 44.808 42.144C44.4027 42.4853 44.2 42.9867 44.2 43.648C44.2 44.3733 44.5413 44.9387 45.224 45.344C45.9067 45.7493 46.9733 46.1867 48.424 46.656C49.8747 47.1467 51.048 47.616 51.944 48.064C52.8613 48.512 53.6507 49.1627 54.312 50.016C54.9733 50.8693 55.304 51.968 55.304 53.312C55.304 54.592 54.9733 55.7547 54.312 56.8C53.672 57.8453 52.7333 58.6773 51.496 59.296C50.2587 59.9147 48.7973 60.224 47.112 60.224ZM84.3035 42.144L79.4715 60H73.4235L70.6075 48.416L67.6955 60H61.6795L56.8155 42.144H62.2875L64.8155 54.912L67.8235 42.144H73.6155L76.6555 54.848L79.1515 42.144H84.3035ZM103.222 50.784C103.222 51.296 103.19 51.8293 103.126 52.384H90.7423C90.8276 53.4933 91.1796 54.3467 91.7983 54.944C92.4383 55.52 93.2169 55.808 94.1343 55.808C95.4996 55.808 96.4489 55.232 96.9823 54.08H102.806C102.508 55.2533 101.964 56.3093 101.174 57.248C100.406 58.1867 99.4356 58.9227 98.2623 59.456C97.0889 59.9893 95.7769 60.256 94.3263 60.256C92.5769 60.256 91.0196 59.8827 89.6543 59.136C88.2889 58.3893 87.2223 57.3227 86.4543 55.936C85.6863 54.5493 85.3023 52.928 85.3023 51.072C85.3023 49.216 85.6756 47.5947 86.4223 46.208C87.1903 44.8213 88.2569 43.7547 89.6223 43.008C90.9876 42.2613 92.5556 41.888 94.3263 41.888C96.0543 41.888 97.5903 42.2507 98.9343 42.976C100.278 43.7013 101.324 44.736 102.07 46.08C102.838 47.424 103.222 48.992 103.222 50.784ZM97.6223 49.344C97.6223 48.4053 97.3023 47.6587 96.6623 47.104C96.0223 46.5493 95.2223 46.272 94.2623 46.272C93.3449 46.272 92.5663 46.5387 91.9263 47.072C91.3076 47.6053 90.9236 48.3627 90.7743 49.344H97.6223ZM122.941 50.784C122.941 51.296 122.909 51.8293 122.845 52.384H110.461C110.546 53.4933 110.898 54.3467 111.517 54.944C112.157 55.52 112.936 55.808 113.853 55.808C115.218 55.808 116.168 55.232 116.701 54.08H122.525C122.226 55.2533 121.682 56.3093 120.893 57.248C120.125 58.1867 119.154 58.9227 117.981 59.456C116.808 59.9893 115.496 60.256 114.045 60.256C112.296 60.256 110.738 59.8827 109.373 59.136C108.008 58.3893 106.941 57.3227 106.173 55.936C105.405 54.5493 105.021 52.928 105.021 51.072C105.021 49.216 105.394 47.5947 106.141 46.208C106.909 44.8213 107.976 43.7547 109.341 43.008C110.706 42.2613 112.274 41.888 114.045 41.888C115.773 41.888 117.309 42.2507 118.653 42.976C119.997 43.7013 121.042 44.736 121.789 46.08C122.557 47.424 122.941 48.992 122.941 50.784ZM117.341 49.344C117.341 48.4053 117.021 47.6587 116.381 47.104C115.741 46.5493 114.941 46.272 113.981 46.272C113.064 46.272 112.285 46.5387 111.645 47.072C111.026 47.6053 110.642 48.3627 110.493 49.344H117.341ZM135.78 55.36V60H132.996C131.012 60 129.465 59.52 128.356 58.56C127.246 57.5787 126.692 55.9893 126.692 53.792V46.688H124.516V42.144H126.692V37.792H132.164V42.144H135.748V46.688H132.164V53.856C132.164 54.3893 132.292 54.7733 132.548 55.008C132.804 55.2427 133.23 55.36 133.828 55.36H135.78ZM146.092 60.256C144.534 60.256 143.148 59.9893 141.932 59.456C140.716 58.9227 139.756 58.1973 139.052 57.28C138.348 56.3413 137.953 55.296 137.868 54.144H143.276C143.34 54.7627 143.628 55.264 144.14 55.648C144.652 56.032 145.281 56.224 146.028 56.224C146.71 56.224 147.233 56.096 147.596 55.84C147.98 55.5627 148.172 55.2107 148.172 54.784C148.172 54.272 147.905 53.8987 147.372 53.664C146.838 53.408 145.974 53.1307 144.78 52.832C143.5 52.5333 142.433 52.224 141.58 51.904C140.726 51.5627 139.99 51.04 139.372 50.336C138.753 49.6107 138.444 48.64 138.444 47.424C138.444 46.4 138.721 45.472 139.276 44.64C139.852 43.7867 140.684 43.1147 141.772 42.624C142.881 42.1333 144.193 41.888 145.708 41.888C147.948 41.888 149.708 42.4427 150.988 43.552C152.289 44.6613 153.036 46.1333 153.228 47.968H148.172C148.086 47.3493 147.809 46.8587 147.34 46.496C146.892 46.1333 146.294 45.952 145.548 45.952C144.908 45.952 144.417 46.08 144.076 46.336C143.734 46.5707 143.564 46.9013 143.564 47.328C143.564 47.84 143.83 48.224 144.364 48.48C144.918 48.736 145.772 48.992 146.924 49.248C148.246 49.5893 149.324 49.9307 150.156 50.272C150.988 50.592 151.713 51.1253 152.332 51.872C152.972 52.5973 153.302 53.5787 153.324 54.816C153.324 55.8613 153.025 56.8 152.428 57.632C151.852 58.4427 151.009 59.0827 149.9 59.552C148.812 60.0213 147.542 60.256 146.092 60.256Z" fill="#AC23B9"/>
<defs>
<filter id="filter0_d_0_1" x="156" y="73.7681" width="183.059" height="142.967" filterUnits="userSpaceOnUse" color-interpolation-filters="sRGB">
<feFlood flood-opacity="0" result="BackgroundImageFix"/>
<feColorMatrix in="SourceAlpha" type="matrix" values="0 0 0 0 0 0 0 0 0 0 0 0 0 0 0 0 0 0 127 0" result="hardAlpha"/>
<feOffset dy="4"/>
<feGaussianBlur stdDeviation="2"/>
<feComposite in2="hardAlpha" operator="out"/>
<feColorMatrix type="matrix" values="0 0 0 0 0.541176 0 0 0 0 0.294118 0 0 0 0 0.219608 0 0 0 0.33 0"/>
<feBlend mode="normal" in2="BackgroundImageFix" result="effect1_dropShadow_0_1"/>
<feBlend mode="normal" in="SourceGraphic" in2="effect1_dropShadow_0_1" result="shape"/>
</filter>
</defs>
</svg>
