<svg width="340" height="107" viewBox="0 0 340 107" fill="none" xmlns="http://www.w3.org/2000/svg">
<mask id="mask0_4183_12296" style="mask-type:alpha" maskUnits="userSpaceOnUse" x="0" y="0" width="340" height="107">
<rect width="339.425" height="106.189" rx="25" fill="#DFF1D4"/>
</mask>
<g mask="url(#mask0_4183_12296)">
<rect width="339.425" height="106.189" rx="25" fill="#DFF1D4"/>
<g filter="url(#filter0_d_4183_12296)">
<path d="M304.868 71.3086C296.086 58.5725 277.93 77.316 244.796 81.1256C232.528 82.5343 221.475 92.734 207.224 91.7621C201.381 91.3625 193.221 74.6238 187.113 77.2923C183.97 78.6671 182.528 83.2556 185.759 86.7029L221.634 129.323C221.634 129.323 223.457 131.416 229.6 129.967C231.113 130.411 253.867 121.332 267.023 103.157C270.172 98.8057 273.927 95.1823 277.815 92.1549C290.437 82.8628 304.157 79.6255 304.157 79.6255C305.912 78.1829 306.323 76.6489 306.228 75.318C306.344 73.0966 304.868 71.3086 304.868 71.3086Z" fill="#5C913B"/>
<path d="M222.81 50.9699C209.943 68.7482 187.411 77.17 187.411 77.17C183.207 80.7155 186.758 84.8943 186.758 84.8943L222.259 126.746C222.259 126.746 224.034 128.836 230.014 127.386C230.014 127.386 252.546 118.981 265.409 101.203C278.671 82.8828 302.584 77.0989 302.584 77.0989C306.785 73.5534 303.237 69.3679 303.237 69.3679L267.736 27.5228C267.736 27.5228 265.96 25.43 259.981 26.8726C259.981 26.8726 236.071 32.6429 222.81 50.9699Z" fill="#A7D28B"/>
<path d="M258.605 82.2117C268.937 82.2117 277.312 73.8731 277.312 63.5868C277.312 53.3006 268.937 44.9619 258.605 44.9619C248.274 44.9619 239.899 53.3006 239.899 63.5868C239.899 73.8731 248.274 82.2117 258.605 82.2117Z" fill="#77B255"/>
<path d="M227.565 124.301C224.568 124.301 223.47 123.19 223.32 123.021L191.319 85.8285C191.257 85.7574 189.635 83.9085 189.832 81.5583C189.951 80.1327 190.693 78.8628 192.033 77.7826L192.247 77.6539C192.455 77.5726 213.208 69.0796 224.84 53.7293L225.521 54.2373L224.84 53.7293C237.146 37.4884 258.373 30.5193 258.583 30.4516C264.518 29.0767 266.46 31.0408 266.668 31.2711L298.248 68.6699C298.306 68.7309 299.924 70.5866 299.727 72.9401C299.608 74.3623 298.867 75.6322 297.527 76.7125L297.19 76.8784C296.982 76.9292 276.344 82.0358 264.389 97.8094C252.488 113.522 231.714 123.688 231.507 123.786C229.929 124.159 228.629 124.301 227.565 124.301ZM224.602 121.907C224.606 121.907 226.14 123.315 230.946 122.205C230.973 122.167 251.383 112.174 263.039 96.7935C274.729 81.3687 294.415 75.8591 296.598 75.2868C297.472 74.5384 297.955 73.7088 298.033 72.8182C298.176 71.1927 296.972 69.7942 296.962 69.7806L265.382 32.3784C265.376 32.3784 263.852 30.9731 259.043 32.0838C258.903 32.1312 238.176 38.9445 226.201 54.7486C214.753 69.8551 194.778 78.4361 193.012 79.1743C192.101 79.9363 191.604 80.7862 191.526 81.6972C191.39 83.3091 192.587 84.7009 192.597 84.7144L224.602 121.907Z" fill="#5C913B"/>
<path d="M256.145 91.24L256.124 111.355L257.815 113.353C261.11 110.359 264.277 106.993 267.015 103.207C269.855 99.286 273.154 95.9301 276.633 93.0957L274.991 91.1486L256.145 91.24Z" fill="#FFAC33"/>
<path d="M274.924 91.0777L232.389 40.9158C228.933 43.7468 225.614 47.0484 222.791 50.9529C220.033 54.7659 216.822 58.1218 213.489 61.0815L218.461 66.9432L218.458 66.9466L256.126 111.355C259.459 108.392 262.632 105.002 265.394 101.186C268.217 97.2849 271.533 93.9866 274.985 91.1556L274.921 91.0777H274.924Z" fill="#FFE8B6"/>
<path d="M233.025 92.5568C227.729 86.3123 216.519 96.4443 213.322 92.6753C211.774 90.85 212.771 88.483 214.805 86.7763C218.223 83.8979 220.689 85.5741 222.236 84.2704C223.335 83.3493 223.277 82.2216 222.624 81.4462C221.107 79.6616 217.23 80.5928 214.216 82.3266L212.751 80.5996C211.836 79.5227 210.217 79.3839 209.135 80.2948C208.054 81.2091 207.918 82.8142 208.832 83.8911L210.349 85.6825C208.047 88.7234 207.264 92.7599 209.989 95.9668C215.077 101.961 226.427 91.998 229.998 96.2106C231.236 97.6735 230.889 100.464 228.284 102.651C224.379 105.94 220.842 104.399 219.254 105.733C218.478 106.38 218.339 107.612 219.165 108.591C220.481 110.139 224.675 109.807 228.705 107.308C228.712 107.314 228.712 107.321 228.712 107.328L230.369 109.279C231.283 110.355 232.906 110.487 233.987 109.583C235.072 108.669 235.205 107.057 234.29 105.98L232.634 104.03C232.617 104.009 232.59 103.996 232.569 103.976C235.287 100.664 236.205 96.2987 233.025 92.5568Z" fill="#5C913B"/>
<path d="M294.168 126.533C294.198 126.506 294.232 126.485 294.263 126.462C294.494 126.231 294.675 125.967 294.879 125.713C295.022 125.537 295.181 125.368 295.314 125.188C295.433 125.019 295.532 124.846 295.641 124.674C300.47 117.268 297.307 104.711 287.746 95.1886C278.182 85.6662 265.567 82.5169 258.133 87.3289C257.956 87.4339 257.782 87.5321 257.612 87.654C257.432 87.786 257.258 87.9452 257.088 88.084C256.837 88.2906 256.571 88.4667 256.337 88.7003C256.306 88.7308 256.286 88.7647 256.262 88.7952C256.224 88.8324 256.18 88.8561 256.139 88.8968L256.16 88.9137C252.759 92.51 252.718 98.0738 256.139 101.484C259.568 104.897 265.153 104.85 268.768 101.463L268.805 101.504C268.734 101.572 268.656 101.616 268.588 101.684C264.986 105.27 264.901 110.989 268.387 114.467C271.877 117.938 277.628 117.853 281.226 114.267C281.294 114.2 281.339 114.122 281.407 114.051L281.444 114.091C278.043 117.687 277.999 123.251 281.427 126.665C284.852 130.071 290.437 130.031 294.049 126.644L294.069 126.665C294.103 126.617 294.13 126.573 294.168 126.533Z" fill="#E1E8ED"/>
<path d="M256.143 101.619C259.224 104.684 264.037 104.935 267.605 102.503C269.098 99.9635 269.526 97.5491 269.526 96.7939C262.02 102.368 255.32 96.8244 253.82 93.5092C253.197 96.374 253.953 99.4353 256.143 101.619ZM280.968 114.623C281.982 113.204 282.767 111.833 283.134 110.905C278.356 115.266 269.22 112.073 266.452 105.155C265.234 108.372 265.857 112.076 268.394 114.603C271.802 117.996 277.353 117.969 280.968 114.623ZM294.076 126.797L294.175 126.675C294.209 126.648 294.243 126.628 294.27 126.601C294.505 126.37 294.685 126.106 294.886 125.856C295.032 125.676 295.188 125.51 295.321 125.327C295.443 125.161 295.542 124.985 295.651 124.813C295.872 124.474 295.991 124.074 296.178 123.715C287.58 127.545 281.162 121.047 279.363 117.806C278.359 120.911 279.012 124.389 281.434 126.804C284.855 130.214 290.44 130.173 294.056 126.783L294.076 126.797Z" fill="#CCD6DD"/>
<path d="M231.247 58.5009L231.342 58.4264C231.577 58.1962 231.757 57.932 231.958 57.6814C232.101 57.5053 232.257 57.3394 232.39 57.1565C232.512 56.9872 232.611 56.8145 232.72 56.6418C237.549 49.2359 234.383 36.6759 224.822 27.1569C215.258 17.6345 202.647 14.4818 195.208 19.2904C195.035 19.3988 194.858 19.497 194.688 19.6189C194.504 19.751 194.338 19.9067 194.161 20.049C193.909 20.2521 193.644 20.4282 193.412 20.6619C193.382 20.6924 193.361 20.7296 193.338 20.7567C193.3 20.7906 193.253 20.821 193.215 20.8583L193.232 20.8752C189.831 24.4715 189.79 30.0353 193.215 33.4453C196.64 36.8554 202.228 36.8148 205.84 33.4284L205.878 33.4657C205.806 33.53 205.728 33.5774 205.66 33.6451C202.058 37.2313 201.973 42.9508 205.463 46.4286C208.952 49.9064 214.7 49.8183 218.302 46.2322C218.37 46.1645 218.414 46.0866 218.482 46.0155L218.52 46.0527C215.119 49.649 215.074 55.2128 218.503 58.6228C221.928 62.0329 227.512 61.9923 231.125 58.6025L231.142 58.6228C231.179 58.5856 231.21 58.5416 231.247 58.5009Z" fill="#E1E8ED"/>
<path d="M193.208 33.4496C196.29 36.5176 201.102 36.7682 204.67 34.33C206.163 31.7903 206.588 29.3792 206.588 28.624C199.085 34.1946 192.382 28.6478 190.885 25.3325C190.263 28.2008 191.018 31.2654 193.208 33.4496ZM218.04 46.4464C219.05 45.0275 219.836 43.6628 220.2 42.735C215.418 47.0966 206.282 43.8999 203.517 36.9816C202.299 40.1986 202.922 43.9032 205.456 46.4295C208.87 49.826 214.425 49.7955 218.04 46.4464ZM231.138 58.6271C231.175 58.5898 231.206 58.5458 231.24 58.5052L231.335 58.4307C231.57 58.2004 231.75 57.9363 231.951 57.6857C232.094 57.5096 232.25 57.3437 232.383 57.1608C232.505 56.9915 232.604 56.8188 232.713 56.6461C232.934 56.3074 233.053 55.9045 233.24 55.5455C224.642 59.3755 218.224 52.8805 216.424 49.6397C215.421 52.745 216.074 56.2228 218.496 58.6339C221.921 62.0439 227.505 62.0033 231.117 58.6135L231.138 58.6271Z" fill="#CCD6DD"/>
</g>
<path d="M64.2298 22.6176V26.4536H59.0218V42.2736H54.2338V26.4536H49.0258V22.6176H64.2298ZM73.7447 42.4976C72.2141 42.4976 70.8327 42.1709 69.6007 41.5176C68.3874 40.8642 67.4261 39.9309 66.7167 38.7176C66.0261 37.5042 65.6807 36.0856 65.6807 34.4616C65.6807 32.8562 66.0354 31.4469 66.7447 30.2336C67.4541 29.0016 68.4247 28.0589 69.6567 27.4056C70.8887 26.7522 72.2701 26.4256 73.8007 26.4256C75.3314 26.4256 76.7127 26.7522 77.9447 27.4056C79.1767 28.0589 80.1474 29.0016 80.8567 30.2336C81.5661 31.4469 81.9207 32.8562 81.9207 34.4616C81.9207 36.0669 81.5567 37.4856 80.8287 38.7176C80.1194 39.9309 79.1394 40.8642 77.8887 41.5176C76.6567 42.1709 75.2754 42.4976 73.7447 42.4976ZM73.7447 38.3536C74.6594 38.3536 75.4341 38.0176 76.0687 37.3456C76.7221 36.6736 77.0487 35.7122 77.0487 34.4616C77.0487 33.2109 76.7314 32.2496 76.0967 31.5776C75.4807 30.9056 74.7154 30.5696 73.8007 30.5696C72.8674 30.5696 72.0927 30.9056 71.4767 31.5776C70.8607 32.2309 70.5527 33.1922 70.5527 34.4616C70.5527 35.7122 70.8514 36.6736 71.4487 37.3456C72.0647 38.0176 72.8301 38.3536 73.7447 38.3536ZM83.5089 34.4336C83.5089 32.8282 83.8075 31.4189 84.4049 30.2056C85.0209 28.9922 85.8515 28.0589 86.8969 27.4056C87.9422 26.7522 89.1089 26.4256 90.3969 26.4256C91.4235 26.4256 92.3569 26.6402 93.1969 27.0696C94.0555 27.4989 94.7275 28.0776 95.2129 28.8056V21.5536H100.001V42.2736H95.2129V40.0336C94.7649 40.7802 94.1209 41.3776 93.2809 41.8256C92.4595 42.2736 91.4982 42.4976 90.3969 42.4976C89.1089 42.4976 87.9422 42.1709 86.8969 41.5176C85.8515 40.8456 85.0209 39.9029 84.4049 38.6896C83.8075 37.4576 83.5089 36.0389 83.5089 34.4336ZM95.2129 34.4616C95.2129 33.2669 94.8769 32.3242 94.2049 31.6336C93.5515 30.9429 92.7489 30.5976 91.7969 30.5976C90.8449 30.5976 90.0329 30.9429 89.3609 31.6336C88.7075 32.3056 88.3809 33.2389 88.3809 34.4336C88.3809 35.6282 88.7075 36.5802 89.3609 37.2896C90.0329 37.9802 90.8449 38.3256 91.7969 38.3256C92.7489 38.3256 93.5515 37.9802 94.2049 37.2896C94.8769 36.5989 95.2129 35.6562 95.2129 34.4616ZM102.513 34.4336C102.513 32.8282 102.811 31.4189 103.409 30.2056C104.025 28.9922 104.855 28.0589 105.901 27.4056C106.946 26.7522 108.113 26.4256 109.401 26.4256C110.502 26.4256 111.463 26.6496 112.285 27.0976C113.125 27.5456 113.769 28.1336 114.217 28.8616V26.6496H119.005V42.2736H114.217V40.0616C113.75 40.7896 113.097 41.3776 112.257 41.8256C111.435 42.2736 110.474 42.4976 109.373 42.4976C108.103 42.4976 106.946 42.1709 105.901 41.5176C104.855 40.8456 104.025 39.9029 103.409 38.6896C102.811 37.4576 102.513 36.0389 102.513 34.4336ZM114.217 34.4616C114.217 33.2669 113.881 32.3242 113.209 31.6336C112.555 30.9429 111.753 30.5976 110.801 30.5976C109.849 30.5976 109.037 30.9429 108.365 31.6336C107.711 32.3056 107.385 33.2389 107.385 34.4336C107.385 35.6282 107.711 36.5802 108.365 37.2896C109.037 37.9802 109.849 38.3256 110.801 38.3256C111.753 38.3256 112.555 37.9802 113.209 37.2896C113.881 36.5989 114.217 35.6562 114.217 34.4616ZM138.429 26.6496L128.629 49.6936H123.477L127.061 41.7416L120.705 26.6496H126.053L129.665 36.4216L133.249 26.6496H138.429ZM141.252 22.6176H146.152L143.016 30.1216H139.796L141.252 22.6176ZM155.321 42.4976C153.958 42.4976 152.745 42.2642 151.681 41.7976C150.617 41.3309 149.777 40.6962 149.161 39.8936C148.545 39.0722 148.199 38.1576 148.125 37.1496H152.857C152.913 37.6909 153.165 38.1296 153.613 38.4656C154.061 38.8016 154.611 38.9696 155.265 38.9696C155.862 38.9696 156.319 38.8576 156.637 38.6336C156.973 38.3909 157.141 38.0829 157.141 37.7096C157.141 37.2616 156.907 36.9349 156.441 36.7296C155.974 36.5056 155.218 36.2629 154.173 36.0016C153.053 35.7402 152.119 35.4696 151.373 35.1896C150.626 34.8909 149.982 34.4336 149.441 33.8176C148.899 33.1829 148.629 32.3336 148.629 31.2696C148.629 30.3736 148.871 29.5616 149.357 28.8336C149.861 28.0869 150.589 27.4989 151.541 27.0696C152.511 26.6402 153.659 26.4256 154.985 26.4256C156.945 26.4256 158.485 26.9109 159.605 27.8816C160.743 28.8522 161.397 30.1402 161.565 31.7456H157.141C157.066 31.2042 156.823 30.7749 156.413 30.4576C156.021 30.1402 155.498 29.9816 154.845 29.9816C154.285 29.9816 153.855 30.0936 153.557 30.3176C153.258 30.5229 153.109 30.8122 153.109 31.1856C153.109 31.6336 153.342 31.9696 153.809 32.1936C154.294 32.4176 155.041 32.6416 156.049 32.8656C157.206 33.1642 158.149 33.4629 158.877 33.7616C159.605 34.0416 160.239 34.5082 160.781 35.1616C161.341 35.7962 161.63 36.6549 161.649 37.7376C161.649 38.6522 161.387 39.4736 160.865 40.2016C160.361 40.9109 159.623 41.4709 158.653 41.8816C157.701 42.2922 156.59 42.4976 155.321 42.4976ZM57.2018 84.4696C55.7644 84.4696 54.4764 84.2362 53.3378 83.7696C52.1991 83.3029 51.2844 82.6122 50.5938 81.6976C49.9218 80.7829 49.5671 79.6816 49.5298 78.3936H54.6258C54.7004 79.1216 54.9524 79.6816 55.3818 80.0736C55.8111 80.4469 56.3711 80.6336 57.0618 80.6336C57.7711 80.6336 58.3311 80.4749 58.7418 80.1576C59.1524 79.8216 59.3578 79.3642 59.3578 78.7856C59.3578 78.3002 59.1898 77.8989 58.8538 77.5816C58.5364 77.2642 58.1351 77.0029 57.6498 76.7976C57.1831 76.5922 56.5111 76.3589 55.6338 76.0976C54.3644 75.7056 53.3284 75.3136 52.5258 74.9216C51.7231 74.5296 51.0324 73.9509 50.4538 73.1856C49.8751 72.4202 49.5858 71.4216 49.5858 70.1896C49.5858 68.3602 50.2484 66.9322 51.5738 65.9056C52.8991 64.8602 54.6258 64.3376 56.7538 64.3376C58.9191 64.3376 60.6644 64.8602 61.9898 65.9056C63.3151 66.9322 64.0244 68.3696 64.1178 70.2176H58.9378C58.9004 69.5829 58.6671 69.0882 58.2378 68.7336C57.8084 68.3602 57.2578 68.1736 56.5858 68.1736C56.0071 68.1736 55.5404 68.3322 55.1858 68.6496C54.8311 68.9482 54.6538 69.3869 54.6538 69.9656C54.6538 70.6002 54.9524 71.0949 55.5498 71.4496C56.1471 71.8042 57.0804 72.1869 58.3498 72.5976C59.6191 73.0269 60.6458 73.4376 61.4298 73.8296C62.2324 74.2216 62.9231 74.7909 63.5018 75.5376C64.0804 76.2842 64.3698 77.2456 64.3698 78.4216C64.3698 79.5416 64.0804 80.5589 63.5018 81.4736C62.9418 82.3882 62.1204 83.1162 61.0378 83.6576C59.9551 84.1989 58.6764 84.4696 57.2018 84.4696ZM72.1043 70.8616C72.571 70.1336 73.215 69.5456 74.0363 69.0976C74.8577 68.6496 75.819 68.4256 76.9203 68.4256C78.2083 68.4256 79.375 68.7522 80.4203 69.4056C81.4657 70.0589 82.287 70.9922 82.8843 72.2056C83.5003 73.4189 83.8083 74.8282 83.8083 76.4336C83.8083 78.0389 83.5003 79.4576 82.8843 80.6896C82.287 81.9029 81.4657 82.8456 80.4203 83.5176C79.375 84.1709 78.2083 84.4976 76.9203 84.4976C75.8377 84.4976 74.8763 84.2736 74.0363 83.8256C73.215 83.3776 72.571 82.7989 72.1043 82.0896V91.7216H67.3163V68.6496H72.1043V70.8616ZM78.9363 76.4336C78.9363 75.2389 78.6003 74.3056 77.9283 73.6336C77.275 72.9429 76.463 72.5976 75.4923 72.5976C74.5403 72.5976 73.7283 72.9429 73.0563 73.6336C72.403 74.3242 72.0763 75.2669 72.0763 76.4616C72.0763 77.6562 72.403 78.5989 73.0563 79.2896C73.7283 79.9802 74.5403 80.3256 75.4923 80.3256C76.4443 80.3256 77.2563 79.9802 77.9283 79.2896C78.6003 78.5802 78.9363 77.6282 78.9363 76.4336ZM101.048 76.2096C101.048 76.6576 101.02 77.1242 100.964 77.6096H90.1282C90.2029 78.5802 90.5109 79.3269 91.0522 79.8496C91.6122 80.3536 92.2936 80.6056 93.0962 80.6056C94.2909 80.6056 95.1216 80.1016 95.5882 79.0936H100.684C100.423 80.1202 99.9469 81.0442 99.2562 81.8656C98.5842 82.6869 97.7349 83.3309 96.7082 83.7976C95.6816 84.2642 94.5336 84.4976 93.2642 84.4976C91.7336 84.4976 90.3709 84.1709 89.1762 83.5176C87.9816 82.8642 87.0482 81.9309 86.3762 80.7176C85.7042 79.5042 85.3682 78.0856 85.3682 76.4616C85.3682 74.8376 85.6949 73.4189 86.3482 72.2056C87.0202 70.9922 87.9536 70.0589 89.1482 69.4056C90.3429 68.7522 91.7149 68.4256 93.2642 68.4256C94.7762 68.4256 96.1202 68.7429 97.2962 69.3776C98.4722 70.0122 99.3869 70.9176 100.04 72.0936C100.712 73.2696 101.048 74.6416 101.048 76.2096ZM96.1482 74.9496C96.1482 74.1282 95.8682 73.4749 95.3082 72.9896C94.7482 72.5042 94.0482 72.2616 93.2082 72.2616C92.4056 72.2616 91.7242 72.4949 91.1642 72.9616C90.6229 73.4282 90.2869 74.0909 90.1562 74.9496H96.1482ZM102.622 76.4616C102.622 74.8376 102.949 73.4189 103.602 72.2056C104.274 70.9922 105.198 70.0589 106.374 69.4056C107.569 68.7522 108.931 68.4256 110.462 68.4256C112.422 68.4256 114.055 68.9389 115.362 69.9656C116.687 70.9922 117.555 72.4389 117.966 74.3056H112.87C112.441 73.1109 111.61 72.5136 110.378 72.5136C109.501 72.5136 108.801 72.8589 108.278 73.5496C107.755 74.2216 107.494 75.1922 107.494 76.4616C107.494 77.7309 107.755 78.7109 108.278 79.4016C108.801 80.0736 109.501 80.4096 110.378 80.4096C111.61 80.4096 112.441 79.8122 112.87 78.6176H117.966C117.555 80.4469 116.687 81.8842 115.362 82.9296C114.037 83.9749 112.403 84.4976 110.462 84.4976C108.931 84.4976 107.569 84.1709 106.374 83.5176C105.198 82.8642 104.274 81.9309 103.602 80.7176C102.949 79.5042 102.622 78.0856 102.622 76.4616ZM122.935 67.0256C122.095 67.0256 121.405 66.7829 120.863 66.2976C120.341 65.7936 120.079 65.1776 120.079 64.4496C120.079 63.7029 120.341 63.0869 120.863 62.6016C121.405 62.0976 122.095 61.8456 122.935 61.8456C123.757 61.8456 124.429 62.0976 124.951 62.6016C125.493 63.0869 125.763 63.7029 125.763 64.4496C125.763 65.1776 125.493 65.7936 124.951 66.2976C124.429 66.7829 123.757 67.0256 122.935 67.0256ZM125.315 68.6496V84.2736H120.527V68.6496H125.315ZM127.833 76.4336C127.833 74.8282 128.132 73.4189 128.729 72.2056C129.345 70.9922 130.176 70.0589 131.221 69.4056C132.266 68.7522 133.433 68.4256 134.721 68.4256C135.822 68.4256 136.784 68.6496 137.605 69.0976C138.445 69.5456 139.089 70.1336 139.537 70.8616V68.6496H144.325V84.2736H139.537V82.0616C139.07 82.7896 138.417 83.3776 137.577 83.8256C136.756 84.2736 135.794 84.4976 134.693 84.4976C133.424 84.4976 132.266 84.1709 131.221 83.5176C130.176 82.8456 129.345 81.9029 128.729 80.6896C128.132 79.4576 127.833 78.0389 127.833 76.4336ZM139.537 76.4616C139.537 75.2669 139.201 74.3242 138.529 73.6336C137.876 72.9429 137.073 72.5976 136.121 72.5976C135.169 72.5976 134.357 72.9429 133.685 73.6336C133.032 74.3056 132.705 75.2389 132.705 76.4336C132.705 77.6282 133.032 78.5802 133.685 79.2896C134.357 79.9802 135.169 80.3256 136.121 80.3256C137.073 80.3256 137.876 79.9802 138.529 79.2896C139.201 78.5989 139.537 77.6562 139.537 76.4616ZM152.577 63.5536V84.2736H147.789V63.5536H152.577Z" fill="#5C913B"/>
</g>
<defs>
<filter id="filter0_d_4183_12296" x="179.934" y="17.0662" width="130.307" height="121.412" filterUnits="userSpaceOnUse" color-interpolation-filters="sRGB">
<feFlood flood-opacity="0" result="BackgroundImageFix"/>
<feColorMatrix in="SourceAlpha" type="matrix" values="0 0 0 0 0 0 0 0 0 0 0 0 0 0 0 0 0 0 127 0" result="hardAlpha"/>
<feOffset dy="4"/>
<feGaussianBlur stdDeviation="2"/>
<feComposite in2="hardAlpha" operator="out"/>
<feColorMatrix type="matrix" values="0 0 0 0 0.654902 0 0 0 0 0.823529 0 0 0 0 0.545098 0 0 0 0.63 0"/>
<feBlend mode="normal" in2="BackgroundImageFix" result="effect1_dropShadow_4183_12296"/>
<feBlend mode="normal" in="SourceGraphic" in2="effect1_dropShadow_4183_12296" result="shape"/>
</filter>
</defs>
</svg>
