<svg width="35" height="35" viewBox="0 0 44 48" fill="none" xmlns="http://www.w3.org/2000/svg">
<path d="M44 19.3555C39.6748 19.3652 35.4557 18.0992 31.9387 15.7363V32.2158C31.9375 35.268 30.9436 38.2471 29.0898 40.7548C27.2359 43.2625 24.6106 45.1792 21.5649 46.2486C18.5191 47.3181 15.1981 47.4893 12.0458 46.7394C8.89358 45.9895 6.06038 44.3542 3.92507 42.0522C1.78976 39.7502 0.454121 36.8912 0.0967418 33.8575C-0.260637 30.8238 0.377281 27.76 1.9252 25.0758C3.47311 22.3916 5.85725 20.2149 8.7588 18.8367C11.6604 17.4586 14.941 16.9447 18.1622 17.3638V25.6524C16.6882 25.2173 15.1054 25.2304 13.6398 25.6899C12.1742 26.1494 10.9008 27.0318 10.0014 28.2111C9.10202 29.3904 8.62265 30.8063 8.63175 32.2565C8.64085 33.7068 9.13796 35.1173 10.0521 36.2865C10.9662 37.4558 12.2506 38.3241 13.7218 38.7673C15.1931 39.2106 16.7759 39.2062 18.2444 38.7548C19.7128 38.3034 20.9917 37.428 21.8985 36.2537C22.8052 35.0793 23.2934 33.6661 23.2934 32.2158V0H31.9387C31.9327 0.685239 31.9939 1.36954 32.1215 2.04427C32.4219 3.55047 33.0465 4.98333 33.9572 6.25519C34.8678 7.52704 36.0454 8.61117 37.4177 9.44124C39.3702 10.6529 41.6593 11.2988 44 11.2983V19.3555Z" fill="#7141FA"/>
</svg>
