<svg width="21" height="24" viewBox="0 0 21 24" fill="none" xmlns="http://www.w3.org/2000/svg">
<path fill-rule="evenodd" clip-rule="evenodd" d="M20.6562 4.6875C20.6562 5.1019 20.4916 5.49933 20.1986 5.79235C19.9056 6.08538 19.5082 6.25 19.0938 6.25H18.3125V20.3125C18.3125 21.1413 17.9833 21.9362 17.3972 22.5222C16.8112 23.1083 16.0163 23.4375 15.1875 23.4375H5.8125C4.9837 23.4375 4.18884 23.1083 3.60279 22.5222C3.01674 21.9362 2.6875 21.1413 2.6875 20.3125V6.25H1.90625C1.49185 6.25 1.09442 6.08538 0.801396 5.79235C0.50837 5.49933 0.34375 5.1019 0.34375 4.6875V3.125C0.34375 2.7106 0.50837 2.31317 0.801396 2.02015C1.09442 1.72712 1.49185 1.5625 1.90625 1.5625H7.375C7.375 1.1481 7.53962 0.750671 7.83265 0.457646C8.12567 0.16462 8.5231 0 8.9375 0L12.0625 0C12.4769 0 12.8743 0.16462 13.1674 0.457646C13.4604 0.750671 13.625 1.1481 13.625 1.5625H19.0938C19.5082 1.5625 19.9056 1.72712 20.1986 2.02015C20.4916 2.31317 20.6562 2.7106 20.6562 3.125V4.6875ZM4.43437 6.25L4.25 6.34219V20.3125C4.25 20.7269 4.41462 21.1243 4.70765 21.4174C5.00067 21.7104 5.3981 21.875 5.8125 21.875H15.1875C15.6019 21.875 15.9993 21.7104 16.2924 21.4174C16.5854 21.1243 16.75 20.7269 16.75 20.3125V6.34219L16.5656 6.25H4.43437ZM1.90625 4.6875V3.125H19.0938V4.6875H1.90625Z" fill="#686868"/>
</svg>