<svg width="320" height="201" viewBox="0 0 320 201" fill="none" xmlns="http://www.w3.org/2000/svg">
<rect width="320" height="201" fill="#E5E5E5"/>
<rect width="1440" height="1024" transform="translate(-898 -620)" fill="white"/>
<rect width="320" height="201" rx="40" fill="#EEEEEE"/>
<path d="M38.056 53.736C38.056 51.5173 38.536 49.544 39.496 47.816C40.456 46.0667 41.7893 44.712 43.496 43.752C45.224 42.7707 47.176 42.28 49.352 42.28C52.0187 42.28 54.3013 42.984 56.2 44.392C58.0987 45.8 59.368 47.72 60.008 50.152H53.992C53.544 49.2133 52.904 48.4987 52.072 48.008C51.2613 47.5173 50.3333 47.272 49.288 47.272C47.6027 47.272 46.2373 47.8587 45.192 49.032C44.1467 50.2053 43.624 51.7733 43.624 53.736C43.624 55.6987 44.1467 57.2667 45.192 58.44C46.2373 59.6133 47.6027 60.2 49.288 60.2C50.3333 60.2 51.2613 59.9547 52.072 59.464C52.904 58.9733 53.544 58.2587 53.992 57.32H60.008C59.368 59.752 58.0987 61.672 56.2 63.08C54.3013 64.4667 52.0187 65.16 49.352 65.16C47.176 65.16 45.224 64.68 43.496 63.72C41.7893 62.7387 40.456 61.384 39.496 59.656C38.536 57.928 38.056 55.9547 38.056 53.736ZM62.271 56.04C62.271 54.2053 62.6123 52.5947 63.295 51.208C63.999 49.8213 64.9483 48.7547 66.143 48.008C67.3377 47.2613 68.671 46.888 70.143 46.888C71.4017 46.888 72.5003 47.144 73.439 47.656C74.399 48.168 75.135 48.84 75.647 49.672V47.144H81.119V65H75.647V62.472C75.1137 63.304 74.367 63.976 73.407 64.488C72.4683 65 71.3697 65.256 70.111 65.256C68.6603 65.256 67.3377 64.8827 66.143 64.136C64.9483 63.368 63.999 62.2907 63.295 60.904C62.6123 59.496 62.271 57.8747 62.271 56.04ZM75.647 56.072C75.647 54.7067 75.263 53.6293 74.495 52.84C73.7483 52.0507 72.831 51.656 71.743 51.656C70.655 51.656 69.727 52.0507 68.959 52.84C68.2123 53.608 67.839 54.6747 67.839 56.04C67.839 57.4053 68.2123 58.4933 68.959 59.304C69.727 60.0933 70.655 60.488 71.743 60.488C72.831 60.488 73.7483 60.0933 74.495 59.304C75.263 58.5147 75.647 57.4373 75.647 56.072ZM95.0298 60.36V65H92.2458C90.2618 65 88.7151 64.52 87.6058 63.56C86.4964 62.5787 85.9418 60.9893 85.9418 58.792V51.688H83.7658V47.144H85.9418V42.792H91.4138V47.144H94.9978V51.688H91.4138V58.856C91.4138 59.3893 91.5418 59.7733 91.7978 60.008C92.0538 60.2427 92.4804 60.36 93.0778 60.36H95.0298ZM114.91 55.784C114.91 56.296 114.878 56.8293 114.814 57.384H102.43C102.515 58.4933 102.867 59.3467 103.486 59.944C104.126 60.52 104.904 60.808 105.822 60.808C107.187 60.808 108.136 60.232 108.67 59.08H114.494C114.195 60.2533 113.651 61.3093 112.862 62.248C112.094 63.1867 111.123 63.9227 109.95 64.456C108.776 64.9893 107.464 65.256 106.014 65.256C104.264 65.256 102.707 64.8827 101.342 64.136C99.9764 63.3893 98.9098 62.3227 98.1418 60.936C97.3738 59.5493 96.9898 57.928 96.9898 56.072C96.9898 54.216 97.3631 52.5947 98.1098 51.208C98.8778 49.8213 99.9444 48.7547 101.31 48.008C102.675 47.2613 104.243 46.888 106.014 46.888C107.742 46.888 109.278 47.2507 110.622 47.976C111.966 48.7013 113.011 49.736 113.758 51.08C114.526 52.424 114.91 53.992 114.91 55.784ZM109.31 54.344C109.31 53.4053 108.99 52.6587 108.35 52.104C107.71 51.5493 106.91 51.272 105.95 51.272C105.032 51.272 104.254 51.5387 103.614 52.072C102.995 52.6053 102.611 53.3627 102.462 54.344H109.31ZM124.581 46.888C125.839 46.888 126.938 47.144 127.877 47.656C128.837 48.168 129.573 48.84 130.085 49.672V47.144H135.557V64.968C135.557 66.6107 135.226 68.0933 134.565 69.416C133.925 70.76 132.933 71.8267 131.589 72.616C130.266 73.4053 128.613 73.8 126.629 73.8C123.983 73.8 121.839 73.1707 120.197 71.912C118.554 70.6747 117.615 68.9893 117.381 66.856H122.789C122.959 67.5387 123.365 68.072 124.005 68.456C124.645 68.8613 125.434 69.064 126.373 69.064C127.503 69.064 128.399 68.7333 129.061 68.072C129.743 67.432 130.085 66.3973 130.085 64.968V62.44C129.551 63.272 128.815 63.9547 127.877 64.488C126.938 65 125.839 65.256 124.581 65.256C123.109 65.256 121.775 64.8827 120.581 64.136C119.386 63.368 118.437 62.2907 117.733 60.904C117.05 59.496 116.709 57.8747 116.709 56.04C116.709 54.2053 117.05 52.5947 117.733 51.208C118.437 49.8213 119.386 48.7547 120.581 48.008C121.775 47.2613 123.109 46.888 124.581 46.888ZM130.085 56.072C130.085 54.7067 129.701 53.6293 128.933 52.84C128.186 52.0507 127.269 51.656 126.181 51.656C125.093 51.656 124.165 52.0507 123.397 52.84C122.65 53.608 122.277 54.6747 122.277 56.04C122.277 57.4053 122.65 58.4933 123.397 59.304C124.165 60.0933 125.093 60.488 126.181 60.488C127.269 60.488 128.186 60.0933 128.933 59.304C129.701 58.5147 130.085 57.4373 130.085 56.072ZM147.643 65.256C145.894 65.256 144.315 64.8827 142.907 64.136C141.521 63.3893 140.422 62.3227 139.611 60.936C138.822 59.5493 138.427 57.928 138.427 56.072C138.427 54.2373 138.833 52.6267 139.643 51.24C140.454 49.832 141.563 48.7547 142.971 48.008C144.379 47.2613 145.958 46.888 147.707 46.888C149.457 46.888 151.035 47.2613 152.443 48.008C153.851 48.7547 154.961 49.832 155.771 51.24C156.582 52.6267 156.987 54.2373 156.987 56.072C156.987 57.9067 156.571 59.528 155.739 60.936C154.929 62.3227 153.809 63.3893 152.379 64.136C150.971 64.8827 149.393 65.256 147.643 65.256ZM147.643 60.52C148.689 60.52 149.574 60.136 150.299 59.368C151.046 58.6 151.419 57.5013 151.419 56.072C151.419 54.6427 151.057 53.544 150.331 52.776C149.627 52.008 148.753 51.624 147.707 51.624C146.641 51.624 145.755 52.008 145.051 52.776C144.347 53.5227 143.995 54.6213 143.995 56.072C143.995 57.5013 144.337 58.6 145.019 59.368C145.723 60.136 146.598 60.52 147.643 60.52ZM165.362 50.12C166.002 49.1387 166.802 48.3707 167.762 47.816C168.722 47.24 169.789 46.952 170.962 46.952V52.744H169.458C168.093 52.744 167.069 53.0427 166.386 53.64C165.704 54.216 165.362 55.24 165.362 56.712V65H159.89V47.144H165.362V50.12ZM191.818 47.144L180.618 73.48H174.73L178.826 64.392L171.562 47.144H177.674L181.802 58.312L185.898 47.144H191.818Z" fill="#AEAEAE"/>
</svg>
