<svg width="320" height="201" viewBox="0 0 320 201" fill="none" xmlns="http://www.w3.org/2000/svg">
<mask id="mask0_3143_8098" style="mask-type:alpha" maskUnits="userSpaceOnUse" x="0" y="0" width="320" height="201">
<rect width="320" height="201" rx="40" fill="#FFE7AA"/>
</mask>
<g mask="url(#mask0_3143_8098)">
<rect width="320" height="201" rx="40" fill="#FFE7AA"/>
<g filter="url(#filter0_d_3143_8098)">
<path d="M286.471 203.081L272.366 219.295C269.347 222.204 262.751 219.332 262.751 216.428V94.9071C262.751 92.0031 275.724 71.228 290.098 71.228L289.944 192.264C289.944 198.23 289.436 199.146 286.471 203.081Z" fill="#E3A919"/>
<path d="M273.685 86.7684H180.706L181.767 84.9376L201.161 71.2278C203.819 69.234 205.706 68.5974 208.725 68.5974H287.281C288.31 68.5974 290.093 70.0547 289.163 71.07L273.685 86.7684Z" fill="#FFD983"/>
<path d="M268.215 221.164H186.175C183.156 221.164 180.706 218.807 180.706 215.903V86.77C180.706 86.77 183.156 84.3816 186.175 84.3816H268.215C271.234 84.3816 273.685 86.77 273.685 86.77V215.903C273.685 218.807 271.234 221.164 268.215 221.164Z" fill="#FFCC4D"/>
<path d="M213.521 189.597C222.583 189.597 229.929 182.531 229.929 173.815C229.929 165.098 222.583 158.032 213.521 158.032C204.459 158.032 197.113 165.098 197.113 173.815C197.113 182.531 204.459 189.597 213.521 189.597Z" fill="#F4900C"/>
<path d="M213.519 163.294C225.601 163.294 235.396 153.872 235.396 142.25C235.396 130.628 225.601 121.207 213.519 121.207C201.436 121.207 191.642 130.628 191.642 142.25C191.642 153.872 201.436 163.294 213.519 163.294Z" fill="#EA596E"/>
<path d="M238.133 179.077C251.726 179.077 262.745 168.478 262.745 155.403C262.745 142.328 251.726 131.729 238.133 131.729C224.54 131.729 213.521 142.328 213.521 155.403C213.521 168.478 224.54 179.077 238.133 179.077Z" fill="#FFE8B6"/>
<path d="M238.138 168.554C245.689 168.554 251.811 162.666 251.811 155.402C251.811 148.138 245.689 142.25 238.138 142.25C230.586 142.25 224.464 148.138 224.464 155.402C224.464 162.666 230.586 168.554 238.138 168.554Z" fill="#FFCC4D"/>
<path d="M257.268 76.2998C257.268 76.2998 256.119 78.5672 251.979 78.5672C247.839 78.5672 246.329 76.2998 246.329 76.2998V54.6145C246.329 44.1297 249.239 37.2064 254.982 34.0393C260.478 31.0091 267.703 31.9455 276.432 36.8539C283.4 40.7627 300.612 52.4891 301.022 52.8153C301.022 52.8153 301.925 55.7877 299.365 58.6023C296.806 61.4168 294.087 60.9539 294.087 60.9539C293.989 60.8802 277.127 49.4273 270.919 45.9341C266.101 43.2248 262.256 42.6566 260.506 43.6404C258.98 44.4821 257.268 47.4598 257.268 54.6145V76.2998Z" fill="#CCD6DD"/>
<path d="M270.591 34.0866C264.444 31.7403 259.204 31.714 254.987 34.034C250.661 36.4224 247.948 40.9468 246.871 47.5123L257.673 49.443C258.263 45.9498 259.434 44.2401 260.517 43.6403C261.72 42.9617 263.962 43.0879 266.784 44.0717L270.591 34.0866Z" fill="#99AAB5"/>
<path d="M273.307 89.6424H183.441C181.937 89.6424 180.706 88.4588 180.706 87.012C180.706 85.5653 181.937 84.3816 183.441 84.3816H273.307C274.811 84.3816 276.042 85.5653 276.042 87.012C276.042 88.4588 274.811 89.6424 273.307 89.6424Z" fill="#FFE8B6"/>
<path d="M289.591 72.786L275.721 88.7579C274.83 89.8154 273.145 89.9311 271.98 89.021C270.81 88.1108 270.585 86.501 271.471 85.4436L285.342 69.4716C286.233 68.4142 287.918 68.2985 289.083 69.2086C290.253 70.124 290.477 71.7285 289.591 72.786Z" fill="#FFE8B6"/>
</g>
<path d="M47.4 36.536C49.768 36.536 51.8373 37.0053 53.608 37.944C55.3787 38.8827 56.744 40.2053 57.704 41.912C58.6853 43.5973 59.176 45.5493 59.176 47.768C59.176 49.9653 58.6853 51.9173 57.704 53.624C56.744 55.3307 55.368 56.6533 53.576 57.592C51.8053 58.5307 49.7467 59 47.4 59H38.984V36.536H47.4ZM47.048 54.264C49.1173 54.264 50.728 53.6987 51.88 52.568C53.032 51.4373 53.608 49.8373 53.608 47.768C53.608 45.6987 53.032 44.088 51.88 42.936C50.728 41.784 49.1173 41.208 47.048 41.208H44.456V54.264H47.048ZM67.706 44.12C68.346 43.1387 69.146 42.3707 70.106 41.816C71.066 41.24 72.1327 40.952 73.306 40.952V46.744H71.802C70.4367 46.744 69.4127 47.0427 68.73 47.64C68.0473 48.216 67.706 49.24 67.706 50.712V59H62.234V41.144H67.706V44.12ZM78.6735 39.288C77.7135 39.288 76.9242 39.0107 76.3055 38.456C75.7082 37.88 75.4095 37.176 75.4095 36.344C75.4095 35.4907 75.7082 34.7867 76.3055 34.232C76.9242 33.656 77.7135 33.368 78.6735 33.368C79.6122 33.368 80.3802 33.656 80.9775 34.232C81.5962 34.7867 81.9055 35.4907 81.9055 36.344C81.9055 37.176 81.5962 37.88 80.9775 38.456C80.3802 39.0107 79.6122 39.288 78.6735 39.288ZM81.3935 41.144V59H75.9215V41.144H81.3935ZM96.239 40.952C98.3297 40.952 99.9937 41.6347 101.231 43C102.49 44.344 103.119 46.2 103.119 48.568V59H97.679V49.304C97.679 48.1093 97.3697 47.1813 96.751 46.52C96.1323 45.8587 95.3003 45.528 94.255 45.528C93.2097 45.528 92.3777 45.8587 91.759 46.52C91.1403 47.1813 90.831 48.1093 90.831 49.304V59H85.359V41.144H90.831V43.512C91.3857 42.7227 92.1323 42.104 93.071 41.656C94.0097 41.1867 95.0657 40.952 96.239 40.952ZM117.834 59L112.394 51.512V59H106.922V35.32H112.394V48.408L117.802 41.144H124.554L117.13 50.104L124.618 59H117.834ZM133.967 59.256C132.409 59.256 131.023 58.9893 129.807 58.456C128.591 57.9227 127.631 57.1973 126.927 56.28C126.223 55.3413 125.828 54.296 125.743 53.144H131.151C131.215 53.7627 131.503 54.264 132.015 54.648C132.527 55.032 133.156 55.224 133.903 55.224C134.585 55.224 135.108 55.096 135.471 54.84C135.855 54.5627 136.047 54.2107 136.047 53.784C136.047 53.272 135.78 52.8987 135.247 52.664C134.713 52.408 133.849 52.1307 132.655 51.832C131.375 51.5333 130.308 51.224 129.455 50.904C128.601 50.5627 127.865 50.04 127.247 49.336C126.628 48.6107 126.319 47.64 126.319 46.424C126.319 45.4 126.596 44.472 127.151 43.64C127.727 42.7867 128.559 42.1147 129.647 41.624C130.756 41.1333 132.068 40.888 133.583 40.888C135.823 40.888 137.583 41.4427 138.863 42.552C140.164 43.6613 140.911 45.1333 141.103 46.968H136.047C135.961 46.3493 135.684 45.8587 135.215 45.496C134.767 45.1333 134.169 44.952 133.423 44.952C132.783 44.952 132.292 45.08 131.951 45.336C131.609 45.5707 131.439 45.9013 131.439 46.328C131.439 46.84 131.705 47.224 132.239 47.48C132.793 47.736 133.647 47.992 134.799 48.248C136.121 48.5893 137.199 48.9307 138.031 49.272C138.863 49.592 139.588 50.1253 140.207 50.872C140.847 51.5973 141.177 52.5787 141.199 53.816C141.199 54.8613 140.9 55.8 140.303 56.632C139.727 57.4427 138.884 58.0827 137.775 58.552C136.687 59.0213 135.417 59.256 133.967 59.256Z" fill="#C79415"/>
</g>
<defs>
<filter id="filter0_d_3143_8098" x="176.706" y="32.3035" width="128.471" height="196.86" filterUnits="userSpaceOnUse" color-interpolation-filters="sRGB">
<feFlood flood-opacity="0" result="BackgroundImageFix"/>
<feColorMatrix in="SourceAlpha" type="matrix" values="0 0 0 0 0 0 0 0 0 0 0 0 0 0 0 0 0 0 127 0" result="hardAlpha"/>
<feOffset dy="4"/>
<feGaussianBlur stdDeviation="2"/>
<feComposite in2="hardAlpha" operator="out"/>
<feColorMatrix type="matrix" values="0 0 0 0 0.890196 0 0 0 0 0.662745 0 0 0 0 0.0980392 0 0 0 0.52 0"/>
<feBlend mode="normal" in2="BackgroundImageFix" result="effect1_dropShadow_3143_8098"/>
<feBlend mode="normal" in="SourceGraphic" in2="effect1_dropShadow_3143_8098" result="shape"/>
</filter>
</defs>
</svg>
