<svg width="320" height="201" viewBox="0 0 320 201" fill="none" xmlns="http://www.w3.org/2000/svg">
<mask id="mask0_3143_8023" style="mask-type:alpha" maskUnits="userSpaceOnUse" x="0" y="0" width="320" height="201">
<rect width="320" height="201" rx="40" fill="#DFF1D4"/>
</mask>
<g mask="url(#mask0_3143_8023)">
<rect width="320" height="201" rx="40" fill="#DFF1D4"/>
<g filter="url(#filter0_d_3143_8023)">
<path d="M339.079 127.239C326.796 109.338 301.401 135.682 255.056 141.036C237.896 143.016 222.435 157.352 202.502 155.986C194.329 155.424 182.916 131.898 174.372 135.649C169.977 137.581 167.96 144.03 172.479 148.875L222.659 208.779C222.659 208.779 225.209 211.72 233.8 209.683C235.917 210.306 267.744 197.546 286.145 172.002C290.55 165.886 295.802 160.793 301.24 156.538C318.894 143.478 338.085 138.928 338.085 138.928C340.54 136.9 341.115 134.744 340.982 132.874C341.144 129.752 339.079 127.239 339.079 127.239Z" fill="#5C913B"/>
<path d="M224.305 98.6525C206.309 123.64 174.792 135.477 174.792 135.477C168.912 140.46 173.878 146.333 173.878 146.333L223.535 205.156C223.535 205.156 226.018 208.093 234.381 206.056C234.381 206.056 265.898 194.243 283.89 169.255C302.439 143.506 335.888 135.377 335.888 135.377C341.763 130.394 336.801 124.511 336.801 124.511L287.144 65.6976C287.144 65.6976 284.661 62.7562 276.298 64.7837C276.298 64.7837 242.854 72.894 224.305 98.6525Z" fill="#A7D28B"/>
<path d="M274.373 142.561C288.824 142.561 300.538 130.841 300.538 116.384C300.538 101.926 288.824 90.2063 274.373 90.2063C259.923 90.2063 248.208 101.926 248.208 116.384C248.208 130.841 259.923 142.561 274.373 142.561Z" fill="#77B255"/>
<path d="M230.951 201.719C226.76 201.719 225.223 200.158 225.014 199.92L180.253 147.646C180.167 147.546 177.898 144.947 178.174 141.644C178.34 139.64 179.377 137.855 181.252 136.337L181.551 136.156C181.842 136.042 210.87 124.105 227.14 102.53L228.092 103.244L227.14 102.53C244.352 79.7036 274.042 69.9085 274.337 69.8133C282.639 67.881 285.355 70.6415 285.646 70.9651L329.817 123.529C329.898 123.615 332.162 126.223 331.886 129.531C331.72 131.53 330.683 133.315 328.808 134.833L328.337 135.066C328.047 135.138 299.18 142.315 282.458 164.485C265.812 186.569 236.755 200.857 236.465 200.995C234.257 201.519 232.44 201.719 230.951 201.719ZM226.807 198.354C226.812 198.354 228.958 200.334 235.68 198.772C235.718 198.72 264.266 184.675 280.569 163.057C296.92 141.377 324.455 133.634 327.51 132.829C328.732 131.778 329.408 130.611 329.517 129.36C329.717 127.075 328.033 125.109 328.019 125.09L283.847 72.5215C283.838 72.5215 281.706 70.5463 274.98 72.1074C274.785 72.1741 245.794 81.7502 229.043 103.963C213.03 125.195 185.091 137.256 182.622 138.293C181.347 139.364 180.652 140.559 180.543 141.839C180.352 144.105 182.027 146.061 182.041 146.08L226.807 198.354Z" fill="#5C913B"/>
<path d="M270.929 155.251L270.901 183.522L273.265 186.33C277.875 182.123 282.304 177.392 286.134 172.071C290.106 166.559 294.721 161.843 299.587 157.859L297.29 155.122L270.929 155.251Z" fill="#FFAC33"/>
<path d="M297.194 155.023L237.699 84.5198C232.866 88.4987 228.222 93.1393 224.274 98.627C220.416 103.986 215.925 108.703 211.263 112.863L218.218 121.101L218.213 121.106L270.9 183.523C275.562 179.358 280.001 174.594 283.864 169.23C287.812 163.747 292.451 159.111 297.279 155.132L297.189 155.023H297.194Z" fill="#FFE8B6"/>
<path d="M238.592 157.103C231.185 148.326 215.505 162.567 211.033 157.269C208.869 154.704 210.263 151.377 213.108 148.978C217.889 144.933 221.338 147.289 223.502 145.456C225.039 144.162 224.958 142.577 224.045 141.487C221.923 138.978 216.5 140.287 212.285 142.724L210.234 140.297C208.955 138.783 206.69 138.588 205.177 139.869C203.664 141.154 203.474 143.41 204.754 144.923L206.876 147.441C203.655 151.715 202.561 157.388 206.371 161.896C213.488 170.32 229.363 156.317 234.358 162.238C236.09 164.294 235.605 168.216 231.961 171.291C226.499 175.912 221.552 173.747 219.33 175.622C218.246 176.531 218.05 178.264 219.207 179.639C221.048 181.814 226.913 181.348 232.551 177.835C232.56 177.845 232.56 177.854 232.56 177.864L234.877 180.605C236.157 182.119 238.426 182.304 239.939 181.034C241.456 179.749 241.642 177.483 240.362 175.969L238.045 173.228C238.022 173.199 237.984 173.18 237.955 173.152C241.756 168.497 243.041 162.362 238.592 157.103Z" fill="#5C913B"/>
<path d="M324.112 204.856C324.154 204.818 324.202 204.789 324.245 204.756C324.568 204.432 324.82 204.061 325.106 203.704C325.306 203.456 325.529 203.218 325.715 202.966C325.881 202.728 326.019 202.485 326.172 202.243C332.927 191.834 328.503 174.185 315.13 160.802C301.752 147.418 284.108 142.991 273.708 149.755C273.461 149.902 273.218 150.04 272.98 150.212C272.728 150.397 272.486 150.621 272.248 150.816C271.896 151.106 271.525 151.354 271.196 151.682C271.154 151.725 271.125 151.773 271.092 151.816C271.039 151.868 270.978 151.901 270.92 151.958L270.949 151.982C266.192 157.037 266.135 164.857 270.92 169.65C275.716 174.447 283.527 174.381 288.584 169.621L288.637 169.678C288.537 169.773 288.427 169.835 288.332 169.93C283.294 174.971 283.175 183.01 288.051 187.898C292.932 192.776 300.977 192.657 306.01 187.617C306.105 187.522 306.167 187.412 306.262 187.312L306.315 187.369C301.557 192.424 301.496 200.244 306.291 205.041C311.081 209.829 318.893 209.772 323.945 205.013L323.974 205.041C324.021 204.975 324.059 204.913 324.112 204.856Z" fill="#E1E8ED"/>
<path d="M270.926 169.842C275.236 174.149 281.968 174.501 286.958 171.084C289.047 167.514 289.646 164.121 289.646 163.059C279.147 170.894 269.775 163.102 267.677 158.443C266.806 162.469 267.862 166.772 270.926 169.842ZM305.65 188.118C307.067 186.124 308.166 184.196 308.68 182.892C301.996 189.023 289.218 184.534 285.345 174.811C283.642 179.332 284.513 184.539 288.062 188.09C292.829 192.859 300.593 192.821 305.65 188.118ZM323.984 205.229L324.122 205.057C324.17 205.019 324.217 204.991 324.255 204.953C324.584 204.629 324.836 204.258 325.116 203.906C325.321 203.653 325.54 203.42 325.725 203.163C325.897 202.93 326.035 202.682 326.187 202.44C326.496 201.964 326.663 201.402 326.924 200.898C314.898 206.281 305.921 197.147 303.404 192.592C302.001 196.957 302.914 201.845 306.301 205.238C311.087 210.031 318.899 209.974 323.956 205.21L323.984 205.229Z" fill="#CCD6DD"/>
<path d="M236.103 109.237L236.236 109.132C236.564 108.808 236.816 108.437 237.097 108.085C237.297 107.837 237.515 107.604 237.701 107.347C237.872 107.109 238.01 106.866 238.162 106.624C244.918 96.2146 240.489 78.5616 227.116 65.1825C213.738 51.7988 196.098 47.3677 185.694 54.1262C185.452 54.2785 185.204 54.4165 184.966 54.5879C184.71 54.7735 184.476 54.9924 184.229 55.1923C183.877 55.4779 183.506 55.7254 183.182 56.0538C183.14 56.0966 183.111 56.149 183.078 56.1871C183.025 56.2347 182.959 56.2775 182.907 56.3298L182.93 56.3536C178.173 61.4082 178.116 69.2281 182.907 74.021C187.697 78.8138 195.513 78.7567 200.566 73.9972L200.618 74.0495C200.518 74.14 200.409 74.2066 200.313 74.3018C195.275 79.3421 195.157 87.3809 200.038 92.269C204.918 97.157 212.958 97.0332 217.996 91.9929C218.091 91.8977 218.153 91.7883 218.248 91.6883L218.301 91.7407C213.543 96.7953 213.482 104.615 218.277 109.408C223.068 114.201 230.879 114.144 235.931 109.379L235.955 109.408C236.007 109.356 236.05 109.294 236.103 109.237Z" fill="#E1E8ED"/>
<path d="M182.901 74.027C187.211 78.3391 193.942 78.6913 198.933 75.2644C201.021 71.6948 201.616 68.306 201.616 67.2447C191.121 75.0741 181.745 67.278 179.652 62.6184C178.781 66.6497 179.837 70.9571 182.901 74.027ZM217.634 92.294C219.047 90.2998 220.146 88.3817 220.655 87.0776C213.966 93.2078 201.188 88.7148 197.32 78.9911C195.617 83.5127 196.488 88.7196 200.032 92.2702C204.808 97.044 212.577 97.0012 217.634 92.294ZM235.954 109.414C236.006 109.362 236.049 109.3 236.097 109.243L236.23 109.138C236.558 108.814 236.81 108.443 237.091 108.091C237.291 107.843 237.51 107.61 237.695 107.353C237.866 107.115 238.004 106.872 238.157 106.63C238.466 106.154 238.632 105.587 238.894 105.083C226.868 110.466 217.891 101.337 215.374 96.7822C213.971 101.147 214.884 106.035 218.271 109.424C223.062 114.216 230.873 114.159 235.925 109.395L235.954 109.414Z" fill="#CCD6DD"/>
</g>
<path d="M49.144 34.536V38.92H43.192V57H37.72V38.92H31.768V34.536H49.144ZM60.0183 57.256C58.2689 57.256 56.6903 56.8827 55.2823 56.136C53.8956 55.3893 52.7969 54.3227 51.9863 52.936C51.1969 51.5493 50.8023 49.928 50.8023 48.072C50.8023 46.2373 51.2076 44.6267 52.0182 43.24C52.8289 41.832 53.9383 40.7547 55.3463 40.008C56.7543 39.2613 58.3329 38.888 60.0823 38.888C61.8316 38.888 63.4103 39.2613 64.8183 40.008C66.2263 40.7547 67.3356 41.832 68.1463 43.24C68.9569 44.6267 69.3623 46.2373 69.3623 48.072C69.3623 49.9067 68.9463 51.528 68.1143 52.936C67.3036 54.3227 66.1836 55.3893 64.7543 56.136C63.3463 56.8827 61.7676 57.256 60.0183 57.256ZM60.0183 52.52C61.0636 52.52 61.9489 52.136 62.6743 51.368C63.4209 50.6 63.7943 49.5013 63.7943 48.072C63.7943 46.6427 63.4316 45.544 62.7063 44.776C62.0023 44.008 61.1276 43.624 60.0823 43.624C59.0156 43.624 58.1303 44.008 57.4263 44.776C56.7223 45.5227 56.3703 46.6213 56.3703 48.072C56.3703 49.5013 56.7116 50.6 57.3943 51.368C58.0983 52.136 58.9729 52.52 60.0183 52.52ZM71.1773 48.04C71.1773 46.2053 71.5186 44.5947 72.2013 43.208C72.9053 41.8213 73.8546 40.7547 75.0493 40.008C76.2439 39.2613 77.5773 38.888 79.0493 38.888C80.2226 38.888 81.2893 39.1333 82.2493 39.624C83.2306 40.1147 83.9986 40.776 84.5533 41.608V33.32H90.0253V57H84.5533V54.44C84.0413 55.2933 83.3053 55.976 82.3453 56.488C81.4066 57 80.3079 57.256 79.0493 57.256C77.5773 57.256 76.2439 56.8827 75.0493 56.136C73.8546 55.368 72.9053 54.2907 72.2013 52.904C71.5186 51.496 71.1773 49.8747 71.1773 48.04ZM84.5533 48.072C84.5533 46.7067 84.1693 45.6293 83.4013 44.84C82.6546 44.0507 81.7373 43.656 80.6493 43.656C79.5613 43.656 78.6333 44.0507 77.8653 44.84C77.1186 45.608 76.7453 46.6747 76.7453 48.04C76.7453 49.4053 77.1186 50.4933 77.8653 51.304C78.6333 52.0933 79.5613 52.488 80.6493 52.488C81.7373 52.488 82.6546 52.0933 83.4013 51.304C84.1693 50.5147 84.5533 49.4373 84.5533 48.072ZM92.896 48.04C92.896 46.2053 93.2373 44.5947 93.92 43.208C94.624 41.8213 95.5733 40.7547 96.768 40.008C97.9627 39.2613 99.296 38.888 100.768 38.888C102.027 38.888 103.125 39.144 104.064 39.656C105.024 40.168 105.76 40.84 106.272 41.672V39.144H111.744V57H106.272V54.472C105.739 55.304 104.992 55.976 104.032 56.488C103.093 57 101.995 57.256 100.736 57.256C99.2853 57.256 97.9627 56.8827 96.768 56.136C95.5733 55.368 94.624 54.2907 93.92 52.904C93.2373 51.496 92.896 49.8747 92.896 48.04ZM106.272 48.072C106.272 46.7067 105.888 45.6293 105.12 44.84C104.373 44.0507 103.456 43.656 102.368 43.656C101.28 43.656 100.352 44.0507 99.584 44.84C98.8373 45.608 98.464 46.6747 98.464 48.04C98.464 49.4053 98.8373 50.4933 99.584 51.304C100.352 52.0933 101.28 52.488 102.368 52.488C103.456 52.488 104.373 52.0933 105.12 51.304C105.888 50.5147 106.272 49.4373 106.272 48.072ZM133.943 39.144L122.743 65.48H116.855L120.951 56.392L113.687 39.144H119.799L123.927 50.312L128.023 39.144H133.943ZM137.17 34.536H142.77L139.186 43.112H135.506L137.17 34.536ZM153.248 57.256C151.691 57.256 150.304 56.9893 149.088 56.456C147.872 55.9227 146.912 55.1973 146.208 54.28C145.504 53.3413 145.109 52.296 145.024 51.144H150.432C150.496 51.7627 150.784 52.264 151.296 52.648C151.808 53.032 152.437 53.224 153.184 53.224C153.867 53.224 154.389 53.096 154.752 52.84C155.136 52.5627 155.328 52.2107 155.328 51.784C155.328 51.272 155.061 50.8987 154.528 50.664C153.995 50.408 153.131 50.1307 151.936 49.832C150.656 49.5333 149.589 49.224 148.736 48.904C147.883 48.5627 147.147 48.04 146.528 47.336C145.909 46.6107 145.6 45.64 145.6 44.424C145.6 43.4 145.877 42.472 146.432 41.64C147.008 40.7867 147.84 40.1147 148.928 39.624C150.037 39.1333 151.349 38.888 152.864 38.888C155.104 38.888 156.864 39.4427 158.144 40.552C159.445 41.6613 160.192 43.1333 160.384 44.968H155.328C155.243 44.3493 154.965 43.8587 154.496 43.496C154.048 43.1333 153.451 42.952 152.704 42.952C152.064 42.952 151.573 43.08 151.232 43.336C150.891 43.5707 150.72 43.9013 150.72 44.328C150.72 44.84 150.987 45.224 151.52 45.48C152.075 45.736 152.928 45.992 154.08 46.248C155.403 46.5893 156.48 46.9307 157.312 47.272C158.144 47.592 158.869 48.1253 159.488 48.872C160.128 49.5973 160.459 50.5787 160.48 51.816C160.48 52.8613 160.181 53.8 159.584 54.632C159.008 55.4427 158.165 56.0827 157.056 56.552C155.968 57.0213 154.699 57.256 153.248 57.256ZM41.112 105.224C39.4693 105.224 37.9973 104.957 36.696 104.424C35.3947 103.891 34.3493 103.101 33.56 102.056C32.792 101.011 32.3867 99.752 32.344 98.28H38.168C38.2533 99.112 38.5413 99.752 39.032 100.2C39.5227 100.627 40.1627 100.84 40.952 100.84C41.7627 100.84 42.4027 100.659 42.872 100.296C43.3413 99.912 43.576 99.3893 43.576 98.728C43.576 98.1733 43.384 97.7147 43 97.352C42.6373 96.9893 42.1787 96.6907 41.624 96.456C41.0907 96.2213 40.3227 95.9547 39.32 95.656C37.8693 95.208 36.6853 94.76 35.768 94.312C34.8507 93.864 34.0613 93.2027 33.4 92.328C32.7387 91.4533 32.408 90.312 32.408 88.904C32.408 86.8133 33.1653 85.1813 34.68 84.008C36.1947 82.8133 38.168 82.216 40.6 82.216C43.0747 82.216 45.0693 82.8133 46.584 84.008C48.0987 85.1813 48.9093 86.824 49.016 88.936H43.096C43.0533 88.2107 42.7867 87.6453 42.296 87.24C41.8053 86.8133 41.176 86.6 40.408 86.6C39.7467 86.6 39.2133 86.7813 38.808 87.144C38.4027 87.4853 38.2 87.9867 38.2 88.648C38.2 89.3733 38.5413 89.9387 39.224 90.344C39.9067 90.7493 40.9733 91.1867 42.424 91.656C43.8747 92.1467 45.048 92.616 45.944 93.064C46.8613 93.512 47.6507 94.1627 48.312 95.016C48.9733 95.8693 49.304 96.968 49.304 98.312C49.304 99.592 48.9733 100.755 48.312 101.8C47.672 102.845 46.7333 103.677 45.496 104.296C44.2587 104.915 42.7973 105.224 41.112 105.224ZM58.1435 89.672C58.6768 88.84 59.4128 88.168 60.3515 87.656C61.2902 87.144 62.3888 86.888 63.6475 86.888C65.1195 86.888 66.4528 87.2613 67.6475 88.008C68.8422 88.7547 69.7808 89.8213 70.4635 91.208C71.1675 92.5947 71.5195 94.2053 71.5195 96.04C71.5195 97.8747 71.1675 99.496 70.4635 100.904C69.7808 102.291 68.8422 103.368 67.6475 104.136C66.4528 104.883 65.1195 105.256 63.6475 105.256C62.4102 105.256 61.3115 105 60.3515 104.488C59.4128 103.976 58.6768 103.315 58.1435 102.504V113.512H52.6715V87.144H58.1435V89.672ZM65.9515 96.04C65.9515 94.6747 65.5675 93.608 64.7995 92.84C64.0528 92.0507 63.1248 91.656 62.0155 91.656C60.9275 91.656 59.9995 92.0507 59.2315 92.84C58.4848 93.6293 58.1115 94.7067 58.1115 96.072C58.1115 97.4373 58.4848 98.5147 59.2315 99.304C59.9995 100.093 60.9275 100.488 62.0155 100.488C63.1035 100.488 64.0315 100.093 64.7995 99.304C65.5675 98.4933 65.9515 97.4053 65.9515 96.04ZM91.2222 95.784C91.2222 96.296 91.1903 96.8293 91.1263 97.384H78.7423C78.8276 98.4933 79.1796 99.3467 79.7983 99.944C80.4383 100.52 81.2169 100.808 82.1343 100.808C83.4996 100.808 84.4489 100.232 84.9823 99.08H90.8063C90.5076 100.253 89.9636 101.309 89.1743 102.248C88.4063 103.187 87.4356 103.923 86.2623 104.456C85.0889 104.989 83.7769 105.256 82.3263 105.256C80.5769 105.256 79.0196 104.883 77.6543 104.136C76.2889 103.389 75.2223 102.323 74.4543 100.936C73.6863 99.5493 73.3023 97.928 73.3023 96.072C73.3023 94.216 73.6756 92.5947 74.4223 91.208C75.1903 89.8213 76.2569 88.7547 77.6223 88.008C78.9876 87.2613 80.5556 86.888 82.3263 86.888C84.0543 86.888 85.5903 87.2507 86.9343 87.976C88.2783 88.7013 89.3236 89.736 90.0703 91.08C90.8383 92.424 91.2222 93.992 91.2222 95.784ZM85.6223 94.344C85.6223 93.4053 85.3023 92.6587 84.6623 92.104C84.0223 91.5493 83.2223 91.272 82.2623 91.272C81.3449 91.272 80.5663 91.5387 79.9263 92.072C79.3076 92.6053 78.9236 93.3627 78.7743 94.344H85.6223ZM93.021 96.072C93.021 94.216 93.3943 92.5947 94.141 91.208C94.909 89.8213 95.965 88.7547 97.309 88.008C98.6743 87.2613 100.232 86.888 101.981 86.888C104.221 86.888 106.088 87.4747 107.581 88.648C109.096 89.8213 110.088 91.4747 110.557 93.608H104.733C104.242 92.2427 103.293 91.56 101.885 91.56C100.882 91.56 100.082 91.9547 99.485 92.744C98.8877 93.512 98.589 94.6213 98.589 96.072C98.589 97.5227 98.8877 98.6427 99.485 99.432C100.082 100.2 100.882 100.584 101.885 100.584C103.293 100.584 104.242 99.9013 104.733 98.536H110.557C110.088 100.627 109.096 102.269 107.581 103.464C106.066 104.659 104.2 105.256 101.981 105.256C100.232 105.256 98.6743 104.883 97.309 104.136C95.965 103.389 94.909 102.323 94.141 100.936C93.3943 99.5493 93.021 97.928 93.021 96.072ZM116.236 85.288C115.276 85.288 114.487 85.0107 113.868 84.456C113.271 83.88 112.972 83.176 112.972 82.344C112.972 81.4907 113.271 80.7867 113.868 80.232C114.487 79.656 115.276 79.368 116.236 79.368C117.175 79.368 117.943 79.656 118.54 80.232C119.159 80.7867 119.468 81.4907 119.468 82.344C119.468 83.176 119.159 83.88 118.54 84.456C117.943 85.0107 117.175 85.288 116.236 85.288ZM118.956 87.144V105H113.484V87.144H118.956ZM121.834 96.04C121.834 94.2053 122.175 92.5947 122.858 91.208C123.562 89.8213 124.511 88.7547 125.706 88.008C126.9 87.2613 128.234 86.888 129.706 86.888C130.964 86.888 132.063 87.144 133.002 87.656C133.962 88.168 134.698 88.84 135.21 89.672V87.144H140.682V105H135.21V102.472C134.676 103.304 133.93 103.976 132.97 104.488C132.031 105 130.932 105.256 129.674 105.256C128.223 105.256 126.9 104.883 125.706 104.136C124.511 103.368 123.562 102.291 122.858 100.904C122.175 99.496 121.834 97.8747 121.834 96.04ZM135.21 96.072C135.21 94.7067 134.826 93.6293 134.058 92.84C133.311 92.0507 132.394 91.656 131.306 91.656C130.218 91.656 129.29 92.0507 128.522 92.84C127.775 93.608 127.402 94.6747 127.402 96.04C127.402 97.4053 127.775 98.4933 128.522 99.304C129.29 100.093 130.218 100.488 131.306 100.488C132.394 100.488 133.311 100.093 134.058 99.304C134.826 98.5147 135.21 97.4373 135.21 96.072ZM150.112 81.32V105H144.64V81.32H150.112Z" fill="#5C913B"/>
</g>
<defs>
<filter id="filter0_d_3143_8023" x="165.927" y="51" width="179.073" height="167.401" filterUnits="userSpaceOnUse" color-interpolation-filters="sRGB">
<feFlood flood-opacity="0" result="BackgroundImageFix"/>
<feColorMatrix in="SourceAlpha" type="matrix" values="0 0 0 0 0 0 0 0 0 0 0 0 0 0 0 0 0 0 127 0" result="hardAlpha"/>
<feOffset dy="4"/>
<feGaussianBlur stdDeviation="2"/>
<feComposite in2="hardAlpha" operator="out"/>
<feColorMatrix type="matrix" values="0 0 0 0 0.654902 0 0 0 0 0.823529 0 0 0 0 0.545098 0 0 0 0.63 0"/>
<feBlend mode="normal" in2="BackgroundImageFix" result="effect1_dropShadow_3143_8023"/>
<feBlend mode="normal" in="SourceGraphic" in2="effect1_dropShadow_3143_8023" result="shape"/>
</filter>
</defs>
</svg>
