<svg width="21" height="21" viewBox="0 0 21 21" fill="none" xmlns="http://www.w3.org/2000/svg">
<path d="M14.5385 8.88462C14.5385 7.32813 13.9853 5.99669 12.8789 4.89032C11.7725 3.78395 10.4411 3.23077 8.88462 3.23077C7.32813 3.23077 5.99669 3.78395 4.89032 4.89032C3.78395 5.99669 3.23077 7.32813 3.23077 8.88462C3.23077 10.4411 3.78395 11.7725 4.89032 12.8789C5.99669 13.9853 7.32813 14.5385 8.88462 14.5385C10.4411 14.5385 11.7725 13.9853 12.8789 12.8789C13.9853 11.7725 14.5385 10.4411 14.5385 8.88462ZM21 19.3846C21 19.8221 20.8401 20.2007 20.5204 20.5204C20.2007 20.8401 19.8221 21 19.3846 21C18.9303 21 18.5517 20.8401 18.2488 20.5204L13.9201 16.2043C12.4141 17.2476 10.7356 17.7692 8.88462 17.7692C7.68149 17.7692 6.53095 17.5358 5.43299 17.0688C4.33504 16.6019 3.38852 15.9709 2.59345 15.1758C1.79838 14.3807 1.16737 13.4342 0.700421 12.3362C0.233474 11.2383 0 10.0877 0 8.88462C0 7.68149 0.233474 6.53095 0.700421 5.43299C1.16737 4.33504 1.79838 3.38852 2.59345 2.59345C3.38852 1.79838 4.33504 1.16737 5.43299 0.700421C6.53095 0.233474 7.68149 0 8.88462 0C10.0877 0 11.2383 0.233474 12.3362 0.700421C13.4342 1.16737 14.3807 1.79838 15.1758 2.59345C15.9709 3.38852 16.6019 4.33504 17.0688 5.43299C17.5358 6.53095 17.7692 7.68149 17.7692 8.88462C17.7692 10.7356 17.2476 12.4141 16.2043 13.9201L20.5331 18.2488C20.8444 18.5601 21 18.9387 21 19.3846Z" fill="#686868"/>
</svg>
