<svg width="23" height="25" viewBox="0 0 23 25" fill="none" xmlns="http://www.w3.org/2000/svg">
<path d="M2.5 25H20C21.3787 25 22.5 23.8787 22.5 22.5V3.75C22.5 2.37125 21.3787 1.25 20 1.25H17.5C17.5 0.918479 17.3683 0.600537 17.1339 0.366116C16.8995 0.131696 16.5815 0 16.25 0H6.25C5.91848 0 5.60054 0.131696 5.36612 0.366116C5.1317 0.600537 5 0.918479 5 1.25H2.5C1.12125 1.25 0 2.37125 0 3.75V22.5C0 23.8787 1.12125 25 2.5 25ZM2.5 3.75H5V6.25H17.5V3.75H20V22.5H2.5V3.75Z"/>
<path d="M9.67687 14.5315L7.06208 11.9167L5 13.9787L9.67687 18.6556L17.2704 11.0621L15.2083 9L9.67687 14.5315Z"/>
</svg>
