<svg width="40" height="40" viewBox="0 0 40 40" fill="none" xmlns="http://www.w3.org/2000/svg">
<circle cx="20" cy="20" r="20" fill="white"/>
<path d="M19.6542 20.4444C20.227 20.4444 20.6913 19.9801 20.6913 19.4074C20.6913 18.8347 20.227 18.3704 19.6542 18.3704C19.0815 18.3704 18.6172 18.8347 18.6172 19.4074C18.6172 19.9801 19.0815 20.4444 19.6542 20.4444Z" fill="#586DD0"/>
<path d="M23.8027 20.4444C24.3754 20.4444 24.8397 19.9801 24.8397 19.4074C24.8397 18.8347 24.3754 18.3704 23.8027 18.3704C23.2299 18.3704 22.7656 18.8347 22.7656 19.4074C22.7656 19.9801 23.2299 20.4444 23.8027 20.4444Z" fill="#586DD0"/>
<path d="M15.5058 20.4444C16.0785 20.4444 16.5428 19.9801 16.5428 19.4074C16.5428 18.8347 16.0785 18.3704 15.5058 18.3704C14.933 18.3704 14.4688 18.8347 14.4688 19.4074C14.4688 19.9801 14.933 20.4444 15.5058 20.4444Z" fill="#586DD0"/>
<path d="M26.9138 11.1111H12.3953C11.5702 11.1111 10.7788 11.4389 10.1954 12.0223C9.61196 12.6058 9.28418 13.3971 9.28418 14.2222V29.7778C9.2845 29.9615 9.33363 30.1419 9.42657 30.3004C9.5195 30.459 9.65288 30.59 9.81307 30.68C9.96806 30.7678 10.1431 30.8143 10.3212 30.8148C10.5073 30.8148 10.69 30.7646 10.8501 30.6696L15.5064 27.8489C15.6785 27.7464 15.8766 27.696 16.0768 27.7037H26.9138C27.7389 27.7037 28.5302 27.3759 29.1137 26.7925C29.6971 26.209 30.0249 25.4177 30.0249 24.5926V14.2222C30.0249 13.3971 29.6971 12.6058 29.1137 12.0223C28.5302 11.4389 27.7389 11.1111 26.9138 11.1111ZM27.9508 24.5926C27.9508 24.8676 27.8416 25.1314 27.6471 25.3259C27.4526 25.5204 27.1888 25.6296 26.9138 25.6296H16.0768C15.5104 25.6292 14.9546 25.7834 14.4694 26.0756L11.3583 27.9422V14.2222C11.3583 13.9472 11.4675 13.6834 11.662 13.4889C11.8565 13.2944 12.1203 13.1852 12.3953 13.1852H26.9138C27.1888 13.1852 27.4526 13.2944 27.6471 13.4889C27.8416 13.6834 27.9508 13.9472 27.9508 14.2222V24.5926Z" fill="#586DD0"/>
</svg>
