<svg width="27" height="29" viewBox="0 0 27 29" fill="none" xmlns="http://www.w3.org/2000/svg">
<path d="M12.1831 2.31901C12.5599 2.10979 12.9837 2 13.4146 2C13.8456 2 14.2694 2.10979 14.6462 2.31901L24.1774 7.61287C24.375 7.72275 24.5396 7.88347 24.6542 8.07836C24.7689 8.27326 24.8293 8.49525 24.8293 8.72135V19.1658C24.8292 19.6181 24.7081 20.0622 24.4786 20.452C24.2492 20.8418 23.9197 21.1631 23.5242 21.3827L14.6462 26.3164C14.2694 26.5256 13.8456 26.6354 13.4146 26.6354C12.9837 26.6354 12.5599 26.5256 12.1831 26.3164L3.30507 21.3827C2.90982 21.1632 2.58041 20.8421 2.35096 20.4525C2.1215 20.0629 2.00033 19.6191 2 19.167V8.72135C1.99999 8.49525 2.06042 8.27326 2.17504 8.07836C2.28966 7.88347 2.4543 7.72275 2.6519 7.61287L12.1844 2.31901H12.1831Z" stroke-width="2.91667" stroke-linecap="round" stroke-linejoin="round"/>
<path d="M7.70713 4.80469L19.1218 11.1462V15.5852M5.80469 14.7329L9.60957 16.8535" stroke-width="2.91667" stroke-linecap="round" stroke-linejoin="round"/>
<path d="M2 7.97556L13.4146 14.317M13.4146 14.317L24.8293 7.97556M13.4146 14.317V27" stroke-width="2.91667" stroke-linejoin="round"/>
</svg>
