<svg width="50" height="50" viewBox="0 0 50 50" fill="none" xmlns="http://www.w3.org/2000/svg">
<g clip-path="url(#clip0_3537_7995)">
<circle cx="24.5161" cy="24.5161" r="24.0161" fill="#EEE9FF" stroke="#EEE9FF"/>
<path d="M22.7441 17.4562L18.5972 12.6697C18.1191 12.1181 17.2427 12.1205 16.6874 12.677L13.2772 16.0931C12.2623 17.1093 11.9717 18.6181 12.5589 19.8279C16.0667 27.0904 21.9241 32.9557 29.182 36.4734C30.3906 37.0605 31.8983 36.77 32.9133 35.7539L36.3554 32.3059C36.9131 31.7482 36.9143 30.8669 36.3578 30.3889L31.5527 26.2643C31.0501 25.8328 30.2693 25.8892 29.7655 26.3942L28.0935 28.0685C28.0079 28.1583 27.8952 28.2174 27.7727 28.2369C27.6503 28.2564 27.5248 28.2351 27.4156 28.1764C24.6826 26.6027 22.4156 24.3328 20.8453 21.5979C20.7865 21.4885 20.7652 21.3628 20.7847 21.2402C20.8042 21.1175 20.8634 21.0046 20.9532 20.9188L22.6203 19.2506C23.1253 18.7432 23.1805 17.9587 22.7441 17.4549V17.4562Z" stroke="#7141FA" stroke-width="2.5" stroke-linecap="round" stroke-linejoin="round"/>
</g>
<defs>
<clipPath id="clip0_3537_7995">
<rect width="49.0323" height="49.0323" fill="white"/>
</clipPath>
</defs>
</svg>
