<svg width="40" height="40" viewBox="0 0 40 40" fill="none" xmlns="http://www.w3.org/2000/svg">
<g clip-path="url(#clip0_5072_2012)">
<circle cx="20" cy="20" r="19.5" stroke="white"/>
<path d="M18.5542 14.2408L15.1712 10.336C14.7812 9.88601 14.0662 9.88801 13.6132 10.342L10.8312 13.1288C10.0032 13.9578 9.76623 15.1887 10.2452 16.1756C13.1068 22.1002 17.8852 26.8851 23.8062 29.7548C24.7922 30.2338 26.0221 29.9968 26.8501 29.1679L29.6581 26.355C30.1131 25.9001 30.1141 25.1811 29.6601 24.7911L25.7401 21.4263C25.3301 21.0743 24.6932 21.1203 24.2822 21.5323L22.9182 22.8982C22.8483 22.9714 22.7564 23.0197 22.6565 23.0356C22.5566 23.0514 22.4543 23.0341 22.3652 22.9862C20.1356 21.7024 18.2862 19.8506 17.0052 17.6196C16.9572 17.5303 16.9399 17.4278 16.9557 17.3277C16.9716 17.2277 17.0199 17.1356 17.0932 17.0656L18.4532 15.7047C18.8652 15.2907 18.9102 14.6517 18.5542 14.2408Z" stroke="#586DD0" stroke-width="2" stroke-linecap="round" stroke-linejoin="round"/>
</g>
<defs>
<clipPath id="clip0_5072_2012">
<rect width="40" height="40"/>
</clipPath>
</defs>
</svg>
