<svg width="29" height="25" viewBox="0 0 29 25" fill="none" xmlns="http://www.w3.org/2000/svg">
<path d="M19.0269 0L23.5978 7.91766H28.4706V10.7647H26.8093L25.7317 23.6946C25.7021 24.0503 25.5399 24.382 25.2773 24.6237C25.0147 24.8655 24.6708 24.9998 24.3139 25H4.1567C3.79975 24.9998 3.45589 24.8655 3.19329 24.6237C2.93068 24.382 2.7685 24.0503 2.73887 23.6946L1.65983 10.7647H0V7.91766H4.87131L9.44368 0L11.9092 1.42353L8.15966 7.91766H20.3095L16.5613 1.42353L19.0269 0ZM23.9523 10.7647H4.51685L5.46635 22.1529H23.0028L23.9523 10.7647ZM15.6588 13.6118V19.3059H12.8118V13.6118H15.6588ZM9.9647 13.6118V19.3059H7.11764V13.6118H9.9647ZM21.3529 13.6118V19.3059H18.5059V13.6118H21.3529Z"/>
</svg>
