<svg width="40" height="40" viewBox="0 0 40 40" fill="none" xmlns="http://www.w3.org/2000/svg">
<g clip-path="url(#clip0_4318_12381)">
<circle cx="20" cy="20" r="19.5" fill="white" stroke="white"/>
<path d="M29.7309 16.7406C29.6351 16.6022 29.5072 16.489 29.358 16.4108C29.2089 16.3326 29.0431 16.2917 28.8747 16.2917H14.6382L13.4361 13.4063C13.2785 13.0263 13.0116 12.7017 12.6693 12.4736C12.3269 12.2455 11.9246 12.1241 11.5132 12.125H9.08301V14.2083H11.5132L16.4549 26.0677C16.534 26.2575 16.6676 26.4195 16.8387 26.5335C17.0097 26.6475 17.2107 26.7084 17.4163 26.7083H25.7497C26.184 26.7083 26.5726 26.4385 26.7257 26.0333L29.8507 17.7C29.9098 17.5423 29.9297 17.3727 29.9089 17.2056C29.888 17.0385 29.8269 16.879 29.7309 16.7406ZM25.0278 24.625H18.1111L15.507 18.375H27.3715L25.0278 24.625Z" fill="#586DD0"/>
<path d="M17.9375 30.875C18.8004 30.875 19.5 30.1754 19.5 29.3125C19.5 28.4496 18.8004 27.75 17.9375 27.75C17.0746 27.75 16.375 28.4496 16.375 29.3125C16.375 30.1754 17.0746 30.875 17.9375 30.875Z" fill="#586DD0"/>
<path d="M25.2295 30.875C26.0924 30.875 26.792 30.1754 26.792 29.3125C26.792 28.4496 26.0924 27.75 25.2295 27.75C24.3665 27.75 23.667 28.4496 23.667 29.3125C23.667 30.1754 24.3665 30.875 25.2295 30.875Z" fill="#586DD0"/>
</g>
<defs>
<clipPath id="clip0_4318_12381">
<rect width="40" height="40" fill="white"/>
</clipPath>
</defs>
</svg>
