<svg width="91" height="77" viewBox="0 0 91 77" fill="none" xmlns="http://www.w3.org/2000/svg">
<path d="M4.50172 58.1013L29.4922 53.5996L80.5367 66.1056L42.3877 76.0136L4.50172 58.1013Z" fill="black" fill-opacity="0.25"/>
<path d="M33.6774 6.03881L31.0183 0.77899L22.1937 66.3379L39.799 56.2625L33.6774 6.03881Z" fill="#CD9961"/>
<path d="M33.6772 6.0393L31.0181 0.779479L26.1381 37.0454L32.711 2.17707L33.6772 6.0393Z" fill="black" fill-opacity="0.1"/>
<path d="M40.9256 54.6726L22.1856 66.3239L42.1458 76.0768L40.9256 54.6726Z" fill="#BE8E5B"/>
<path d="M31.0181 0.77832L73.8055 5.51106L85.7351 67.6054L42.1478 76.0775L31.0181 0.77832Z" fill="#E9BB89"/>
<path d="M33.7949 11.2231L71.4389 12.1282L76.0566 16.3772L33.3744 15.1466L33.7949 11.2231Z" fill="#BF9970"/>
<path d="M33.353 15.1309L75.6777 16.1133L78.7384 18.9297C79.2771 19.4254 78.9139 20.3225 78.1829 20.3014L37.9136 19.1404C37.7201 19.1348 37.5351 19.0584 37.3938 18.9257L33.353 15.1309Z" fill="#B1895C"/>
<path d="M31.0181 0.77832L73.8055 5.51106L76.8978 21.6041L33.9316 20.4786L31.0181 0.77832Z" fill="black" fill-opacity="0.2"/>
<path d="M67.6009 20.2773C67.348 24.7896 63.4851 28.2426 58.9728 27.9897C54.4605 27.7368 51.0076 23.8739 51.2604 19.3616C51.5133 14.8493 55.3762 11.3964 59.8885 11.6493C64.4008 11.9021 67.8537 15.765 67.6009 20.2773Z" fill="#7140FA"/>
<path d="M59.3497 15.9583C60.1388 16.0026 60.8224 16.1956 61.4006 16.5374C61.9859 16.8796 62.4238 17.3467 62.7145 17.9387C63.0127 18.5239 63.1407 19.1931 63.0985 19.9464C63.0563 20.6996 62.8543 21.3503 62.4926 21.8986C62.1384 22.44 61.6514 22.8481 61.0315 23.1228C60.4188 23.3979 59.7179 23.5133 58.9288 23.4691L56.3033 23.322L56.7242 15.8112L59.3497 15.9583ZM58.9468 22.1856C59.7359 22.2298 60.3577 22.0488 60.8122 21.6425C61.2668 21.2362 61.516 20.6421 61.5598 19.8601C61.6036 19.0782 61.4225 18.4564 61.0167 17.9947C60.6112 17.5258 60.0139 17.2693 59.2248 17.225L58.1595 17.1653L57.8815 22.1259L58.9468 22.1856Z" fill="white" fill-opacity="0.93"/>
<path d="M30.5546 1.59817C30.3399 1.04281 30.7917 0.459607 31.3827 0.529258L73.3049 5.46953C73.5883 5.50292 73.8321 5.68628 73.9429 5.94936L79.545 19.2438C79.7684 19.7739 79.3701 20.3563 78.7956 20.3397L37.866 19.1596C37.5471 19.1504 37.2645 18.9506 37.1494 18.6528L30.5546 1.59817Z" fill="#F2C491"/>
<path fill-rule="evenodd" clip-rule="evenodd" d="M51.2296 19.5688L67.6237 20.0202C66.2222 16.0591 62.1699 12.8304 58.0075 12.5575C53.6244 12.2703 50.7024 15.3646 51.2296 19.5688Z" fill="#8257FC"/>
<path fill-rule="evenodd" clip-rule="evenodd" d="M60.548 16.7243C59.8866 16.3952 59.1591 16.2098 58.3653 16.1682L55.7242 16.0298L56.4991 19.7266L58.0066 19.7681L57.4965 17.3347L58.5681 17.3909C59.3619 17.4325 60.0202 17.6793 60.5432 18.1312C61.0496 18.5634 61.3847 19.1415 61.5486 19.8656L63.0877 19.908C62.9292 19.2233 62.6374 18.6122 62.2121 18.0749C61.7713 17.504 61.2166 17.0538 60.548 16.7243Z" fill="white"/>
</svg>
